<svg version="1.1" id="Layer_1" xmlns="http://www.w3.org/2000/svg" xmlns:xlink="http://www.w3.org/1999/xlink" x="0px" y="0px"
	 width="100%" viewBox="0 0 217 216" enable-background="new 0 0 217 216" xml:space="preserve">
<path fill="#000000" opacity="1.000000" stroke="none" 
	d="
M92.000000,217.000000 
	C61.739349,217.000000 31.478697,217.000000 1.000000,217.000000 
	C1.000000,186.646118 1.000000,156.291718 1.320203,125.445038 
	C2.432466,125.629860 3.224527,126.306969 4.027426,127.318848 
	C4.373263,128.432648 4.708262,129.211670 5.038181,130.438171 
	C5.024513,143.240448 10.950331,153.546371 16.439768,164.011200 
	C18.486202,167.912399 20.819218,168.211349 24.121426,165.254959 
	C30.623085,159.434158 37.316502,153.827545 43.946732,148.551300 
	C43.877029,150.442596 44.106667,152.022629 43.647465,153.367462 
	C42.143394,157.772339 43.841106,159.994003 48.177444,160.530930 
	C54.820503,161.353424 61.475574,162.078903 68.520447,162.879395 
	C70.237106,162.897003 71.558876,162.880753 73.264999,163.055832 
	C74.934410,163.503922 76.218895,163.979691 77.504623,163.983063 
	C88.314178,164.011368 99.123955,163.953125 110.302063,163.918564 
	C112.090240,163.568054 113.510025,163.219894 115.384964,162.920670 
	C121.224976,162.241989 126.609840,161.514374 132.419159,160.823715 
	C141.562271,158.947845 150.280930,157.035004 159.393051,155.079697 
	C164.860764,153.038803 169.935028,151.040375 175.311874,149.006790 
	C176.111664,148.663864 176.608841,148.356079 177.346771,147.997803 
	C177.587494,147.947281 178.062943,147.820938 178.278442,147.767426 
	C178.751862,147.548004 178.939133,147.323212 179.357864,146.881104 
	C183.555252,143.864639 189.025513,142.406570 189.329468,135.911133 
	C190.674911,134.117081 191.766251,132.542267 193.054520,130.617188 
	C193.655655,128.177582 194.182266,126.103455 194.443542,123.996422 
	C195.831039,112.806770 192.582733,102.879478 186.011932,93.525406 
	C183.957214,91.123039 181.974991,89.060463 179.876923,86.785019 
	C179.557129,86.309067 179.298630,86.120865 178.983978,85.684593 
	C178.931458,84.648758 178.880585,83.935883 178.804977,82.876343 
	C182.506134,84.054008 185.738235,85.082420 189.125244,86.348328 
	C189.811493,86.765205 190.342865,86.944588 190.987167,87.339920 
	C191.300125,87.825424 191.557129,88.019585 192.046997,88.429504 
	C203.878860,96.019447 211.675262,105.883545 213.188797,120.005768 
	C213.267792,120.742882 214.279770,121.379997 214.893661,122.493919 
	C214.936966,124.943039 214.944000,126.961899 214.661102,129.178772 
	C212.272934,135.279785 210.174713,141.182755 207.725922,147.138504 
	C205.036240,149.814941 202.649796,152.398163 200.366776,155.069763 
	C193.226883,163.424911 184.182678,169.313553 174.537415,174.908386 
	C173.422653,175.608719 172.646729,176.272064 171.653839,176.987091 
	C171.436890,177.038803 171.007339,177.158905 170.644852,177.155411 
	C165.517410,179.085999 160.752457,181.020081 155.599854,183.030914 
	C153.932434,183.409805 152.635437,183.653381 151.375900,184.024185 
	C145.896545,185.637268 140.428085,187.287415 134.632324,188.976410 
	C133.877991,189.099167 133.447006,189.169556 132.586761,189.169861 
	C100.352180,192.446075 68.591164,191.941971 36.751495,187.685669 
	C52.256969,202.265594 70.175247,211.418747 91.180389,215.018372 
	C91.603737,215.827820 91.801872,216.413910 92.000000,217.000000 
z"/>
<path fill="#000000" opacity="1.000000" stroke="none" 
	d="
M135.000000,0.999999 
	C162.595703,1.000000 190.191406,1.000000 218.000000,1.000000 
	C218.000000,30.020548 218.000000,59.041615 217.695572,88.706024 
	C216.623779,88.550072 215.856430,87.750786 215.055679,86.550743 
	C214.314667,82.434372 213.607056,78.718765 212.906464,74.616135 
	C209.615784,67.132706 206.318115,60.036289 202.926666,52.723030 
	C202.644409,52.234734 202.389984,52.058308 202.034180,51.647430 
	C201.168320,48.286663 199.229446,49.523785 197.992935,50.611820 
	C193.853287,54.254406 189.912384,58.122849 185.598984,62.056953 
	C182.660461,64.591820 180.018326,66.974533 177.244049,69.498520 
	C177.111893,69.639786 176.987885,70.007309 176.658417,69.809395 
	C176.211807,68.085976 176.094666,66.560471 176.283966,64.852890 
	C176.937805,61.920341 178.852432,58.402229 174.707962,57.254929 
	C171.291611,56.309193 167.563141,56.490978 163.652374,56.127510 
	C162.904160,56.025627 162.476578,55.969337 161.793304,55.581684 
	C158.673691,55.212933 155.809769,55.175541 152.529907,55.067062 
	C150.201004,54.679062 148.293243,54.130398 146.374084,54.086994 
	C139.552139,53.932709 132.726288,53.950573 125.669006,53.601601 
	C112.306450,54.277119 99.176811,55.254280 85.666061,56.308525 
	C75.826248,58.914101 66.367538,61.442593 56.526566,63.980171 
	C47.276409,66.756340 38.850605,70.259140 32.693069,78.038132 
	C32.242134,78.413948 32.031616,78.688408 31.520744,79.126663 
	C24.820477,87.822960 25.042774,97.577362 26.859222,107.235596 
	C27.622646,111.294800 30.529728,114.950836 32.406609,119.144424 
	C35.395233,124.158585 38.439552,128.818497 41.319824,133.651764 
	C41.155781,133.825134 40.846970,134.189163 40.466751,134.152954 
	C29.561869,132.088364 22.277727,124.993622 14.883272,117.667740 
	C12.509942,112.199699 10.170644,107.082047 7.874590,101.542488 
	C7.546841,96.442818 7.175847,91.765060 6.962901,86.762856 
	C7.422424,85.306931 7.723898,84.175453 8.329699,82.840515 
	C10.702144,78.074059 12.770262,73.511070 14.891766,68.725304 
	C14.945151,68.502525 15.020209,68.050552 15.262404,67.970459 
	C15.658878,67.602600 15.813157,67.314827 16.005287,67.019188 
	C16.043139,67.011314 16.028416,66.935410 16.213245,66.861290 
	C16.666956,66.627876 16.758947,66.397797 16.782394,65.832611 
	C16.932581,65.382500 16.974421,65.196709 17.257282,64.933807 
	C17.658928,64.572647 17.819550,64.288620 17.995094,64.005569 
	C18.010019,64.006554 17.998894,63.978775 18.272083,63.859360 
	C19.070496,63.152256 19.595715,62.564568 20.347969,61.849552 
	C20.594139,61.549744 20.613274,61.377266 20.640972,60.996132 
	C20.649536,60.787476 20.250908,60.662819 20.287388,60.629738 
	C20.323868,60.596661 20.253363,60.652489 20.431564,60.928467 
	C21.099905,60.813396 21.590048,60.422352 22.372314,59.896027 
	C24.117178,58.196350 25.569914,56.631958 27.328220,54.915249 
	C34.103878,50.563679 40.573971,46.364422 47.401779,42.078110 
	C56.511860,38.597546 65.264221,35.204037 74.423203,31.871584 
	C82.499969,30.615606 90.160721,29.240183 97.843727,28.003069 
	C102.583298,27.239904 107.356812,26.687578 112.328392,25.998644 
	C112.541695,25.956694 112.955406,25.822985 113.421242,25.900375 
	C137.623444,25.524834 161.251724,27.011591 184.730576,31.180664 
	C184.785965,30.729076 184.841339,30.277487 184.896713,29.825899 
	C183.611023,28.853228 182.325348,27.880558 180.909241,26.599567 
	C176.547699,23.162071 172.316589,20.032894 167.952057,16.607716 
	C166.886063,15.866719 165.953461,15.421721 165.010437,14.988323 
	C165.000000,14.999924 165.020477,14.977423 164.896118,14.641726 
	C156.063873,10.848474 147.332901,7.446865 138.671616,3.876248 
	C137.287704,3.305731 136.216019,1.977785 135.000000,0.999999 
z"/>
<path fill="#000000" opacity="1.000000" stroke="none" 
	d="
M1.000000,92.000000 
	C1.000000,61.742252 1.000000,31.484505 1.000000,1.000000 
	C29.020487,1.000000 57.041584,1.000000 85.773285,1.350934 
	C85.672935,2.141577 84.900101,2.682285 84.044998,3.005062 
	C77.024979,5.654916 69.989655,8.264230 62.597389,10.943064 
	C57.472664,13.963449 52.709526,16.926619 47.614288,19.924778 
	C46.157101,20.939981 45.032009,21.920195 43.571781,22.941864 
	C41.796501,24.292624 40.356358,25.601929 38.570061,26.951315 
	C34.456032,30.970549 30.688158,34.949699 26.616562,39.063805 
	C25.195860,40.785358 24.078882,42.371960 22.719143,44.043167 
	C22.294191,44.409573 22.112001,44.691380 21.632473,45.141624 
	C17.875975,51.844109 14.416816,58.378155 10.625362,65.076706 
	C8.835450,69.490692 7.377837,73.740181 5.636226,78.239861 
	C4.860849,82.636894 4.369470,86.783745 3.589571,91.096001 
	C2.534035,91.507607 1.767017,91.753807 1.000000,92.000000 
z"/>
<path fill="#000000" opacity="1.000000" stroke="none" 
	d="
M218.000000,132.000000 
	C218.000000,160.261917 218.000000,188.523834 218.000000,217.000000 
	C188.646118,217.000000 159.291718,217.000000 129.414978,216.661362 
	C128.908112,215.865906 128.923569,215.409103 128.957275,214.961975 
	C128.975510,214.971680 128.967896,214.942062 129.382751,214.963531 
	C134.866425,213.678864 139.935226,212.372742 145.385101,211.012390 
	C160.485123,206.611511 172.838089,198.203461 184.098389,188.129669 
	C190.924484,182.022827 197.273285,175.381912 201.279633,166.607498 
	C204.345230,161.995316 207.109283,157.513275 209.964111,152.666992 
	C212.041656,145.572876 214.028427,138.842987 216.346222,132.057587 
	C217.118164,132.001389 217.559082,132.000687 218.000000,132.000000 
z"/>
<path fill="#30B1E1" opacity="1.000000" stroke="none" 
	d="
M95.000000,1.000000 
	C104.687561,1.000000 114.375122,1.000000 124.667648,1.325295 
	C126.689293,2.386510 128.038483,3.324460 129.534073,3.824241 
	C136.992859,6.316741 144.478668,8.730379 151.978226,11.098051 
	C156.302856,12.463364 160.671600,13.688946 165.020477,14.977423 
	C165.020477,14.977423 165.000000,14.999924 164.982956,15.323347 
	C164.978714,16.094801 164.991516,16.542830 164.749817,17.228447 
	C161.808533,22.150684 157.744293,22.651560 152.929260,21.546713 
	C150.694717,21.033978 148.311798,21.167858 145.623932,20.910027 
	C142.548157,20.207569 139.839462,19.068277 137.141983,19.094276 
	C126.546730,19.196388 115.951157,19.574333 105.363014,20.022633 
	C93.355972,20.531006 81.360161,21.550335 69.352486,21.674847 
	C64.642044,21.723690 59.118511,22.117987 56.220665,16.719608 
	C58.676792,15.048572 60.863194,13.588747 63.430168,12.085176 
	C73.075272,9.204539 82.356400,6.419586 91.585060,3.470453 
	C92.856674,3.064095 93.868111,1.843587 95.000000,1.000000 
z"/>
<path fill="#22356C" opacity="1.000000" stroke="none" 
	d="
M214.857391,122.063660 
	C214.279770,121.379997 213.267792,120.742882 213.188797,120.005768 
	C211.675262,105.883545 203.878860,96.019447 192.138474,88.315323 
	C192.054062,87.909981 192.231888,87.677582 192.585251,87.749382 
	C195.577286,88.919258 198.215973,90.017334 200.987595,91.414383 
	C202.747025,93.476166 204.373520,95.238998 206.102722,97.324501 
	C209.298325,102.565521 212.075546,107.785255 218.000000,110.000000 
	C218.000000,112.370560 218.000000,114.741112 217.794586,117.844666 
	C217.341141,119.735512 217.093124,120.893356 216.514053,122.045670 
	C215.741135,122.047981 215.299255,122.055824 214.857391,122.063660 
z"/>
<path fill="#3F9ABA" opacity="1.000000" stroke="none" 
	d="
M164.896118,14.641726 
	C160.671600,13.688946 156.302856,12.463364 151.978226,11.098051 
	C144.478668,8.730379 136.992859,6.316741 129.534073,3.824241 
	C128.038483,3.324460 126.689293,2.386510 125.136307,1.325295 
	C128.030594,1.000000 131.061188,1.000000 134.545898,0.999999 
	C136.216019,1.977785 137.287704,3.305731 138.671616,3.876248 
	C147.332901,7.446865 156.063873,10.848474 164.896118,14.641726 
z"/>
<path fill="#264588" opacity="1.000000" stroke="none" 
	d="
M218.000000,109.532394 
	C212.075546,107.785255 209.298325,102.565521 206.446259,97.387085 
	C210.458069,95.751328 214.229034,94.375664 218.000000,93.000000 
	C218.000000,98.354927 218.000000,103.709862 218.000000,109.532394 
z"/>
<path fill="#295190" opacity="1.000000" stroke="none" 
	d="
M218.000000,92.600006 
	C214.229034,94.375664 210.458069,95.751328 206.343552,97.064407 
	C204.373520,95.238998 202.747025,93.476166 201.387451,91.388306 
	C206.458282,90.756760 212.084137,93.135887 215.089081,86.951492 
	C215.856430,87.750786 216.623779,88.550072 217.695572,89.174683 
	C218.000000,90.066673 218.000000,91.133339 218.000000,92.600006 
z"/>
<path fill="#3595AF" opacity="1.000000" stroke="none" 
	d="
M94.550018,1.000000 
	C93.868111,1.843587 92.856674,3.064095 91.585060,3.470453 
	C82.356400,6.419586 73.075272,9.204539 63.406757,11.773869 
	C62.988174,11.299487 62.973576,11.092668 62.958973,10.885847 
	C69.989655,8.264230 77.024979,5.654916 84.044998,3.005062 
	C84.900101,2.682285 85.672935,2.141577 86.241943,1.350934 
	C88.700012,1.000000 91.400032,1.000000 94.550018,1.000000 
z"/>
<path fill="#334778" opacity="1.000000" stroke="none" 
	d="
M1.000000,92.437500 
	C1.767017,91.753807 2.534035,91.507607 3.788830,91.339355 
	C4.683787,92.368896 5.090966,93.320496 5.546535,94.385193 
	C5.992175,91.800598 6.398514,89.443954 6.804852,87.087303 
	C7.175847,91.765060 7.546841,96.442818 7.653802,101.426689 
	C6.948613,101.501801 6.507457,101.270805 5.680062,101.027840 
	C4.522598,101.017052 3.751372,101.018227 2.982654,101.033882 
	C2.985162,101.048355 2.959352,101.062408 2.879199,100.763969 
	C2.199365,99.977020 1.599684,99.488510 1.000001,99.000000 
	C1.000000,96.958336 1.000000,94.916664 1.000000,92.437500 
M3.525676,95.501991 
	C3.525676,95.501991 3.485907,95.517044 3.525676,95.501991 
z"/>
<path fill="#130B47" opacity="1.000000" stroke="none" 
	d="
M128.939026,214.952271 
	C128.923569,215.409103 128.908112,215.865906 128.946320,216.661362 
	C126.629440,217.000000 124.258888,217.000000 121.064163,216.838654 
	C114.826660,216.784882 109.413330,216.892441 104.000000,217.000000 
	C103.250000,217.000000 102.500000,217.000000 101.411179,216.711121 
	C101.380524,215.938477 101.688698,215.454727 102.465668,214.976364 
	C105.404587,214.996674 107.874748,215.028870 110.344833,215.023102 
	C116.542915,215.008636 122.740952,214.977020 128.939026,214.952271 
z"/>
<path fill="#1C275E" opacity="1.000000" stroke="none" 
	d="
M4.016591,126.984085 
	C3.224527,126.306969 2.432466,125.629860 1.320203,124.976379 
	C1.000000,123.611107 1.000000,122.222221 1.215593,120.063797 
	C1.615274,117.374886 1.821617,115.457321 1.978871,113.535736 
	C2.319038,109.379051 2.634050,105.220306 2.959352,101.062408 
	C2.959352,101.062408 2.985162,101.048355 2.978784,101.485214 
	C3.010807,104.930733 3.049208,107.939392 3.074327,111.376419 
	C3.713234,116.191170 4.365425,120.577545 4.954023,125.244141 
	C4.599152,126.010933 4.307873,126.497505 4.016591,126.984085 
z"/>
<path fill="#252059" opacity="1.000000" stroke="none" 
	d="
M214.893661,122.493927 
	C215.299255,122.055824 215.741135,122.047981 216.564575,122.392578 
	C217.297440,123.830009 217.648712,124.915009 218.000000,126.000000 
	C218.000000,127.714424 218.000000,129.428848 218.000000,131.571625 
	C217.559082,132.000687 217.118164,132.001389 216.312103,131.718979 
	C215.614990,130.617508 215.283005,129.799133 214.951019,128.980759 
	C214.944000,126.961899 214.936966,124.943039 214.893661,122.493927 
z"/>
<path fill="#273C6D" opacity="1.000000" stroke="none" 
	d="
M2.879199,100.763969 
	C2.634050,105.220306 2.319038,109.379051 1.978871,113.535736 
	C1.821617,115.457321 1.615274,117.374886 1.215593,119.647141 
	C1.000000,113.312355 1.000000,106.624710 1.000001,99.468536 
	C1.599684,99.488510 2.199365,99.977020 2.879199,100.763969 
z"/>
<path fill="#130B47" opacity="1.000000" stroke="none" 
	d="
M92.437500,217.000000 
	C91.801872,216.413910 91.603737,215.827820 91.196030,214.762970 
	C90.998528,214.113480 91.010612,213.942780 91.419357,213.800934 
	C92.875702,213.867065 93.935364,213.904343 95.247208,213.946838 
	C95.667351,213.944061 95.835320,213.936050 96.373901,213.935059 
	C97.483971,213.974258 98.223419,214.006409 98.983612,214.408936 
	C99.002907,215.519516 99.001450,216.259766 99.000000,217.000000 
	C96.958336,217.000000 94.916664,217.000000 92.437500,217.000000 
z"/>
<path fill="#211967" opacity="1.000000" stroke="none" 
	d="
M104.467606,217.000000 
	C109.413330,216.892441 114.826660,216.784882 120.619995,216.838654 
	C115.645073,217.000000 110.290138,217.000000 104.467606,217.000000 
z"/>
<path fill="#221A58" opacity="1.000000" stroke="none" 
	d="
M99.333328,217.000000 
	C99.001450,216.259766 99.002907,215.519516 99.201584,214.255295 
	C100.264839,214.144531 101.130859,214.557755 101.996872,214.970978 
	C101.688698,215.454727 101.380524,215.938477 101.036179,216.711121 
	C100.555557,217.000000 100.111107,217.000000 99.333328,217.000000 
z"/>
<path fill="#434081" opacity="1.000000" stroke="none" 
	d="
M218.000000,125.555832 
	C217.648712,124.915009 217.297440,123.830009 216.895630,122.398109 
	C217.093124,120.893356 217.341141,119.735512 217.794586,118.288834 
	C218.000000,120.370560 218.000000,122.741112 218.000000,125.555832 
z"/>
<path fill="#211967" opacity="1.000000" stroke="none" 
	d="
M41.483868,133.478394 
	C38.439552,128.818497 35.395233,124.158585 32.558907,119.127052 
	C32.766895,118.755417 33.081211,118.731918 33.335403,118.935120 
	C34.728416,120.093353 35.867241,121.048370 37.133060,122.293015 
	C37.516655,123.383049 37.773254,124.183464 38.214188,125.277527 
	C40.451057,127.119560 42.968060,128.315140 44.464813,130.285690 
	C48.224075,135.234879 50.213860,135.843872 56.128281,133.229858 
	C57.921410,132.437347 60.029732,132.357986 61.934639,132.303680 
	C61.905796,134.771210 61.935989,136.887054 61.612953,139.032471 
	C58.872459,139.481567 57.706532,140.498550 59.014179,143.076019 
	C59.810398,144.645401 60.332123,146.354050 61.046875,148.278915 
	C61.423252,149.035126 61.729904,149.512558 62.015820,149.978378 
	C61.995087,149.966751 62.039043,149.948578 62.033730,150.209778 
	C62.025051,150.645111 62.021687,150.819244 61.930275,151.105469 
	C61.725643,151.506348 61.791542,151.754837 62.348953,151.966904 
	C63.069923,151.980347 63.481869,151.989868 64.373451,152.004974 
	C71.599564,152.018127 78.347443,152.104370 85.091667,151.984680 
	C87.075874,151.949448 89.049728,151.331009 91.037018,150.775330 
	C91.045708,150.570831 91.064331,150.161911 91.353622,150.059143 
	C92.159088,144.299850 92.675262,138.643341 93.472046,132.848755 
	C94.840324,131.137115 95.927986,129.563568 97.364120,128.078918 
	C104.099236,131.791962 110.777786,133.326599 118.204422,131.000519 
	C118.413269,130.999496 118.830963,130.997833 118.829376,131.390808 
	C118.135681,135.195221 117.443565,138.606674 116.589798,142.323181 
	C116.315903,143.781509 116.203659,144.934769 115.983116,146.331299 
	C116.261154,147.636169 116.647491,148.697754 117.264954,150.003387 
	C118.333328,150.503021 119.170578,150.758652 120.358917,151.229736 
	C129.769791,151.302811 138.829559,151.160416 148.184998,150.836243 
	C152.013275,148.717102 150.055542,145.648453 150.374100,143.137604 
	C151.178818,144.122772 151.794830,144.906158 152.141632,145.794632 
	C154.066772,150.726517 159.469269,152.207962 164.264648,148.915955 
	C166.156342,148.835892 168.103058,149.426971 169.359406,148.745438 
	C175.401505,145.467697 182.620407,143.717102 184.687439,135.387512 
	C185.461685,132.267487 187.927139,133.644485 189.075363,136.130371 
	C189.025513,142.406570 183.555252,143.864639 179.176682,146.990601 
	C178.461121,147.421173 178.250977,147.608658 178.062943,147.820938 
	C178.062943,147.820938 177.587494,147.947281 177.054764,148.051270 
	C176.017776,148.450821 175.513535,148.746384 175.009277,149.041946 
	C169.935028,151.040375 164.860764,153.038803 159.396790,154.800995 
	C159.008652,154.379318 159.010269,154.193848 159.070801,153.975159 
	C159.129715,153.941956 159.133224,153.779968 159.133224,153.779968 
	C159.133224,153.779968 158.990829,153.987076 158.572815,153.990112 
	C155.725067,154.414169 153.287048,154.792618 150.867233,155.264465 
	C144.574707,156.491486 138.290161,157.759552 131.591766,159.043579 
	C126.647491,159.714737 122.099251,160.269974 117.591965,161.059113 
	C116.628334,161.227844 115.813309,162.245285 114.929817,162.871735 
	C113.510025,163.219894 112.090240,163.568054 109.952637,163.726669 
	C101.296387,163.030609 93.347664,162.647629 85.421921,161.988449 
	C73.687500,161.012512 61.961720,159.914627 50.249657,158.700775 
	C47.269455,158.391922 44.829861,157.367584 45.713135,153.218781 
	C46.032688,151.717834 44.576500,149.838821 43.930595,148.132324 
	C37.316502,153.827545 30.623085,159.434158 24.121426,165.254959 
	C20.819218,168.211349 18.486202,167.912399 16.439768,164.011200 
	C10.950331,153.546371 5.024513,143.240448 5.452333,130.426819 
	C10.842800,129.311325 15.814034,128.654602 21.614876,127.888290 
	C19.192316,125.366035 17.098280,123.185829 14.868788,120.720291 
	C14.460337,119.642708 14.187340,118.850441 13.950399,118.025543 
	C13.986456,117.992912 14.051724,117.920792 14.268541,117.941376 
	C14.485358,117.961960 14.917304,118.018135 14.917304,118.018135 
	C22.277727,124.993622 29.561869,132.088364 40.616360,134.319946 
	C41.519875,134.487793 41.893566,134.452438 42.267258,134.417068 
	C42.006126,134.104172 41.744995,133.791290 41.483868,133.478394 
z"/>
<path fill="#211967" opacity="1.000000" stroke="none" 
	d="
M102.465668,214.976364 
	C101.130859,214.557755 100.264839,214.144531 99.180847,213.884949 
	C98.223419,214.006409 97.483971,213.974258 96.256020,213.861343 
	C95.484207,213.689850 95.226715,213.743530 94.995033,213.941635 
	C93.935364,213.904343 92.875702,213.867065 91.374580,213.517029 
	C88.380569,212.443924 85.775406,211.824341 83.286453,210.893829 
	C78.177116,208.983688 73.081726,207.019485 68.071068,204.866898 
	C63.156475,202.755600 58.258476,200.562546 53.542309,198.050354 
	C51.131432,196.766144 49.134598,194.704651 46.035133,192.277573 
	C48.491055,191.567062 49.414543,191.024902 50.293819,191.089020 
	C57.353813,191.603928 64.403229,192.261597 71.460403,192.818237 
	C76.752129,193.235611 82.052055,193.889511 87.345642,193.864685 
	C95.796509,193.825058 104.248955,193.386063 112.693375,192.967529 
	C118.326523,192.688339 123.961861,192.279999 129.561310,191.629196 
	C130.788864,191.486511 131.868347,190.069885 133.016022,189.239944 
	C133.447006,189.169556 133.877991,189.099167 134.885864,189.166885 
	C143.167328,190.857330 149.549393,187.271851 156.410522,183.979828 
	C158.556946,183.595978 160.507111,183.621017 162.019272,182.819595 
	C165.139008,181.166138 168.025116,179.071838 171.007339,177.158905 
	C171.007339,177.158905 171.436890,177.038803 172.045624,177.002151 
	C173.436813,176.977859 174.219284,176.990219 175.246002,177.154205 
	C176.662796,176.545227 177.835342,175.784607 179.371124,174.990051 
	C187.157303,169.843140 194.580246,164.730179 202.873108,159.018021 
	C202.104553,162.148834 201.541321,164.443237 200.978088,166.737640 
	C197.273285,175.381912 190.924484,182.022827 184.098389,188.129669 
	C172.838089,198.203461 160.485123,206.611511 145.098053,210.809143 
	C139.275925,212.087463 134.121918,213.514771 128.967896,214.942078 
	C128.967896,214.942062 128.975510,214.971680 128.957260,214.961975 
	C122.740952,214.977020 116.542915,215.008636 110.344833,215.023102 
	C107.874748,215.028870 105.404587,214.996674 102.465668,214.976364 
z"/>
<path fill="#221A58" opacity="1.000000" stroke="none" 
	d="
M132.586761,189.169861 
	C131.868347,190.069885 130.788864,191.486511 129.561310,191.629196 
	C123.961861,192.279999 118.326523,192.688339 112.693375,192.967529 
	C104.248955,193.386063 95.796509,193.825058 87.345642,193.864685 
	C82.052055,193.889511 76.752129,193.235611 71.460403,192.818237 
	C64.403229,192.261597 57.353813,191.603928 50.293819,191.089020 
	C49.414543,191.024902 48.491055,191.567062 46.035133,192.277573 
	C49.134598,194.704651 51.131432,196.766144 53.542309,198.050354 
	C58.258476,200.562546 63.156475,202.755600 68.071068,204.866898 
	C73.081726,207.019485 78.177116,208.983688 83.286453,210.893829 
	C85.775406,211.824341 88.380569,212.443924 90.977905,213.488190 
	C91.010612,213.942780 90.998528,214.113480 90.970810,214.539612 
	C70.175247,211.418747 52.256969,202.265594 36.751495,187.685669 
	C68.591164,191.941971 100.352180,192.446075 132.586761,189.169861 
z"/>
<path fill="#201B67" opacity="1.000000" stroke="none" 
	d="
M189.329468,135.911133 
	C187.927139,133.644485 185.461685,132.267487 184.687439,135.387512 
	C182.620407,143.717102 175.401505,145.467697 169.359406,148.745438 
	C168.103058,149.426971 166.156342,148.835892 163.958267,148.794495 
	C161.000168,147.371567 158.611603,145.985458 155.779541,144.341995 
	C159.018585,143.610703 161.905457,143.838730 163.024902,142.541534 
	C166.409393,138.619690 169.817490,137.137344 174.773438,139.406067 
	C175.639664,139.802628 177.899643,138.664246 178.603851,137.619827 
	C180.651321,134.583145 182.235779,131.234268 184.372284,128.012802 
	C187.485748,127.345444 190.228729,126.673119 192.920059,126.328415 
	C192.864792,128.093185 192.861176,129.530319 192.857574,130.967468 
	C191.766251,132.542267 190.674911,134.117081 189.329468,135.911133 
z"/>
<path fill="#221B54" opacity="1.000000" stroke="none" 
	d="
M201.279633,166.607498 
	C201.541321,164.443237 202.104553,162.148834 202.873108,159.018021 
	C194.580246,164.730179 187.157303,169.843140 179.098907,174.897461 
	C177.335358,174.917038 176.207260,174.995224 175.028290,175.023071 
	C174.977417,174.972702 174.876251,174.871399 174.876251,174.871399 
	C184.182678,169.313553 193.226883,163.424911 200.366776,155.069763 
	C202.649796,152.398163 205.036240,149.814941 207.894867,147.399780 
	C208.900726,149.415924 209.387039,151.223587 209.873352,153.031219 
	C207.109283,157.513275 204.345230,161.995316 201.279633,166.607498 
z"/>
<path fill="#160E4D" opacity="1.000000" stroke="none" 
	d="
M43.946732,148.551300 
	C44.576500,149.838821 46.032688,151.717834 45.713135,153.218781 
	C44.829861,157.367584 47.269455,158.391922 50.249657,158.700775 
	C61.961720,159.914627 73.687500,161.012512 85.421921,161.988449 
	C93.347664,162.647629 101.296387,163.030609 109.584244,163.729034 
	C99.123955,163.953125 88.314178,164.011368 77.504623,163.983063 
	C76.218895,163.979691 74.934410,163.503922 72.999390,162.882172 
	C70.941475,162.626648 69.533508,162.736099 68.125549,162.845551 
	C61.475574,162.078903 54.820503,161.353424 48.177444,160.530930 
	C43.841106,159.994003 42.143394,157.772339 43.647465,153.367462 
	C44.106667,152.022629 43.877029,150.442596 43.946732,148.551300 
z"/>
<path fill="#285899" opacity="1.000000" stroke="none" 
	d="
M178.985611,86.007561 
	C179.298630,86.120865 179.557129,86.309067 179.870667,87.160172 
	C179.992157,88.498199 180.004044,89.248207 179.546631,89.998138 
	C177.082153,89.999290 175.082443,89.914177 173.092651,90.018364 
	C167.731644,90.299065 162.374878,90.660484 157.009552,90.555130 
	C157.336884,87.412941 157.671051,84.705490 158.273544,82.231651 
	C168.310211,86.545464 167.635544,87.569550 174.475891,81.419426 
	C175.008820,80.940277 176.152527,81.140450 177.008301,81.404457 
	C177.664703,83.191872 178.325150,84.599716 178.985611,86.007561 
z"/>
<path fill="#202270" opacity="1.000000" stroke="none" 
	d="
M15.004243,121.005623 
	C17.098280,123.185829 19.192316,125.366035 21.614876,127.888290 
	C15.814034,128.654602 10.842800,129.311325 5.457414,129.979370 
	C4.708262,129.211670 4.373263,128.432648 4.027429,127.318848 
	C4.307873,126.497505 4.599152,126.010933 5.262060,125.062958 
	C8.757207,123.402916 11.880725,122.204269 15.004243,121.005623 
z"/>
<path fill="#170E42" opacity="1.000000" stroke="none" 
	d="
M209.964127,152.667007 
	C209.387039,151.223587 208.900726,149.415924 208.245453,147.347015 
	C210.174713,141.182755 212.272934,135.279785 214.661102,129.178772 
	C215.283005,129.799133 215.614990,130.617508 215.981079,131.774475 
	C214.028427,138.842987 212.041656,145.572876 209.964127,152.667007 
M209.499939,145.474243 
	C209.499939,145.474243 209.514435,145.515152 209.499939,145.474243 
z"/>
<path fill="#2A355F" opacity="1.000000" stroke="none" 
	d="
M193.054504,130.617188 
	C192.861176,129.530319 192.864792,128.093185 192.930450,125.926544 
	C192.991776,124.125259 192.991058,123.053482 192.997864,121.538147 
	C192.341751,118.063522 191.678116,115.032448 190.867340,111.813629 
	C190.508011,111.386536 190.268661,111.178406 190.125839,110.688553 
	C189.482086,107.589226 188.714676,104.802841 187.908630,101.652634 
	C187.183456,99.232109 186.496933,97.175415 185.875702,94.804634 
	C185.988815,94.282104 186.036636,94.073654 186.084442,93.865204 
	C192.582733,102.879478 195.831039,112.806770 194.443542,123.996422 
	C194.182266,126.103455 193.655655,128.177582 193.054504,130.617188 
z"/>
<path fill="#221A58" opacity="1.000000" stroke="none" 
	d="
M156.015945,184.014526 
	C149.549393,187.271851 143.167328,190.857330 135.209213,189.114532 
	C140.428085,187.287415 145.896545,185.637268 151.375900,184.024185 
	C152.635437,183.653381 153.932434,183.409805 155.607224,183.296097 
	C156.006805,183.661179 156.011368,183.837845 156.015945,184.014526 
z"/>
<path fill="#1B134E" opacity="1.000000" stroke="none" 
	d="
M159.011871,154.008362 
	C159.010269,154.193848 159.008652,154.379318 159.003326,154.843475 
	C150.280930,157.035004 141.562271,158.947845 132.420166,160.528717 
	C131.998627,159.801590 132.000534,159.406418 132.002441,159.011246 
	C138.290161,157.759552 144.574707,156.491486 150.867233,155.264465 
	C153.287048,154.792618 155.725067,154.414169 158.577362,153.996384 
	C158.999908,153.999603 159.011871,154.008362 159.011871,154.008362 
z"/>
<path fill="#1D1351" opacity="1.000000" stroke="none" 
	d="
M131.591766,159.043579 
	C132.000534,159.406418 131.998627,159.801590 131.995697,160.491760 
	C126.609840,161.514374 121.224976,162.241989 115.384964,162.920670 
	C115.813309,162.245285 116.628334,161.227844 117.591965,161.059113 
	C122.099251,160.269974 126.647491,159.714737 131.591766,159.043579 
z"/>
<path fill="#241B5F" opacity="1.000000" stroke="none" 
	d="
M156.410522,183.979828 
	C156.011368,183.837845 156.006805,183.661179 155.994873,183.219330 
	C160.752457,181.020081 165.517410,179.085999 170.644852,177.155411 
	C168.025116,179.071838 165.139008,181.166138 162.019272,182.819595 
	C160.507111,183.621017 158.556946,183.595978 156.410522,183.979828 
z"/>
<path fill="#294777" opacity="1.000000" stroke="none" 
	d="
M178.983978,85.684593 
	C178.325150,84.599716 177.664703,83.191872 177.398270,81.427582 
	C179.861115,81.390457 181.929962,81.709778 184.251602,82.228210 
	C185.331390,82.624222 186.158371,82.821129 186.991760,83.012489 
	C186.998169,83.006943 186.981735,83.017303 187.134262,83.268005 
	C187.866028,84.044739 188.445267,84.570778 189.010178,85.350281 
	C188.987366,85.772766 188.978851,85.941795 188.970337,86.110832 
	C185.738235,85.082420 182.506134,84.054008 178.804977,82.876343 
	C178.880585,83.935883 178.931458,84.648758 178.983978,85.684593 
z"/>
<path fill="#294777" opacity="1.000000" stroke="none" 
	d="
M186.011932,93.525406 
	C186.036636,94.073654 185.988815,94.282104 185.558533,94.738831 
	C183.803024,93.983475 182.429962,92.979843 180.989044,91.699364 
	C180.619431,90.947746 180.317688,90.472984 180.015945,89.998215 
	C180.004044,89.248207 179.992157,88.498199 179.986511,87.373032 
	C181.974991,89.060463 183.957214,91.123039 186.011932,93.525406 
z"/>
<path fill="#221B54" opacity="1.000000" stroke="none" 
	d="
M175.001770,177.002594 
	C174.219284,176.990219 173.436813,176.977859 172.262573,176.950439 
	C172.646729,176.272064 173.422653,175.608719 174.537415,174.908386 
	C174.876251,174.871399 174.977417,174.972702 175.006287,175.343506 
	C175.024033,176.143738 175.012909,176.573166 175.001770,177.002594 
z"/>
<path fill="#211967" opacity="1.000000" stroke="none" 
	d="
M68.520447,162.879395 
	C69.533508,162.736099 70.941475,162.626648 72.615036,162.690857 
	C71.558876,162.880753 70.237106,162.897003 68.520447,162.879395 
z"/>
<path fill="#22356C" opacity="1.000000" stroke="none" 
	d="
M189.125244,86.348328 
	C188.978851,85.941795 188.987366,85.772766 189.294083,85.417534 
	C190.146912,85.753296 190.701538,86.275276 191.159851,86.877960 
	C191.063538,86.958672 190.874222,87.123962 190.874222,87.123962 
	C190.342865,86.944588 189.811493,86.765205 189.125244,86.348328 
z"/>
<path fill="#201B67" opacity="1.000000" stroke="none" 
	d="
M175.311874,149.006790 
	C175.513535,148.746384 176.017776,148.450821 176.814026,148.101776 
	C176.608841,148.356079 176.111664,148.663864 175.311874,149.006790 
z"/>
<path fill="#22356C" opacity="1.000000" stroke="none" 
	d="
M191.962585,88.024162 
	C191.557129,88.019585 191.300125,87.825424 190.987167,87.339912 
	C190.874222,87.123962 191.063538,86.958672 191.308716,87.039429 
	C191.764282,87.324959 191.990280,87.510757 192.231888,87.677582 
	C192.231888,87.677582 192.054062,87.909981 191.962585,88.024162 
z"/>
<path fill="#201B67" opacity="1.000000" stroke="none" 
	d="
M178.278442,147.767426 
	C178.250977,147.608658 178.461121,147.421173 178.874557,147.149017 
	C178.939133,147.323212 178.751862,147.548004 178.278442,147.767426 
z"/>
<path fill="#2C78B1" opacity="1.000000" stroke="none" 
	d="
M162.048981,55.913048 
	C162.476578,55.969337 162.904160,56.025627 163.899628,56.386524 
	C166.001495,57.214252 167.499451,57.943951 169.076721,58.219315 
	C172.853638,58.878708 175.123672,60.668003 174.578949,64.867844 
	C174.387222,64.922928 174.003189,65.031052 173.774475,65.035896 
	C173.545761,65.040741 173.088394,65.051476 172.717255,65.068199 
	C168.233459,65.724144 164.120834,66.363358 159.661102,66.835892 
	C147.936142,63.653484 136.481766,64.623756 124.561317,66.008530 
	C118.321999,66.114616 112.537186,66.144714 106.763062,66.408653 
	C105.799652,66.452698 104.882721,67.513374 103.680763,68.094284 
	C103.241425,68.088402 103.065643,68.092506 102.894730,68.059143 
	C102.899597,68.021683 102.974640,68.030525 102.914200,67.643707 
	C101.559616,66.502769 100.317863,65.217270 98.962524,65.083603 
	C91.901558,64.387268 84.808212,64.024490 77.736877,63.420082 
	C76.976288,63.355068 76.285072,62.478416 74.531677,61.266121 
	C80.790199,59.692680 85.952431,58.394852 91.564682,57.086494 
	C100.433655,56.696720 108.862312,56.455257 117.266235,55.862907 
	C120.176384,55.657784 123.025131,54.581570 125.901924,53.903236 
	C132.726288,53.950573 139.552139,53.932709 146.374084,54.086994 
	C148.293243,54.130398 150.201004,54.679062 152.723572,55.380623 
	C156.238449,55.814526 159.143707,55.863785 162.048981,55.913048 
z"/>
<path fill="#356B99" opacity="1.000000" stroke="none" 
	d="
M91.114662,57.097023 
	C85.952431,58.394852 80.790199,59.692680 74.531677,61.266121 
	C76.285072,62.478416 76.976288,63.355068 77.736877,63.420082 
	C84.808212,64.024490 91.901558,64.387268 98.962524,65.083603 
	C100.317863,65.217270 101.559616,66.502769 102.526688,67.476433 
	C94.108307,67.454216 86.018074,67.135765 77.924980,67.024155 
	C75.880440,66.995964 73.826775,67.628349 71.489914,68.018814 
	C70.500412,68.419106 69.798302,68.757774 69.080498,68.753525 
	C69.050545,67.953140 69.036285,67.495659 69.207047,66.808868 
	C71.619965,63.023911 68.078323,63.554241 66.774551,63.428150 
	C64.573555,63.215290 62.297916,63.774120 59.660500,64.004646 
	C58.481167,63.990929 57.694996,63.981007 56.908825,63.971085 
	C66.367538,61.442593 75.826248,58.914101 85.989761,56.476246 
	C88.167938,56.743599 89.641296,56.920311 91.114662,57.097023 
z"/>
<path fill="#418FAF" opacity="1.000000" stroke="none" 
	d="
M181.039658,26.907887 
	C182.325348,27.880558 183.611023,28.853228 184.896713,29.825899 
	C184.841339,30.277487 184.785965,30.729076 184.730576,31.180664 
	C161.251724,27.011591 137.623444,25.524834 113.436966,25.612038 
	C113.007629,24.861595 113.028397,24.476877 113.512222,24.080496 
	C124.308907,24.078083 134.642532,24.087334 145.326599,24.307455 
	C154.456711,25.332735 163.236343,26.147144 172.410339,27.009344 
	C175.549667,27.007385 178.294662,26.957636 181.039658,26.907887 
z"/>
<path fill="#265797" opacity="1.000000" stroke="none" 
	d="
M192.585251,87.749382 
	C191.990280,87.510757 191.764282,87.324959 191.405014,86.958717 
	C190.701538,86.275276 190.146912,85.753296 189.308395,85.164070 
	C188.445267,84.570778 187.866028,84.044739 187.524628,83.292305 
	C194.797333,84.132225 201.821854,85.282082 208.880478,86.156593 
	C209.739655,86.263046 211.449951,85.017204 211.612137,84.175705 
	C212.061035,81.846771 211.899689,79.400215 211.978577,76.666824 
	C211.967850,75.889214 211.958099,75.444946 212.186127,75.002213 
	C212.423904,75.003754 212.899445,75.003151 212.899445,75.003151 
	C213.607056,78.718765 214.314667,82.434372 215.055679,86.550735 
	C212.084137,93.135887 206.458282,90.756760 201.254517,91.089340 
	C198.215973,90.017334 195.577286,88.919258 192.585251,87.749382 
z"/>
<path fill="#242D71" opacity="1.000000" stroke="none" 
	d="
M14.868790,120.720291 
	C11.880725,122.204269 8.757207,123.402916 5.325652,124.782738 
	C4.365425,120.577545 3.713234,116.191170 3.408907,111.461960 
	C6.547506,112.060425 8.248605,111.836723 7.318602,108.153999 
	C6.730624,105.825668 6.472417,103.414062 6.066300,101.039803 
	C6.507457,101.270805 6.948613,101.501801 7.610558,101.848602 
	C10.170644,107.082047 12.509942,112.199699 14.883272,117.667740 
	C14.917304,118.018135 14.485358,117.961960 14.218179,117.886383 
	C13.950999,117.810806 13.734699,117.840034 13.734699,117.840034 
	C13.734699,117.840034 13.914341,118.058182 13.914341,118.058182 
	C14.187340,118.850441 14.460337,119.642708 14.868790,120.720291 
z"/>
<path fill="#2D7BB5" opacity="1.000000" stroke="none" 
	d="
M202.069656,51.976921 
	C202.389984,52.058308 202.644409,52.234734 202.945862,53.112770 
	C203.743134,56.796116 204.427460,59.872890 204.857742,62.777584 
	C203.261765,62.649342 201.893234,62.539574 200.582886,62.766159 
	C196.833115,63.414581 193.061676,64.476547 190.285400,60.822906 
	C194.395844,57.748951 198.232758,54.862938 202.069656,51.976921 
z"/>
<path fill="#293B66" opacity="1.000000" stroke="none" 
	d="
M33.081207,118.731918 
	C33.081211,118.731918 32.766895,118.755417 32.614597,118.772781 
	C30.529728,114.950836 27.622646,111.294800 26.859222,107.235596 
	C25.042774,97.577362 24.820477,87.822960 31.811844,79.144310 
	C32.596554,79.005310 32.789810,79.012451 32.965839,79.361191 
	C32.902958,80.386330 32.857311,81.069885 32.504448,81.922867 
	C30.831936,86.697838 29.466639,91.303391 28.085075,96.340080 
	C28.371269,99.523849 28.673729,102.276482 28.990788,105.404144 
	C30.332203,108.858238 31.659018,111.937294 32.986473,115.392136 
	C33.018482,116.755913 33.049847,117.743919 33.081207,118.731918 
z"/>
<path fill="#306F9B" opacity="1.000000" stroke="none" 
	d="
M10.957659,64.912201 
	C14.416816,58.378155 17.875975,51.844109 21.774382,45.147850 
	C22.213633,44.985638 22.494997,45.024906 22.378632,45.412376 
	C21.820028,47.859879 21.377789,49.919910 20.663372,52.169708 
	C15.040073,58.942680 15.054030,59.454483 20.632406,61.204788 
	C20.613274,61.377266 20.594139,61.549744 20.050709,61.945419 
	C19.017242,62.772003 18.508068,63.375389 17.998894,63.978775 
	C17.998894,63.978775 18.010019,64.006554 17.814426,64.153328 
	C17.388912,64.512413 17.188055,64.749352 17.016260,65.010925 
	C16.974421,65.196709 16.932581,65.382500 16.656172,65.957169 
	C16.265013,66.525467 16.133951,66.721924 16.028416,66.935410 
	C16.028416,66.935410 16.043139,67.011314 15.826747,67.169357 
	C15.384074,67.544319 15.187359,67.785370 15.020209,68.050552 
	C15.020209,68.050552 14.945151,68.502525 14.514187,68.735367 
	C13.076407,68.999825 12.069592,69.031448 11.036253,69.039116 
	C11.009729,69.015167 10.953874,68.970581 10.959633,68.564819 
	C10.962813,67.076767 10.960237,65.994484 10.957659,64.912201 
z"/>
<path fill="#3884AB" opacity="1.000000" stroke="none" 
	d="
M74.016586,31.810532 
	C65.264221,35.204037 56.511860,38.597546 47.389484,41.772301 
	C47.012863,41.349548 47.006256,41.145554 47.229515,40.689415 
	C49.421131,39.194347 51.333221,37.862141 53.359390,36.735012 
	C55.180202,35.722130 57.126305,34.934479 59.388016,34.015091 
	C63.174007,32.615288 66.589119,31.247871 70.432022,29.902180 
	C72.576195,29.895065 74.292580,29.866228 75.842911,30.064011 
	C75.123428,30.797264 74.570007,31.303898 74.016586,31.810532 
z"/>
<path fill="#3E6E92" opacity="1.000000" stroke="none" 
	d="
M91.564682,57.086494 
	C89.641296,56.920311 88.167938,56.743599 86.370865,56.399162 
	C99.176811,55.254280 112.306450,54.277119 125.669006,53.601597 
	C123.025131,54.581570 120.176384,55.657784 117.266235,55.862907 
	C108.862312,56.455257 100.433655,56.696720 91.564682,57.086494 
z"/>
<path fill="#2C5586" opacity="1.000000" stroke="none" 
	d="
M56.526566,63.980171 
	C57.694996,63.981007 58.481167,63.990929 59.411530,64.212730 
	C58.383636,64.991951 57.211555,65.559288 55.693382,66.240036 
	C54.561443,66.572647 53.699867,66.652786 53.001686,67.032990 
	C47.283096,70.147087 40.070152,71.090248 36.568325,77.999435 
	C35.196342,78.072746 34.199902,78.144814 33.136257,78.146576 
	C33.069050,78.076279 32.933495,77.936783 32.933495,77.936783 
	C38.850605,70.259140 47.276409,66.756340 56.526566,63.980171 
z"/>
<path fill="#2D5784" opacity="1.000000" stroke="none" 
	d="
M11.062777,69.063065 
	C12.069592,69.031448 13.076407,68.999825 14.460802,68.958145 
	C12.770262,73.511070 10.702144,78.074059 8.309218,82.472198 
	C7.296348,80.868118 6.608285,79.428894 5.920222,77.989670 
	C7.377837,73.740181 8.835450,69.490692 10.625362,65.076706 
	C10.960237,65.994484 10.962813,67.076767 10.847415,68.674942 
	C10.730556,69.407341 10.731675,69.623848 10.732795,69.840347 
	C10.842790,69.581253 10.952784,69.322159 11.062777,69.063065 
z"/>
<path fill="#326F97" opacity="1.000000" stroke="none" 
	d="
M46.999649,40.941555 
	C47.006256,41.145554 47.012863,41.349548 47.031765,41.859352 
	C40.573971,46.364422 34.103878,50.563679 27.316654,54.551834 
	C26.983509,53.856174 26.967497,53.371624 27.084627,52.590843 
	C29.816212,50.199844 32.414654,48.105068 35.321175,45.859581 
	C38.752140,44.092701 41.875027,42.476536 45.331528,40.874065 
	C46.109982,40.905693 46.554813,40.923622 46.999649,40.941555 
z"/>
<path fill="#4890AB" opacity="1.000000" stroke="none" 
	d="
M74.423203,31.871586 
	C74.570007,31.303898 75.123428,30.797264 76.137474,29.897018 
	C77.713341,29.267447 78.828575,29.031485 80.365089,28.842346 
	C86.199394,27.952854 91.612427,27.016541 97.397736,26.048714 
	C98.515900,25.973434 99.261795,25.929667 100.200912,25.772793 
	C100.640030,25.484869 100.855530,25.278328 101.365143,25.044579 
	C102.122337,25.043016 102.555008,25.036932 103.248672,25.219616 
	C104.339325,25.605247 105.168976,25.802111 106.373978,25.999611 
	C107.501152,25.999212 108.252983,25.998177 109.392456,25.993084 
	C110.558426,26.006218 111.336761,26.023407 112.115089,26.040596 
	C107.356812,26.687578 102.583298,27.239904 97.843727,28.003069 
	C90.160721,29.240183 82.499969,30.615606 74.423203,31.871586 
z"/>
<path fill="#3F9ABA" opacity="1.000000" stroke="none" 
	d="
M180.909241,26.599569 
	C178.294662,26.957636 175.549667,27.007385 172.473465,26.682119 
	C173.873276,21.726553 168.675751,20.564594 167.801117,17.213375 
	C167.896011,17.110247 168.085480,16.903713 168.085480,16.903713 
	C172.316589,20.032894 176.547699,23.162071 180.909241,26.599569 
z"/>
<path fill="#2E6189" opacity="1.000000" stroke="none" 
	d="
M205.111771,62.949661 
	C204.427460,59.872890 203.743134,56.796116 203.039627,53.329605 
	C206.318115,60.036289 209.615784,67.132706 212.906464,74.616135 
	C212.899445,75.003151 212.423904,75.003754 211.988892,74.812202 
	C211.054047,74.404266 210.554214,74.187889 210.034180,73.576706 
	C208.381561,69.776024 206.749146,66.370155 205.109802,62.955013 
	C205.102890,62.945747 205.111771,62.949661 205.111771,62.949661 
z"/>
<path fill="#243E72" opacity="1.000000" stroke="none" 
	d="
M5.636226,78.239861 
	C6.608285,79.428894 7.296348,80.868118 8.004892,82.675659 
	C7.723898,84.175453 7.422424,85.306931 6.962901,86.762856 
	C6.398514,89.443954 5.992175,91.800598 5.546535,94.385193 
	C5.090966,93.320496 4.683787,92.368896 4.077349,91.173935 
	C4.369470,86.783745 4.860849,82.636894 5.636226,78.239861 
z"/>
<path fill="#2F81B8" opacity="1.000000" stroke="none" 
	d="
M20.640972,60.996132 
	C15.054030,59.454483 15.040073,58.942680 21.031750,52.197529 
	C23.090343,52.345940 24.508385,52.656296 25.756342,53.257763 
	C23.807808,55.920189 22.029358,58.291504 20.250908,60.662819 
	C20.250908,60.662819 20.649536,60.787476 20.640972,60.996132 
z"/>
<path fill="#2E6189" opacity="1.000000" stroke="none" 
	d="
M202.034180,51.647430 
	C198.232758,54.862938 194.395844,57.748951 189.981567,60.949215 
	C188.384430,61.623943 187.364670,61.984421 186.232605,62.234802 
	C186.120285,62.124710 185.895386,61.904804 185.895386,61.904800 
	C189.912384,58.122849 193.853287,54.254406 197.992935,50.611820 
	C199.229446,49.523785 201.168320,48.286663 202.034180,51.647430 
z"/>
<path fill="#2C658E" opacity="1.000000" stroke="none" 
	d="
M174.770691,64.812752 
	C175.123672,60.668003 172.853638,58.878708 169.076721,58.219315 
	C167.499451,57.943951 166.001495,57.214252 164.220230,56.432114 
	C167.563141,56.490978 171.291611,56.309193 174.707962,57.254929 
	C178.852432,58.402229 176.937805,61.920341 175.981766,64.800789 
	C175.172348,64.891434 174.971527,64.852097 174.770691,64.812752 
z"/>
<path fill="#2E6189" opacity="1.000000" stroke="none" 
	d="
M177.376190,69.357239 
	C180.018326,66.974533 182.660461,64.591820 185.598984,62.056953 
	C185.895386,61.904804 186.120285,62.124710 186.115372,62.550423 
	C185.369324,64.653862 184.628174,66.331596 183.619339,68.212914 
	C181.600296,68.987396 179.848969,69.558289 177.920929,69.932770 
	C177.621536,69.609993 177.498856,69.483620 177.376190,69.357239 
z"/>
<path fill="#306F9B" opacity="1.000000" stroke="none" 
	d="
M20.287388,60.629738 
	C22.029358,58.291504 23.807808,55.920189 26.012878,53.236809 
	C26.610161,52.912186 26.780823,52.899628 26.951485,52.887070 
	C26.967497,53.371624 26.983509,53.856174 27.011087,54.704147 
	C25.569914,56.631958 24.117178,58.196350 21.904179,60.017605 
	C20.847061,60.400475 20.550211,60.526482 20.253363,60.652489 
	C20.253363,60.652489 20.323868,60.596661 20.287388,60.629738 
z"/>
<path fill="#2C658E" opacity="1.000000" stroke="none" 
	d="
M161.793304,55.581684 
	C159.143707,55.863785 156.238449,55.814526 153.139511,55.451710 
	C155.809769,55.175541 158.673691,55.212933 161.793304,55.581684 
z"/>
<path fill="#35A2CF" opacity="1.000000" stroke="none" 
	d="
M112.328392,25.998646 
	C111.336761,26.023407 110.558426,26.006218 109.390343,25.743160 
	C109.000488,25.330198 109.000397,25.163107 109.119713,24.700005 
	C110.509132,24.300049 111.779144,24.196104 113.049164,24.092159 
	C113.028397,24.476877 113.007629,24.861595 112.971130,25.534649 
	C112.955406,25.822985 112.541695,25.956694 112.328392,25.998646 
z"/>
<path fill="#2E6189" opacity="1.000000" stroke="none" 
	d="
M174.578949,64.867844 
	C174.971527,64.852097 175.172348,64.891434 175.675354,64.982864 
	C176.094666,66.560471 176.211807,68.085976 176.509735,70.005386 
	C176.474915,70.649033 176.235413,70.873283 175.711929,70.943024 
	C174.935593,70.551331 174.419388,70.288651 173.913681,69.627769 
	C173.938278,68.169838 173.952377,67.110115 173.978226,65.795654 
	C173.994385,65.370956 173.998779,65.201004 174.003189,65.031052 
	C174.003189,65.031052 174.387222,64.922928 174.578949,64.867844 
z"/>
<path fill="#3F9ABA" opacity="1.000000" stroke="none" 
	d="
M165.004303,16.990860 
	C164.991516,16.542830 164.978714,16.094801 164.993393,15.311747 
	C165.953461,15.421721 166.886063,15.866719 167.952057,16.607716 
	C168.085480,16.903713 167.896011,17.110247 167.470215,17.139526 
	C166.364380,17.109491 165.684341,17.050175 165.004303,16.990860 
z"/>
<path fill="#2C658E" opacity="1.000000" stroke="none" 
	d="
M175.972061,71.072044 
	C176.235413,70.873283 176.474915,70.649033 176.839203,70.203293 
	C176.987885,70.007309 177.111893,69.639786 177.244049,69.498512 
	C177.498856,69.483620 177.621536,69.609993 177.899506,70.242691 
	C178.032852,71.165352 178.010895,71.581703 177.711777,71.941986 
	C176.947098,71.614632 176.459579,71.343338 175.972061,71.072044 
z"/>
<path fill="#326F97" opacity="1.000000" stroke="none" 
	d="
M18.272083,63.859360 
	C18.508068,63.375389 19.017242,62.772003 19.823673,62.072750 
	C19.595715,62.564568 19.070496,63.152256 18.272083,63.859360 
z"/>
<path fill="#326F97" opacity="1.000000" stroke="none" 
	d="
M16.213245,66.861290 
	C16.133951,66.721924 16.265013,66.525467 16.547827,66.221489 
	C16.758947,66.397797 16.666956,66.627876 16.213245,66.861290 
z"/>
<path fill="#326F97" opacity="1.000000" stroke="none" 
	d="
M15.262404,67.970459 
	C15.187359,67.785370 15.384074,67.544319 15.788896,67.177231 
	C15.813157,67.314827 15.658878,67.602600 15.262404,67.970459 
z"/>
<path fill="#326F97" opacity="1.000000" stroke="none" 
	d="
M17.257282,64.933807 
	C17.188055,64.749352 17.388912,64.512413 17.799501,64.152344 
	C17.819550,64.288620 17.658928,64.572647 17.257282,64.933807 
z"/>
<path fill="#326F97" opacity="1.000000" stroke="none" 
	d="
M20.431564,60.928467 
	C20.550211,60.526482 20.847061,60.400475 21.612051,60.152885 
	C21.590048,60.422352 21.099905,60.813396 20.431564,60.928467 
z"/>
<path fill="#2C5586" opacity="1.000000" stroke="none" 
	d="
M32.983070,79.019600 
	C32.789810,79.012451 32.596554,79.005310 32.112202,78.980515 
	C32.031616,78.688408 32.242134,78.413948 32.693069,78.038132 
	C32.933495,77.936783 33.069050,78.076279 33.076019,78.345276 
	C33.082989,78.614273 32.983070,79.019600 32.983070,79.019600 
z"/>
<path fill="#3F99BB" opacity="1.000000" stroke="none" 
	d="
M62.597389,10.943064 
	C62.973576,11.092668 62.988174,11.299487 63.026184,11.817616 
	C60.863194,13.588747 58.676792,15.048572 55.936684,16.904209 
	C52.959850,18.573574 50.536724,19.847126 48.073650,20.812706 
	C48.004597,20.299747 47.975491,20.094767 47.946388,19.889788 
	C52.709526,16.926619 57.472664,13.963449 62.597389,10.943064 
z"/>
<path fill="#3C86A5" opacity="1.000000" stroke="none" 
	d="
M26.920284,38.928852 
	C30.688158,34.949699 34.456032,30.970549 38.700813,27.085207 
	C39.177723,27.179018 39.439266,27.446764 39.330933,27.693193 
	C39.137302,28.291245 39.052006,28.642868 38.681854,29.167576 
	C35.942287,31.903486 33.487576,34.466316 30.754665,37.174316 
	C29.429462,37.983574 28.382458,38.647652 27.231674,39.216000 
	C27.127893,39.120266 26.920282,38.928852 26.920284,38.928852 
z"/>
<path fill="#3C86A5" opacity="1.000000" stroke="none" 
	d="
M22.961905,43.958565 
	C24.078882,42.371960 25.195860,40.785358 26.616562,39.063805 
	C26.920282,38.928852 27.127893,39.120266 27.124968,39.539383 
	C26.721333,41.273907 26.320625,42.589317 25.574396,43.928108 
	C24.546904,44.059120 23.864931,44.166756 23.128460,44.194901 
	C23.073959,44.115410 22.961905,43.958565 22.961905,43.958565 
z"/>
<path fill="#3C86A5" opacity="1.000000" stroke="none" 
	d="
M39.046970,27.045126 
	C40.356358,25.601929 41.796501,24.292624 43.695023,23.073414 
	C44.153397,23.163509 44.399906,23.426582 44.214283,23.693382 
	C42.498863,25.122375 40.969063,26.284571 39.439266,27.446764 
	C39.439266,27.446764 39.177723,27.179018 39.046970,27.045126 
z"/>
<path fill="#3C86A5" opacity="1.000000" stroke="none" 
	d="
M47.614288,19.924778 
	C47.975491,20.094767 48.004597,20.299747 48.006824,21.087826 
	C47.922768,22.045618 47.865582,22.420313 47.462921,22.828588 
	C46.211601,23.050304 45.305752,23.238443 44.399906,23.426582 
	C44.399906,23.426582 44.153397,23.163509 44.030159,23.031960 
	C45.032009,21.920195 46.157101,20.939981 47.614288,19.924778 
z"/>
<path fill="#3C86A5" opacity="1.000000" stroke="none" 
	d="
M22.071724,44.979412 
	C22.112001,44.691380 22.294191,44.409573 22.719143,44.043167 
	C22.961905,43.958565 23.073959,44.115410 23.010300,44.317806 
	C22.794214,44.686756 22.643665,44.854992 22.494997,45.024906 
	C22.494997,45.024906 22.213633,44.985638 22.071724,44.979412 
z"/>
<path fill="#130B47" opacity="1.000000" stroke="none" 
	d="
M129.382751,214.963531 
	C134.121918,213.514771 139.275925,212.087463 144.716980,210.863388 
	C139.935226,212.372742 134.866425,213.678864 129.382751,214.963531 
z"/>
<path fill="#30ABDD" opacity="1.000000" stroke="none" 
	d="
M47.808395,22.795010 
	C47.865582,22.420313 47.922768,22.045618 48.046776,21.395802 
	C50.536724,19.847126 52.959850,18.573574 55.666958,17.115421 
	C59.118511,22.117987 64.642044,21.723690 69.352486,21.674847 
	C81.360161,21.550335 93.355972,20.531006 105.363014,20.022633 
	C115.951157,19.574333 126.546730,19.196388 137.141983,19.094276 
	C139.839462,19.068277 142.548157,20.207569 145.490601,21.206606 
	C145.478378,22.433371 145.227264,23.264977 144.976151,24.096584 
	C134.642532,24.087334 124.308907,24.078083 113.512222,24.080498 
	C111.779144,24.196104 110.509132,24.300049 108.744598,24.702030 
	C107.500023,24.999514 106.749962,24.998962 105.775894,24.822672 
	C104.697151,24.774904 103.842422,24.902876 102.987686,25.030848 
	C102.555008,25.036932 102.122337,25.043016 101.171661,25.159130 
	C100.408203,25.443188 100.192879,25.648767 100.007683,25.885900 
	C99.261795,25.929667 98.515900,25.973434 97.058838,25.825130 
	C92.600273,25.572618 88.807594,25.147961 85.124680,25.605984 
	C83.293816,25.833677 81.664375,27.680925 79.943817,28.795521 
	C78.828575,29.031485 77.713341,29.267447 76.303535,29.670399 
	C74.292580,29.866228 72.576195,29.895065 70.322014,29.565247 
	C69.380943,28.692137 69.052025,27.820442 68.562843,27.718615 
	C63.788872,26.724857 58.967793,25.953173 54.204132,24.916105 
	C52.021729,24.440989 49.937275,23.515987 47.808395,22.795010 
z"/>
<path fill="#39A7DB" opacity="1.000000" stroke="none" 
	d="
M145.326599,24.307455 
	C145.227264,23.264977 145.478378,22.433371 145.862823,21.305185 
	C148.311798,21.167858 150.694717,21.033978 152.929260,21.546713 
	C157.744293,22.651560 161.808533,22.150684 164.749817,17.228447 
	C165.684341,17.050175 166.364380,17.109491 167.375336,17.242657 
	C168.675751,20.564594 173.873276,21.726553 172.079132,26.634329 
	C163.236343,26.147144 154.456711,25.332735 145.326599,24.307455 
M164.884048,21.177021 
	C164.736816,21.878456 164.589569,22.579891 164.442337,23.281324 
	C165.289963,23.005615 166.137604,22.729908 166.985229,22.454201 
	C166.474808,22.008520 165.964401,21.562838 164.884048,21.177021 
z"/>
<path fill="#2B3A7F" opacity="1.000000" stroke="none" 
	d="
M5.680062,101.027840 
	C6.472417,103.414062 6.730624,105.825668 7.318602,108.153999 
	C8.248605,111.836723 6.547506,112.060425 3.422190,111.033592 
	C3.049208,107.939392 3.010807,104.930733 2.976276,101.470741 
	C3.751372,101.018227 4.522598,101.017052 5.680062,101.027840 
z"/>
<path fill="#273C6D" opacity="1.000000" stroke="none" 
	d="
M3.505792,95.509521 
	C3.485907,95.517044 3.525676,95.501991 3.505792,95.509521 
z"/>
<path fill="#221A58" opacity="1.000000" stroke="none" 
	d="
M95.247208,213.946838 
	C95.226715,213.743530 95.484207,213.689850 95.885406,213.854309 
	C95.835320,213.936050 95.667351,213.944061 95.247208,213.946838 
z"/>
<path fill="#000000" opacity="1.000000" stroke="none" 
	d="
M71.777306,67.957184 
	C73.826775,67.628349 75.880440,66.995964 77.924980,67.024155 
	C86.018074,67.135765 94.108307,67.454216 102.587120,67.863251 
	C102.974640,68.030525 102.899597,68.021683 102.750504,68.401245 
	C100.943481,78.459351 99.285553,88.137901 97.619072,97.866364 
	C106.120232,102.139778 114.184891,98.928230 122.079369,99.009361 
	C122.653717,99.015266 123.560059,97.616371 123.763756,96.742775 
	C124.283546,94.513504 124.493027,92.211884 124.884697,89.515396 
	C125.580093,82.049042 126.217468,75.006508 127.128082,67.620277 
	C134.795853,67.171280 142.190811,66.976143 149.584717,67.010315 
	C152.110596,67.021980 154.633789,67.609291 157.097916,68.380219 
	C156.342728,76.202339 155.647827,83.577827 154.664413,91.231186 
	C152.976013,102.021423 151.576126,112.533806 150.129700,123.436905 
	C150.031860,124.880394 149.980560,125.933151 149.696472,127.316742 
	C148.677307,133.993866 148.074417,140.372894 146.953140,146.659470 
	C146.722961,147.950012 144.575867,149.818817 143.275146,149.849609 
	C134.533646,150.056534 125.782112,149.839203 117.033829,149.759354 
	C116.647491,148.697754 116.261154,147.636169 116.205193,146.052200 
	C116.607529,144.359268 116.679489,143.188690 116.751450,142.018127 
	C117.443565,138.606674 118.135681,135.195221 119.003540,131.090088 
	C119.774803,127.506042 120.370316,124.615654 121.262474,120.285500 
	C113.085899,120.285500 105.960342,120.090485 98.862350,120.445999 
	C97.399658,120.519257 95.314613,122.389351 94.787582,123.880539 
	C93.774796,126.746056 93.671799,129.933121 93.191429,132.986816 
	C92.675262,138.643341 92.159088,144.299850 90.880661,150.006775 
	C80.758614,150.020966 71.398827,149.984772 62.039043,149.948578 
	C62.039043,149.948578 61.995087,149.966751 61.998421,149.549026 
	C62.607471,143.384048 63.213181,137.636795 63.848770,131.578247 
	C63.859127,130.850891 63.839603,130.434830 64.005135,129.680939 
	C64.137062,127.206947 64.083939,125.070793 64.067047,122.718628 
	C64.069244,122.002136 64.035210,121.501656 64.122681,120.672142 
	C64.433372,119.223938 64.622566,118.104774 64.869354,116.575172 
	C64.973404,114.784103 65.019867,113.403473 65.321991,111.815308 
	C65.726303,110.748383 65.874962,109.888985 66.312149,108.762482 
	C67.350677,102.318497 68.100685,96.141609 68.909645,89.559540 
	C69.904831,82.088631 70.841064,75.022911 71.777306,67.957184 
z"/>
<path fill="#22196B" opacity="1.000000" stroke="none" 
	d="
M184.001831,128.007843 
	C182.235779,131.234268 180.651321,134.583145 178.603851,137.619827 
	C177.899643,138.664246 175.639664,139.802628 174.773438,139.406067 
	C169.817490,137.137344 166.409393,138.619690 163.024902,142.541534 
	C161.905457,143.838730 159.018585,143.610703 155.779541,144.341995 
	C158.611603,145.985458 161.000168,147.371567 163.695129,148.879135 
	C159.469269,152.207962 154.066772,150.726517 152.141632,145.794632 
	C151.794830,144.906158 151.178818,144.122772 150.430908,142.786011 
	C150.769318,140.515961 151.363907,138.750763 152.050049,136.876984 
	C152.258087,136.481049 152.196991,136.229645 151.778198,135.796967 
	C151.403458,135.055405 151.208786,134.531067 151.344894,134.005066 
	C152.117050,134.001862 152.558441,134.000320 153.409241,133.998169 
	C158.612793,134.822418 159.351334,131.462601 160.465759,128.006851 
	C168.622635,128.006119 176.312241,128.006989 184.001831,128.007843 
z"/>
<path fill="#22307D" opacity="1.000000" stroke="none" 
	d="
M65.066330,112.022835 
	C65.019867,113.403473 64.973404,114.784103 64.504707,116.593132 
	C63.056137,118.348671 62.029800,119.675827 61.001732,121.001488 
	C61.000000,121.000000 61.002884,121.003525 60.606544,120.993423 
	C55.510212,120.667419 50.803284,120.041504 46.112686,120.146317 
	C43.064838,120.214439 40.040783,121.347466 37.006065,122.003387 
	C35.867241,121.048370 34.728416,120.093353 33.335400,118.935120 
	C33.049847,117.743919 33.018482,116.755913 33.138039,115.071838 
	C34.774929,114.039658 36.248623,113.488243 37.748875,113.402702 
	C46.851330,112.883751 55.959835,112.471031 65.066330,112.022835 
z"/>
<path fill="#211E6D" opacity="1.000000" stroke="none" 
	d="
M64.001183,121.001175 
	C64.035210,121.501656 64.069244,122.002136 64.027885,123.057014 
	C63.908356,125.747200 63.864220,127.882996 63.820080,130.018784 
	C63.839603,130.434830 63.859127,130.850891 63.545078,131.596527 
	C62.805569,131.934738 62.399624,131.943344 61.993683,131.951965 
	C60.029732,132.357986 57.921410,132.437347 56.128281,133.229858 
	C50.213860,135.843872 48.224075,135.234879 44.464813,130.285690 
	C42.968060,128.315140 40.451057,127.119560 38.655769,125.282776 
	C44.106617,125.139473 49.532574,124.395134 54.429836,125.674522 
	C59.543419,127.010437 60.632542,125.125031 61.002884,121.003525 
	C61.002884,121.003525 61.000000,121.000000 61.376362,121.000832 
	C62.502209,121.001503 63.251698,121.001343 64.001183,121.001175 
z"/>
<path fill="#21206E" opacity="1.000000" stroke="none" 
	d="
M117.995567,131.001556 
	C110.777786,133.326599 104.099236,131.791962 97.470459,127.718857 
	C100.206116,126.410675 103.137016,125.294823 106.170517,124.740189 
	C115.390175,123.054474 115.405617,123.138924 117.995567,131.001556 
z"/>
<path fill="#262260" opacity="1.000000" stroke="none" 
	d="
M118.204422,131.000519 
	C115.405617,123.138924 115.390175,123.054474 106.170517,124.740189 
	C103.137016,125.294823 100.206116,126.410675 97.121971,127.629951 
	C95.927986,129.563568 94.840324,131.137115 93.472046,132.848755 
	C93.671799,129.933121 93.774796,126.746056 94.787582,123.880539 
	C95.314613,122.389351 97.399658,120.519257 98.862350,120.445999 
	C105.960342,120.090485 113.085899,120.285500 121.262474,120.285500 
	C120.370316,124.615654 119.774803,127.506042 119.005127,130.697128 
	C118.830963,130.997833 118.413269,130.999496 118.204422,131.000519 
z"/>
<path fill="#212775" opacity="1.000000" stroke="none" 
	d="
M60.606544,120.993423 
	C60.632542,125.125031 59.543419,127.010437 54.429836,125.674522 
	C49.532574,124.395134 44.106617,125.139473 38.471443,124.989136 
	C37.773254,124.183464 37.516655,123.383049 37.133064,122.293015 
	C40.040783,121.347466 43.064838,120.214439 46.112686,120.146317 
	C50.803284,120.041504 55.510212,120.667419 60.606544,120.993423 
z"/>
<path fill="#282153" opacity="1.000000" stroke="none" 
	d="
M151.958511,136.985550 
	C151.363907,138.750763 150.769318,140.515961 150.117905,142.632751 
	C150.055542,145.648453 152.013275,148.717102 147.728546,150.831268 
	C137.986893,151.010147 128.997360,151.012207 120.007835,151.014267 
	C119.170578,150.758652 118.333328,150.503021 117.264954,150.003387 
	C125.782112,149.839203 134.533646,150.056534 143.275146,149.849609 
	C144.575867,149.818817 146.722961,147.950012 146.953140,146.659470 
	C148.074417,140.372894 148.677307,133.993866 149.742584,127.680389 
	C150.356705,129.143555 150.691879,130.573883 151.019409,132.337830 
	C151.012558,133.116531 151.013351,133.561630 151.014130,134.006714 
	C151.208786,134.531067 151.403458,135.055405 151.779572,136.039764 
	C151.961029,136.499786 151.958511,136.985550 151.958511,136.985550 
z"/>
<path fill="#2C2552" opacity="1.000000" stroke="none" 
	d="
M62.033730,150.209778 
	C71.398827,149.984772 80.758614,150.020966 90.591370,150.109528 
	C91.064331,150.161911 91.045708,150.570831 90.565521,150.779114 
	C86.932205,150.992981 83.774269,150.889420 80.627022,151.028229 
	C75.045860,151.274384 69.471199,151.667664 63.893818,151.999405 
	C63.481869,151.989868 63.069923,151.980347 62.344955,151.724625 
	C62.031937,151.478439 62.018322,150.993378 62.018322,150.993378 
	C62.021687,150.819244 62.025051,150.645111 62.033730,150.209778 
z"/>
<path fill="#16104B" opacity="1.000000" stroke="none" 
	d="
M64.373451,152.004974 
	C69.471199,151.667664 75.045860,151.274384 80.627022,151.028229 
	C83.774269,150.889420 86.932205,150.992981 90.556824,150.983612 
	C89.049728,151.331009 87.075874,151.949448 85.091667,151.984680 
	C78.347443,152.104370 71.599564,152.018127 64.373451,152.004974 
z"/>
<path fill="#150C4B" opacity="1.000000" stroke="none" 
	d="
M120.358917,151.229736 
	C128.997360,151.012207 137.986893,151.010147 147.432892,151.013062 
	C138.829559,151.160416 129.769791,151.302811 120.358917,151.229736 
z"/>
<path fill="#2E2758" opacity="1.000000" stroke="none" 
	d="
M61.934639,132.303680 
	C62.399624,131.943344 62.805569,131.934738 63.515202,131.907837 
	C63.213181,137.636795 62.607471,143.384048 62.019157,149.560654 
	C61.729904,149.512558 61.423252,149.035126 61.058151,147.863663 
	C61.321861,144.447388 61.644024,141.725143 61.966187,139.002884 
	C61.935989,136.887054 61.905796,134.771210 61.934639,132.303680 
z"/>
<path fill="#20175F" opacity="1.000000" stroke="none" 
	d="
M61.612953,139.032471 
	C61.644024,141.725143 61.321861,144.447388 60.988422,147.584900 
	C60.332123,146.354050 59.810398,144.645401 59.014179,143.076019 
	C57.706532,140.498550 58.872459,139.481567 61.612953,139.032471 
z"/>
<path fill="#140C4B" opacity="1.000000" stroke="none" 
	d="
M116.589798,142.323181 
	C116.679489,143.188690 116.607529,144.359268 116.313492,145.808929 
	C116.203659,144.934769 116.315903,143.781509 116.589798,142.323181 
z"/>
<path fill="#000000" opacity="1.000000" stroke="none" 
	d="
M41.319824,133.651764 
	C41.744995,133.791290 42.006126,134.104172 42.267258,134.417068 
	C41.893566,134.452438 41.519875,134.487793 40.996574,134.356155 
	C40.846970,134.189163 41.155781,133.825134 41.319824,133.651764 
z"/>
<path fill="#16104B" opacity="1.000000" stroke="none" 
	d="
M61.930275,151.105469 
	C62.018322,150.993378 62.031937,151.478439 62.035934,151.720718 
	C61.791542,151.754837 61.725643,151.506348 61.930275,151.105469 
z"/>
<path fill="#1B134E" opacity="1.000000" stroke="none" 
	d="
M158.995361,153.993347 
	C158.990829,153.987076 159.133224,153.779968 159.133224,153.779968 
	C159.133224,153.779968 159.129715,153.941956 159.070801,153.975159 
	C159.011871,154.008362 158.999908,153.999603 158.995361,153.993347 
z"/>
<path fill="#241B5F" opacity="1.000000" stroke="none" 
	d="
M175.246002,177.154205 
	C175.012909,176.573166 175.024033,176.143738 175.057159,175.393860 
	C176.207260,174.995224 177.335358,174.917038 178.735672,174.931427 
	C177.835342,175.784607 176.662796,176.545227 175.246002,177.154205 
z"/>
<path fill="#222371" opacity="1.000000" stroke="none" 
	d="
M184.372284,128.012802 
	C176.312241,128.006989 168.622635,128.006119 160.158157,127.854324 
	C156.921402,126.459358 154.459518,125.215324 152.028778,123.643982 
	C152.706009,122.544510 153.352097,121.772354 154.377258,121.155518 
	C159.159027,121.258942 163.564407,121.084312 167.963776,121.181541 
	C176.307785,121.365967 184.648346,121.706200 192.990341,121.981705 
	C192.991058,123.053482 192.991776,124.125259 192.982117,125.598915 
	C190.228729,126.673119 187.485748,127.345444 184.372284,128.012802 
z"/>
<path fill="#2760A3" opacity="1.000000" stroke="none" 
	d="
M211.979553,77.000153 
	C211.899689,79.400215 212.061035,81.846771 211.612137,84.175705 
	C211.449951,85.017204 209.739655,86.263046 208.880478,86.156593 
	C201.821854,85.282082 194.797333,84.132225 187.372101,83.041611 
	C186.981735,83.017303 186.998169,83.006943 186.899170,82.734879 
	C185.866364,82.318237 184.932587,82.173668 183.998795,82.029099 
	C181.929962,81.709778 179.861115,81.390457 177.402313,81.048019 
	C176.152527,81.140450 175.008820,80.940277 174.475891,81.419426 
	C167.635544,87.569550 168.310211,86.545464 158.283401,81.895294 
	C158.044922,80.877052 158.064926,80.428772 158.414459,79.859619 
	C161.635010,78.825668 164.490417,77.292488 167.424164,77.124168 
	C174.260925,76.731918 181.135406,76.996498 188.455017,76.995972 
	C195.610382,76.668098 202.305298,76.339241 209.257904,76.201553 
	C210.336899,76.595207 211.158218,76.797676 211.979553,77.000153 
z"/>
<path fill="#264E94" opacity="1.000000" stroke="none" 
	d="
M179.546631,89.998146 
	C180.317688,90.472984 180.619431,90.947746 180.692841,91.905807 
	C176.671005,97.885696 171.222595,95.832893 166.156250,95.526863 
	C163.117386,95.343307 160.078232,95.164970 157.032288,94.585045 
	C157.022369,93.120491 157.019394,92.055176 157.016418,90.989868 
	C162.374878,90.660484 167.731644,90.299065 173.092651,90.018364 
	C175.082443,89.914177 177.082153,89.999290 179.546631,89.998146 
z"/>
<path fill="#2C4C7D" opacity="1.000000" stroke="none" 
	d="
M157.009552,90.555130 
	C157.019394,92.055176 157.022369,93.120491 156.791794,94.602783 
	C156.558228,95.019775 156.077545,95.045380 156.037842,94.689026 
	C155.649734,93.206215 155.301331,92.079773 154.952942,90.953323 
	C155.647827,83.577827 156.342728,76.202339 157.416763,68.564621 
	C157.892242,72.195099 157.988571,76.087799 158.084915,79.980499 
	C158.064926,80.428772 158.044922,80.877052 158.015076,81.661682 
	C157.671051,84.705490 157.336884,87.412941 157.009552,90.555130 
z"/>
<path fill="#221B54" opacity="1.000000" stroke="none" 
	d="
M209.507187,145.494690 
	C209.514435,145.515152 209.499939,145.474243 209.507187,145.494690 
z"/>
<path fill="#253D86" opacity="1.000000" stroke="none" 
	d="
M187.947266,102.016457 
	C188.714676,104.802841 189.482086,107.589226 189.776962,110.751358 
	C177.871033,110.753143 166.437653,110.379173 155.001373,109.580505 
	C155.313522,106.444359 155.628586,103.732918 156.208435,101.014343 
	C156.649750,101.004089 156.826294,101.000977 157.359741,101.128448 
	C167.717041,104.563538 177.836563,103.113960 187.947266,102.016457 
z"/>
<path fill="#25478F" opacity="1.000000" stroke="none" 
	d="
M187.908630,101.652634 
	C177.836563,103.113960 167.717041,104.563538 157.337723,100.805130 
	C156.647934,99.565521 156.337036,98.779816 156.022034,97.624916 
	C156.037796,96.518936 156.057678,95.782158 156.077545,95.045380 
	C156.077545,95.045380 156.558228,95.019775 156.798706,95.002029 
	C160.078232,95.164970 163.117386,95.343307 166.156250,95.526863 
	C171.222595,95.832893 176.671005,97.885696 180.760712,92.182655 
	C182.429962,92.979843 183.803024,93.983475 185.493240,95.052910 
	C186.496933,97.175415 187.183456,99.232109 187.908630,101.652634 
z"/>
<path fill="#222B78" opacity="1.000000" stroke="none" 
	d="
M192.997864,121.538147 
	C184.648346,121.706200 176.307785,121.365967 167.963776,121.181541 
	C163.564407,121.084312 159.159027,121.258942 154.398499,120.817322 
	C154.686111,119.215546 155.331573,118.107277 156.326828,117.141190 
	C157.153641,117.412720 157.638916,117.679123 158.106476,117.650993 
	C165.988525,117.176735 173.866379,116.344986 181.749527,116.296234 
	C185.786484,116.271271 189.356995,116.574883 191.014496,112.001373 
	C191.678116,115.032448 192.341751,118.063522 192.997864,121.538147 
z"/>
<path fill="#233380" opacity="1.000000" stroke="none" 
	d="
M190.867340,111.813629 
	C189.356995,116.574883 185.786484,116.271271 181.749527,116.296234 
	C173.866379,116.344986 165.988525,117.176735 158.106476,117.650993 
	C157.638916,117.679123 157.153641,117.412720 156.299255,116.750443 
	C155.616028,114.146751 155.310150,112.075981 155.004272,110.005219 
	C166.437653,110.379173 177.871033,110.753143 189.653290,111.064301 
	C190.268661,111.178406 190.508011,111.386536 190.867340,111.813629 
z"/>
<path fill="#265797" opacity="1.000000" stroke="none" 
	d="
M184.251602,82.228210 
	C184.932587,82.173668 185.866364,82.318237 186.892761,82.740417 
	C186.158371,82.821129 185.331390,82.624222 184.251602,82.228210 
z"/>
<path fill="#2C65A0" opacity="1.000000" stroke="none" 
	d="
M158.414459,79.859619 
	C157.988571,76.087799 157.892242,72.195099 157.477066,68.117996 
	C154.633789,67.609291 152.110596,67.021980 149.584717,67.010315 
	C142.190811,66.976143 134.795853,67.171280 126.828865,67.638077 
	C125.858215,68.024399 125.460007,68.049217 125.050476,67.730209 
	C125.032570,66.927902 125.025986,66.469421 125.019402,66.010933 
	C136.481766,64.623756 147.936142,63.653484 159.805161,67.170685 
	C162.713318,74.001427 168.910736,75.073509 173.903183,70.025978 
	C174.419388,70.288651 174.935593,70.551331 175.711929,70.943024 
	C176.459579,71.343338 176.947098,71.614632 177.821899,72.301170 
	C179.820297,73.476784 181.415390,74.273788 183.047028,74.987221 
	C184.677185,75.700012 186.343903,76.329163 187.994598,76.994972 
	C181.135406,76.996498 174.260925,76.731918 167.424164,77.124168 
	C164.490417,77.292488 161.635010,78.825668 158.414459,79.859619 
z"/>
<path fill="#274575" opacity="1.000000" stroke="none" 
	d="
M124.826660,89.939209 
	C124.493027,92.211884 124.283546,94.513504 123.763756,96.742775 
	C123.560059,97.616371 122.653717,99.015266 122.079369,99.009361 
	C114.184891,98.928230 106.120232,102.139778 97.619072,97.866364 
	C99.285553,88.137901 100.943481,78.459351 102.745636,68.438705 
	C103.065643,68.092506 103.241425,68.088402 103.662437,68.474129 
	C103.645615,70.896812 103.383560,72.929657 103.078011,75.384537 
	C102.992104,77.213577 102.949699,78.620590 102.757484,80.399956 
	C102.395340,83.856964 102.183014,86.941628 101.895065,90.397156 
	C102.292091,92.738197 102.607193,96.354225 103.262398,96.416939 
	C108.287636,96.897926 113.543686,97.422874 118.370926,96.340927 
	C120.376991,95.891289 121.511612,91.553589 123.267654,89.099419 
	C123.937416,89.456337 124.382034,89.697769 124.826660,89.939209 
z"/>
<path fill="#2870AC" opacity="1.000000" stroke="none" 
	d="
M103.121506,74.962509 
	C103.383560,72.929657 103.645615,70.896812 103.925995,68.484116 
	C104.882721,67.513374 105.799652,66.452698 106.763062,66.408653 
	C112.537186,66.144714 118.321999,66.114616 124.561317,66.008530 
	C125.025986,66.469421 125.032570,66.927902 125.028336,67.959213 
	C125.017517,68.532043 124.976784,68.991676 124.615318,69.024612 
	C122.176697,70.251511 119.759941,72.807854 118.084488,72.390228 
	C112.513336,71.001556 107.984772,73.523071 103.121506,74.962509 
z"/>
<path fill="#2A70AC" opacity="1.000000" stroke="none" 
	d="
M173.913681,69.627769 
	C168.910736,75.073509 162.713318,74.001427 160.152252,67.337364 
	C164.120834,66.363358 168.233459,65.724144 172.848938,65.245407 
	C173.539215,65.637398 173.744110,65.852226 173.966476,66.050392 
	C173.952377,67.110115 173.938278,68.169838 173.913681,69.627769 
z"/>
<path fill="#2C658E" opacity="1.000000" stroke="none" 
	d="
M173.978226,65.795654 
	C173.744110,65.852226 173.539215,65.637398 173.220093,65.228683 
	C173.088394,65.051476 173.545761,65.040741 173.774475,65.035896 
	C173.998779,65.201004 173.994385,65.370956 173.978226,65.795654 
z"/>
<path fill="#2C68A8" opacity="1.000000" stroke="none" 
	d="
M36.943871,77.998184 
	C40.070152,71.090248 47.283096,70.147087 53.001686,67.032990 
	C53.699867,66.652786 54.561443,66.572647 55.688599,66.621933 
	C56.895084,71.301056 60.030853,72.778625 63.715969,70.482964 
	C65.505493,69.368164 67.254616,68.188484 69.022026,67.038185 
	C69.036285,67.495659 69.050545,67.953140 69.068291,69.167427 
	C68.734146,72.294182 68.396523,74.664131 67.644592,76.939941 
	C58.154617,77.226379 49.078953,77.606949 39.621513,77.990982 
	C38.474449,77.995697 37.709160,77.996941 36.943871,77.998184 
z"/>
<path fill="#2B72B0" opacity="1.000000" stroke="none" 
	d="
M69.207047,66.808868 
	C67.254616,68.188484 65.505493,69.368164 63.715969,70.482964 
	C60.030853,72.778625 56.895084,71.301056 56.034691,66.508530 
	C57.211555,65.559288 58.383636,64.991951 59.804691,64.216530 
	C62.297916,63.774120 64.573555,63.215290 66.774551,63.428150 
	C68.078323,63.554241 71.619965,63.023911 69.207047,66.808868 
z"/>
<path fill="#2E5681" opacity="1.000000" stroke="none" 
	d="
M68.058899,77.034073 
	C68.396523,74.664131 68.734146,72.294182 69.083977,69.510345 
	C69.798302,68.757774 70.500412,68.419106 71.489914,68.018814 
	C70.841064,75.022911 69.904831,82.088631 68.562607,89.572151 
	C67.462257,90.008789 66.767891,90.027634 66.054276,89.785118 
	C66.025017,89.349335 66.015007,89.174911 66.002350,88.999939 
	C65.999695,88.999390 65.998344,89.004288 66.182907,88.855003 
	C66.602310,88.491089 66.808220,88.251595 66.988815,87.589203 
	C67.003868,86.129707 67.015320,85.068260 67.104523,83.624969 
	C67.474487,81.173447 67.766693,79.103760 68.058899,77.034073 
z"/>
<path fill="#2C65A0" opacity="1.000000" stroke="none" 
	d="
M211.978577,76.666817 
	C211.158218,76.797676 210.336899,76.595207 209.326935,75.917953 
	C209.443665,74.952621 209.749008,74.462059 210.054367,73.971504 
	C210.554214,74.187889 211.054047,74.404266 211.751129,74.810661 
	C211.958099,75.444946 211.967850,75.889214 211.978577,76.666817 
z"/>
<path fill="#211967" opacity="1.000000" stroke="none" 
	d="
M13.950398,118.025543 
	C13.914341,118.058182 13.734699,117.840034 13.734699,117.840034 
	C13.734699,117.840034 13.950999,117.810806 14.001362,117.865799 
	C14.051724,117.920792 13.986456,117.992912 13.950398,118.025543 
z"/>
<path fill="#2B73AE" opacity="1.000000" stroke="none" 
	d="
M183.887039,68.009323 
	C184.628174,66.331596 185.369324,64.653862 186.227692,62.660515 
	C187.364670,61.984421 188.384430,61.623943 189.708038,61.137154 
	C193.061676,64.476547 196.833115,63.414581 200.582886,62.766159 
	C201.893234,62.539574 203.261765,62.649342 204.857742,62.777584 
	C205.111771,62.949661 205.102890,62.945747 205.031616,63.324059 
	C203.233826,67.681931 199.716904,66.789803 196.518692,66.841339 
	C194.787430,66.869232 193.053925,66.997063 191.329651,67.164452 
	C188.844864,67.405678 186.367538,67.723938 183.887039,68.009323 
z"/>
<path fill="#24458B" opacity="1.000000" stroke="none" 
	d="
M28.976189,105.029114 
	C28.673729,102.276482 28.371269,99.523849 28.349485,96.179520 
	C29.423120,94.397667 30.216078,93.207520 31.225639,92.301170 
	C32.857479,94.027359 34.264984,96.705009 35.689198,96.713928 
	C45.777073,96.777061 55.868374,96.293198 65.967651,96.397842 
	C65.649956,99.203072 65.323189,101.594185 64.588409,104.075211 
	C62.055885,104.442772 59.933559,104.939186 57.806465,104.960510 
	C48.197109,105.056854 38.586407,105.018768 28.976189,105.029114 
z"/>
<path fill="#233A83" opacity="1.000000" stroke="none" 
	d="
M28.990788,105.404144 
	C38.586407,105.018768 48.197109,105.056854 57.806465,104.960510 
	C59.933559,104.939186 62.055885,104.442772 64.641777,104.374603 
	C65.409973,106.065910 65.716797,107.547752 66.023621,109.029587 
	C65.874962,109.888985 65.726303,110.748383 65.321983,111.815308 
	C55.959835,112.471031 46.851330,112.883751 37.748875,113.402702 
	C36.248623,113.488243 34.774929,114.039658 33.137398,114.696060 
	C31.659018,111.937294 30.332203,108.858238 28.990788,105.404144 
z"/>
<path fill="#265A9C" opacity="1.000000" stroke="none" 
	d="
M67.026764,84.006813 
	C67.015320,85.068260 67.003868,86.129707 66.806152,87.740364 
	C66.386009,88.504593 66.178825,88.742828 65.998344,89.004288 
	C65.998344,89.004288 65.999695,88.999390 65.564728,89.000061 
	C54.085842,88.669823 43.041916,88.338921 31.910919,87.714447 
	C32.153118,85.531723 32.482391,83.642578 32.811661,81.753441 
	C32.857311,81.069885 32.902958,80.386330 32.965839,79.361191 
	C32.983070,79.019600 33.082989,78.614273 33.143227,78.415573 
	C34.199902,78.144814 35.196342,78.072746 36.568325,77.999435 
	C37.709160,77.996941 38.474449,77.995697 39.664169,78.358841 
	C41.699802,79.885567 43.209213,81.851288 44.939899,82.070580 
	C52.266346,82.998871 59.658577,83.407959 67.026764,84.006813 
z"/>
<path fill="#2F518F" opacity="1.000000" stroke="none" 
	d="
M32.504448,81.922867 
	C32.482391,83.642578 32.153118,85.531723 31.760311,87.967003 
	C31.467529,89.681221 31.238283,90.849304 31.009037,92.017380 
	C30.216078,93.207520 29.423120,94.397667 28.365753,95.748367 
	C29.466639,91.303391 30.831936,86.697838 32.504448,81.922867 
z"/>
<path fill="#3089C1" opacity="1.000000" stroke="none" 
	d="
M22.378632,45.412376 
	C22.643665,44.854992 22.794214,44.686756 23.064800,44.397297 
	C23.864931,44.166756 24.546904,44.059120 25.720898,44.241364 
	C29.146315,45.024258 32.079708,45.517277 35.013100,46.010292 
	C32.414654,48.105068 29.816212,50.199844 27.084627,52.590843 
	C26.780823,52.899628 26.610161,52.912186 26.182962,52.945702 
	C24.508385,52.656296 23.090343,52.345940 21.303925,52.007759 
	C21.377789,49.919910 21.820028,47.859879 22.378632,45.412376 
z"/>
<path fill="#2FA1D7" opacity="1.000000" stroke="none" 
	d="
M47.462921,22.828590 
	C49.937275,23.515987 52.021729,24.440989 54.204132,24.916105 
	C58.967793,25.953173 63.788872,26.724857 68.562843,27.718615 
	C69.052025,27.820442 69.380943,28.692137 69.894226,29.543526 
	C66.589119,31.247871 63.174007,32.615288 59.089821,33.804344 
	C57.292084,33.524204 56.044979,33.057911 55.053989,33.379887 
	C48.683563,35.449677 43.015629,35.291279 38.966705,28.994492 
	C39.052006,28.642868 39.137302,28.291245 39.330933,27.693193 
	C40.969063,26.284571 42.498863,25.122375 44.214283,23.693382 
	C45.305752,23.238443 46.211601,23.050304 47.462921,22.828590 
z"/>
<path fill="#309ACD" opacity="1.000000" stroke="none" 
	d="
M38.681854,29.167576 
	C43.015629,35.291279 48.683563,35.449677 55.053989,33.379887 
	C56.044979,33.057911 57.292084,33.524204 58.718945,33.836727 
	C57.126305,34.934479 55.180202,35.722130 53.359390,36.735012 
	C51.333221,37.862141 49.421131,39.194347 47.229515,40.689415 
	C46.554813,40.923622 46.109982,40.905693 45.180580,40.577042 
	C42.419422,39.772968 40.134727,39.313789 37.868504,38.776684 
	C35.580421,38.234402 33.310654,37.614845 31.032864,37.029140 
	C33.487576,34.466316 35.942287,31.903486 38.681854,29.167576 
z"/>
<path fill="#306F9B" opacity="1.000000" stroke="none" 
	d="
M11.036253,69.039116 
	C10.952784,69.322159 10.842790,69.581253 10.732795,69.840347 
	C10.731675,69.623848 10.730556,69.407341 10.841656,69.080711 
	C10.953874,68.970581 11.009729,69.015167 11.036253,69.039116 
z"/>
<path fill="#2D91C9" opacity="1.000000" stroke="none" 
	d="
M30.754665,37.174316 
	C33.310654,37.614845 35.580421,38.234402 37.868504,38.776684 
	C40.134727,39.313789 42.419422,39.772968 44.846966,40.563347 
	C41.875027,42.476536 38.752140,44.092701 35.321175,45.859581 
	C32.079708,45.517277 29.146315,45.024258 26.066422,44.217983 
	C26.320625,42.589317 26.721333,41.273907 27.228748,39.635117 
	C28.382458,38.647652 29.429462,37.983574 30.754665,37.174316 
z"/>
<path fill="#35A2CF" opacity="1.000000" stroke="none" 
	d="
M80.365089,28.842346 
	C81.664375,27.680925 83.293816,25.833677 85.124680,25.605984 
	C88.807594,25.147961 92.600273,25.572618 96.686562,25.856644 
	C91.612427,27.016541 86.199394,27.952854 80.365089,28.842346 
z"/>
<path fill="#35A2CF" opacity="1.000000" stroke="none" 
	d="
M103.248672,25.219616 
	C103.842422,24.902876 104.697151,24.774904 105.775780,25.073009 
	C105.999672,25.499086 105.998634,25.998972 105.998634,25.998972 
	C105.168976,25.802111 104.339325,25.605247 103.248672,25.219616 
z"/>
<path fill="#418FAF" opacity="1.000000" stroke="none" 
	d="
M106.373978,25.999611 
	C105.998634,25.998972 105.999672,25.499086 105.999786,25.248749 
	C106.749962,24.998962 107.500023,24.999514 108.625191,24.998039 
	C109.000397,25.163107 109.000488,25.330198 109.002701,25.747215 
	C108.252983,25.998177 107.501152,25.999212 106.373978,25.999611 
z"/>
<path fill="#35A2CF" opacity="1.000000" stroke="none" 
	d="
M100.200912,25.772793 
	C100.192879,25.648767 100.408203,25.443188 100.847137,25.154608 
	C100.855530,25.278328 100.640030,25.484869 100.200912,25.772793 
z"/>
<path fill="#296BA9" opacity="1.000000" stroke="none" 
	d="
M183.619339,68.212914 
	C186.367538,67.723938 188.844864,67.405678 191.329651,67.164452 
	C193.053925,66.997063 194.787430,66.869232 196.518692,66.841339 
	C199.716904,66.789803 203.233826,67.681931 205.038528,63.333321 
	C206.749146,66.370155 208.381561,69.776024 210.034180,73.576706 
	C209.749008,74.462059 209.443665,74.952621 209.069275,75.726776 
	C202.305298,76.339241 195.610382,76.668098 188.455017,76.995972 
	C186.343903,76.329163 184.677185,75.700012 183.047028,74.987221 
	C181.415390,74.273788 179.820297,73.476784 178.099060,72.357231 
	C178.010895,71.581703 178.032852,71.165352 178.076202,70.439087 
	C179.848969,69.558289 181.600296,68.987396 183.619339,68.212914 
z"/>
<path fill="#30B1E1" opacity="1.000000" stroke="none" 
	d="
M165.169006,21.147087 
	C165.964401,21.562838 166.474808,22.008520 166.985229,22.454201 
	C166.137604,22.729908 165.289963,23.005615 164.442337,23.281326 
	C164.589569,22.579891 164.736816,21.878456 165.169006,21.147087 
z"/>
<path fill="#27316B" opacity="1.000000" stroke="none" 
	d="
M155.001373,109.580505 
	C155.310150,112.075981 155.616028,114.146751 155.949463,116.608261 
	C155.331573,118.107277 154.686111,119.215546 154.019409,120.662018 
	C153.352097,121.772354 152.706009,122.544510 151.797424,123.535446 
	C151.082031,123.518211 150.629135,123.282196 150.176239,123.046181 
	C151.576126,112.533806 152.976013,102.021423 154.664413,91.231186 
	C155.301331,92.079773 155.649734,93.206215 156.037842,94.689026 
	C156.057678,95.782158 156.037796,96.518936 155.843430,97.846634 
	C155.760513,99.298859 155.852097,100.160164 155.943665,101.021477 
	C155.628586,103.732918 155.313522,106.444359 155.001373,109.580505 
z"/>
<path fill="#201B67" opacity="1.000000" stroke="none" 
	d="
M150.129700,123.436905 
	C150.629135,123.282196 151.082031,123.518211 151.766281,123.862762 
	C154.459518,125.215324 156.921402,126.459358 159.690857,127.855911 
	C159.351334,131.462601 158.612793,134.822418 153.312195,133.716141 
	C152.212845,132.957901 151.619949,132.481064 151.027054,132.004227 
	C150.691879,130.573883 150.356705,129.143555 149.975403,127.349564 
	C149.980560,125.933151 150.031860,124.880394 150.129700,123.436905 
z"/>
<path fill="#2A4170" opacity="1.000000" stroke="none" 
	d="
M66.312149,108.762482 
	C65.716797,107.547752 65.409973,106.065910 65.049789,104.284683 
	C65.323189,101.594185 65.649956,99.203072 65.978500,95.973373 
	C66.011360,93.438683 66.042450,91.742577 66.073532,90.046478 
	C66.767891,90.027634 67.462257,90.008789 68.503654,89.977341 
	C68.100685,96.141609 67.350677,102.318497 66.312149,108.762482 
z"/>
<path fill="#32577F" opacity="1.000000" stroke="none" 
	d="
M124.976791,68.991676 
	C124.976784,68.991676 125.017517,68.532043 125.039658,68.303040 
	C125.460007,68.049217 125.858215,68.024399 126.555634,67.981781 
	C126.217468,75.006508 125.580093,82.049042 124.884689,89.515396 
	C124.382034,89.697769 123.937416,89.456337 123.262924,88.772636 
	C123.033691,87.894073 123.034332,87.457779 123.235741,86.733246 
	C123.625725,85.290985 123.814934,84.136948 124.125076,82.671875 
	C124.159653,80.568863 124.073303,78.776886 124.074478,76.597435 
	C124.433594,73.803864 124.705193,71.397774 124.976791,68.991676 
z"/>
<path fill="#212775" opacity="1.000000" stroke="none" 
	d="
M64.122681,120.672142 
	C63.251698,121.001343 62.502209,121.001503 61.378094,121.002319 
	C62.029800,119.675827 63.056137,118.348671 64.447113,117.003563 
	C64.622566,118.104774 64.433372,119.223938 64.122681,120.672142 
z"/>
<path fill="#2E2758" opacity="1.000000" stroke="none" 
	d="
M64.005135,129.680939 
	C63.864220,127.882996 63.908356,125.747200 63.991657,123.273026 
	C64.083939,125.070793 64.137062,127.206947 64.005135,129.680939 
z"/>
<path fill="#211967" opacity="1.000000" stroke="none" 
	d="
M151.019409,132.337830 
	C151.619949,132.481064 152.212845,132.957901 152.902786,133.716766 
	C152.558441,134.000320 152.117050,134.001862 151.344894,134.005066 
	C151.013351,133.561630 151.012558,133.116531 151.019409,132.337830 
z"/>
<path fill="#211967" opacity="1.000000" stroke="none" 
	d="
M152.050049,136.876984 
	C151.958511,136.985550 151.961029,136.499786 151.959656,136.256989 
	C152.196991,136.229645 152.258087,136.481049 152.050049,136.876984 
z"/>
<path fill="#2C4C7D" opacity="1.000000" stroke="none" 
	d="
M156.208435,101.014343 
	C155.852097,100.160164 155.760513,99.298859 155.847534,98.215836 
	C156.337036,98.779816 156.647934,99.565521 156.980835,100.674545 
	C156.826294,101.000977 156.649750,101.004089 156.208435,101.014343 
z"/>
<path fill="#2867A4" opacity="1.000000" stroke="none" 
	d="
M124.615326,69.024612 
	C124.705193,71.397774 124.433594,73.803864 123.733513,76.694672 
	C119.835197,78.324501 116.435905,79.949371 112.874702,80.472893 
	C109.643867,80.947845 106.236717,80.223320 102.907295,80.027611 
	C102.949699,78.620590 102.992104,77.213577 103.078003,75.384537 
	C107.984772,73.523071 112.513336,71.001556 118.084488,72.390228 
	C119.759941,72.807854 122.176697,70.251511 124.615326,69.024612 
z"/>
<path fill="#275E9C" opacity="1.000000" stroke="none" 
	d="
M102.757484,80.399956 
	C106.236717,80.223320 109.643867,80.947845 112.874702,80.472893 
	C116.435905,79.949371 119.835197,78.324501 123.645988,77.082146 
	C124.073303,78.776886 124.159653,80.568863 123.934967,82.932289 
	C123.408325,84.328262 123.192711,85.152779 122.730591,86.107101 
	C121.988426,86.491287 121.492775,86.745667 120.698212,86.778259 
	C116.835281,86.204956 113.220116,86.115601 109.720711,85.432884 
	C105.710587,84.650520 103.676826,86.150002 102.741760,89.988266 
	C102.313332,90.008186 102.142006,90.017235 101.970680,90.026291 
	C102.183014,86.941628 102.395340,83.856964 102.757484,80.399956 
z"/>
<path fill="#265090" opacity="1.000000" stroke="none" 
	d="
M120.997116,87.000038 
	C121.492775,86.745667 121.988426,86.491287 122.744232,86.368317 
	C123.014572,86.673637 123.024765,86.847557 123.034973,87.021477 
	C123.034332,87.457779 123.033691,87.894073 123.037788,88.657158 
	C121.511612,91.553589 120.376991,95.891289 118.370926,96.340927 
	C113.543686,97.422874 108.287636,96.897926 103.262398,96.416939 
	C102.607193,96.354225 102.292091,92.738197 101.895065,90.397156 
	C102.142006,90.017235 102.313332,90.008186 103.131592,90.076248 
	C106.365379,90.653641 109.112732,90.759949 111.506065,91.735115 
	C116.699577,93.851219 119.617775,92.155190 120.997116,87.000038 
z"/>
<path fill="#2760A1" opacity="1.000000" stroke="none" 
	d="
M67.104523,83.624969 
	C59.658577,83.407959 52.266346,82.998871 44.939899,82.070580 
	C43.209213,81.851288 41.699802,79.885567 40.045944,78.355377 
	C49.078953,77.606949 58.154617,77.226379 67.644592,76.939941 
	C67.766693,79.103760 67.474487,81.173447 67.104523,83.624969 
z"/>
<path fill="#245094" opacity="1.000000" stroke="none" 
	d="
M66.054276,89.785126 
	C66.042450,91.742577 66.011360,93.438683 65.969421,95.559250 
	C55.868374,96.293198 45.777073,96.777061 35.689198,96.713928 
	C34.264984,96.705009 32.857479,94.027359 31.225639,92.301170 
	C31.238283,90.849304 31.467529,89.681221 31.847383,88.260590 
	C43.041916,88.338921 54.085842,88.669823 65.567383,89.000603 
	C66.015007,89.174911 66.025017,89.349335 66.054276,89.785126 
z"/>
<path fill="#245094" opacity="1.000000" stroke="none" 
	d="
M66.182907,88.855003 
	C66.178825,88.742828 66.386009,88.504593 66.802551,88.138412 
	C66.808220,88.251595 66.602310,88.491089 66.182907,88.855003 
z"/>
<path fill="#274575" opacity="1.000000" stroke="none" 
	d="
M123.235733,86.733246 
	C123.024765,86.847557 123.014572,86.673637 122.990730,86.238510 
	C123.192711,85.152779 123.408325,84.328262 123.814041,83.243332 
	C123.814934,84.136948 123.625725,85.290985 123.235733,86.733246 
z"/>
<path fill="#24579B" opacity="1.000000" stroke="none" 
	d="
M120.698212,86.778259 
	C119.617775,92.155190 116.699577,93.851219 111.506065,91.735115 
	C109.112732,90.759949 106.365379,90.653641 103.388710,90.065384 
	C103.676826,86.150002 105.710587,84.650520 109.720711,85.432884 
	C113.220116,86.115601 116.835281,86.204956 120.698212,86.778259 
z"/>
</svg>