<svg version="1.1" id="Layer_1" xmlns="http://www.w3.org/2000/svg" xmlns:xlink="http://www.w3.org/1999/xlink" x="0px" y="0px"
	 width="100%" viewBox="0 0 217 216" enable-background="new 0 0 217 216" xml:space="preserve">
<path fill="#FBFCFD" opacity="1.000000" stroke="none" 
	d="
M100.000000,217.000000 
	C67.076561,217.000000 34.153114,217.000000 1.000000,217.000000 
	C1.000000,187.312836 1.000000,157.625076 1.328318,127.465714 
	C2.094369,126.999176 2.532101,127.004234 3.101937,127.068085 
	C3.234041,127.126869 3.519802,127.171173 3.568449,127.479630 
	C3.630329,128.201004 3.643563,128.613922 3.480785,129.206589 
	C3.528220,129.923111 3.751666,130.459900 4.101658,131.382599 
	C6.522381,138.606979 8.463217,145.592117 11.221781,152.237823 
	C13.455915,157.620117 16.673670,162.594131 19.637634,168.087463 
	C28.402397,160.311295 36.402710,153.213364 44.779804,145.781143 
	C44.982609,147.700897 45.104656,148.856216 45.096802,150.379501 
	C44.411751,153.407944 43.856609,156.068420 43.220970,159.114685 
	C47.862652,159.673325 51.952812,160.165573 56.402836,160.763336 
	C57.509182,160.871429 58.255665,160.874008 59.379707,161.035507 
	C64.195328,161.517029 68.633377,161.839630 73.501411,162.322784 
	C77.622696,162.604172 81.314003,162.725006 85.459946,162.964508 
	C91.603027,162.997757 97.291473,162.912323 103.379959,162.901642 
	C104.852966,162.871140 105.925949,162.765869 107.330093,162.742981 
	C108.102745,162.740097 108.544228,162.654877 109.348625,162.656952 
	C111.415131,162.526917 113.118736,162.309601 114.960678,162.198166 
	C115.414688,162.211670 115.730362,162.119308 116.289589,162.081406 
	C116.533142,162.135849 117.003387,161.968536 117.376968,162.033646 
	C118.497124,161.996414 119.243698,161.894073 120.321701,161.836777 
	C121.086449,161.792175 121.519760,161.702530 122.295578,161.692841 
	C123.758224,161.515701 124.878365,161.258636 126.372795,161.050293 
	C127.490326,160.989594 128.233582,160.880173 129.385117,160.827057 
	C133.523300,160.189850 137.253204,159.496307 141.329529,158.828217 
	C142.100815,158.689026 142.525681,158.524368 143.298904,158.391052 
	C145.427963,157.933167 147.208649,157.443924 149.337936,156.966064 
	C150.792435,156.651367 151.898361,156.325317 153.388519,156.026794 
	C156.405304,155.142075 159.037827,154.229813 161.909973,153.320618 
	C162.469391,153.257736 162.755585,153.121292 163.317734,152.944687 
	C163.962814,152.755219 164.298294,152.535400 164.749878,152.327759 
	C164.865982,152.339920 165.016983,152.161850 165.401047,152.156342 
	C170.554703,149.792007 175.324295,147.433167 180.064941,145.036285 
	C180.035980,144.998230 180.057556,145.091385 180.371460,145.070526 
	C181.445343,144.362564 182.205307,143.675476 183.286865,142.879303 
	C188.352768,139.131927 191.436844,134.495422 192.498596,128.121094 
	C192.543228,122.473633 192.296829,117.173119 192.111694,111.470474 
	C191.150955,108.300217 190.128983,105.532089 189.131042,102.413574 
	C188.525925,100.661285 187.896805,99.259377 187.247238,97.499931 
	C185.575912,94.722412 183.925049,92.302422 182.188568,89.549759 
	C180.026062,86.774040 177.949188,84.330986 176.275787,81.970581 
	C181.467941,83.638840 186.256653,85.224442 191.272034,87.067581 
	C193.938339,88.904716 196.377975,90.484322 198.973831,92.364700 
	C202.021469,95.796791 204.912857,98.928093 207.853271,102.356888 
	C208.259613,103.119125 208.616959,103.583878 208.990540,104.029541 
	C209.006744,104.010460 208.957779,104.020485 209.010742,104.355171 
	C209.926376,106.226425 210.789047,107.762985 211.611969,109.301659 
	C211.572235,109.303772 211.558884,109.382240 211.599396,109.740723 
	C212.038773,110.958107 212.437622,111.816994 212.779297,113.048546 
	C213.039429,114.621147 213.356750,115.821091 213.633301,117.406944 
	C213.765594,120.196602 213.938644,122.600342 214.030243,125.410217 
	C213.237488,136.365906 208.821289,145.452133 202.618073,154.018982 
	C202.121902,154.350555 201.992874,154.646362 201.700195,155.145905 
	C198.787399,158.016495 196.176147,160.743484 193.568237,163.517120 
	C193.571579,163.563751 193.478485,163.554886 193.211746,163.687836 
	C192.247894,164.510101 191.550781,165.199417 190.905365,165.924866 
	C190.957062,165.961029 190.897369,165.849854 190.578079,165.922974 
	C189.111572,166.973541 187.964355,167.951004 186.527893,168.994537 
	C185.475174,169.658493 184.711731,170.256363 183.607376,170.929474 
	C181.116791,172.311005 178.967117,173.617279 176.471771,174.961960 
	C174.090057,176.018356 172.054016,177.036346 169.669235,178.074097 
	C168.304764,178.640289 167.289047,179.186722 166.209351,179.716522 
	C166.145370,179.699921 166.029709,179.763947 165.637604,179.784821 
	C152.080185,183.228973 139.051376,187.369751 125.717392,189.906479 
	C105.981659,193.661133 85.947563,192.703506 65.667557,191.315155 
	C64.891655,191.199783 64.435867,191.211899 63.568069,191.108551 
	C54.625336,189.945023 46.094612,188.896927 36.237110,187.685822 
	C40.116863,190.747940 42.645973,192.888458 45.319786,194.829666 
	C57.546432,203.706268 70.771843,210.432434 85.764923,213.344879 
	C85.791512,213.348831 85.759018,213.306335 85.976364,213.522003 
	C86.797165,213.780365 87.400612,213.823059 88.372925,214.003174 
	C89.520164,214.230865 90.298538,214.321106 91.148338,214.412979 
	C91.219772,214.414612 91.286743,214.288376 91.586067,214.544449 
	C93.039902,214.579651 94.194405,214.358780 95.465790,214.189850 
	C95.582672,214.241791 95.785004,214.085266 95.975723,214.372894 
	C97.444290,215.440338 98.722145,216.220169 100.000000,217.000000 
z"/>
<path fill="#FBFDFE" opacity="1.000000" stroke="none" 
	d="
M141.000000,1.000000 
	C166.596298,1.000000 192.192596,1.000000 218.000000,1.000000 
	C218.000000,28.353867 218.000000,55.708275 217.691681,83.479294 
	C216.854584,83.261948 216.325806,82.627991 215.749054,81.649734 
	C214.764404,79.210037 213.827713,77.114647 212.889450,74.647362 
	C211.289963,71.108620 209.692032,67.941772 208.107315,64.476837 
	C208.051773,63.788937 207.983002,63.399124 207.944122,62.648018 
	C205.682190,58.047859 203.390335,53.808994 200.803085,49.023766 
	C195.244537,54.187016 190.447418,58.642994 185.419159,63.200294 
	C185.105286,63.448105 185.022552,63.594589 184.639679,63.822525 
	C183.807419,64.504944 183.275299,65.105919 182.737183,65.715111 
	C182.731216,65.723335 182.719833,65.739616 182.383453,65.801956 
	C179.763596,67.876732 177.480133,69.889160 174.740494,72.303635 
	C174.348282,70.779076 174.123062,69.903572 174.110352,68.689026 
	C174.970123,66.080360 175.831192,63.838722 176.134171,61.524036 
	C176.224945,60.830509 174.757935,59.933083 173.818512,59.037033 
	C173.632416,58.944992 173.221985,58.882183 173.066376,58.570656 
	C171.590057,57.943275 170.269348,57.627426 168.628845,57.215683 
	C167.866211,57.140442 167.423401,57.161091 166.627716,57.068405 
	C164.831253,56.859520 163.387665,56.763973 161.600098,56.499252 
	C160.496475,56.279697 159.736847,56.229321 158.612579,56.053982 
	C156.489670,55.847374 154.731354,55.765732 152.582535,55.518250 
	C150.781342,55.309017 149.370667,55.265617 147.548615,55.095268 
	C134.760208,55.001183 122.383186,55.034046 109.581573,55.007309 
	C107.451843,55.066067 105.746696,55.184418 103.618088,55.223900 
	C100.231468,55.448360 97.218307,55.506618 94.314178,56.099194 
	C83.999626,58.203854 73.722252,60.490688 63.310249,62.661999 
	C63.189709,62.615482 62.986095,62.774593 62.642799,62.766556 
	C61.872402,62.913231 61.445301,63.067951 60.736271,63.209145 
	C59.956123,63.429199 59.457905,63.662773 58.631027,63.881439 
	C57.522537,64.231941 56.742710,64.597359 55.678646,64.976540 
	C55.066910,65.165627 54.739410,65.340950 54.156937,65.546204 
	C53.603184,65.739868 53.304409,65.903595 52.710167,66.054825 
	C52.104160,66.267975 51.793621,66.493622 51.139954,66.781540 
	C45.451694,70.139511 40.106556,73.435226 34.791237,76.857239 
	C34.821056,76.983543 34.780190,76.731361 34.517159,76.802719 
	C34.079391,77.178429 33.904659,77.482765 33.783493,77.825760 
	C33.837055,77.864418 33.801773,77.737106 33.526215,77.822464 
	C33.042404,78.225204 32.834152,78.542580 32.408722,78.962875 
	C31.935007,79.305595 31.835598,79.598694 31.614536,80.154297 
	C29.927217,84.903236 28.518684,89.442955 26.992882,94.433960 
	C26.979425,98.596550 27.083235,102.307854 27.195574,106.368492 
	C27.778376,107.985809 28.352646,109.253799 28.860962,110.654137 
	C28.795006,110.786491 29.016058,110.982979 29.001057,111.360825 
	C31.516573,120.240952 36.297108,127.284279 42.910278,133.103943 
	C42.943779,133.046890 42.832172,133.117966 42.904018,133.455841 
	C42.649570,134.298431 42.323277,134.803146 41.612019,135.256653 
	C35.816460,132.796097 30.405865,130.386765 24.851357,127.726456 
	C24.201582,127.215767 23.695719,126.956047 23.137363,126.791443 
	C23.084871,126.886559 23.238060,126.732483 23.071579,126.448990 
	C20.293768,123.763390 17.682438,121.361290 14.997573,118.614723 
	C12.609769,114.181091 10.295501,110.091942 8.005404,105.652412 
	C7.659903,104.199615 7.290228,103.097198 6.961921,101.740768 
	C6.932882,101.330292 6.862475,101.173828 6.833049,100.681870 
	C6.877985,99.674065 6.881940,99.001770 6.926274,97.855362 
	C7.927968,90.770294 8.889282,84.159332 9.806185,77.217682 
	C10.518427,75.592140 11.275084,74.297279 12.273285,72.825821 
	C12.634763,72.274155 12.754696,71.899086 12.920765,71.226448 
	C13.401896,70.269821 13.836891,69.610771 14.445395,68.827744 
	C14.822097,68.488708 14.941708,68.234306 14.968489,67.702179 
	C14.959241,67.463768 14.928183,66.987602 15.167511,66.816879 
	C15.954524,66.101273 16.502211,65.556396 17.266266,64.882988 
	C17.634642,64.461716 17.786648,64.168976 17.947182,63.915932 
	C17.955706,63.955627 17.874689,63.950165 18.137804,63.826965 
	C18.567038,63.364464 18.733156,63.025158 18.950386,62.441177 
	C19.181244,61.907299 19.278822,61.592625 19.183659,61.224510 
	C19.073084,61.196537 19.272690,61.306969 19.498594,61.252888 
	C19.978357,61.014503 20.255024,60.875637 20.919483,60.813202 
	C21.873789,59.954178 22.463110,59.064159 23.162561,57.914642 
	C23.580845,57.452072 23.888994,57.249008 24.568495,57.034534 
	C26.405678,56.401440 28.023396,55.999390 29.305870,55.112545 
	C32.015347,53.238922 34.365944,50.797932 37.189415,49.146435 
	C46.399822,43.759109 56.328247,40.099251 66.293304,36.262691 
	C76.777832,32.226128 87.630531,31.481409 98.267677,29.194462 
	C106.116867,27.506912 114.370689,27.744406 122.425758,26.939428 
	C124.306725,26.751455 126.112892,25.814909 128.291489,25.155701 
	C129.084763,25.128372 129.540039,25.168119 130.109009,25.585033 
	C131.090561,26.306198 131.939804,26.887875 132.829147,26.957542 
	C142.039215,27.679001 151.250854,28.401443 160.472702,28.941969 
	C164.631393,29.185726 168.814011,29.021212 173.393417,29.033062 
	C174.882339,29.092714 175.963608,29.161243 177.227249,29.433001 
	C177.933304,29.760252 178.457001,29.884274 178.989960,30.003040 
	C178.999237,29.997784 178.993744,30.017536 179.035538,30.370918 
	C181.943924,35.634880 183.574203,31.101851 187.170456,29.713835 
	C182.440201,25.720621 178.638123,22.257954 174.543762,19.184647 
	C173.002045,18.027403 170.783081,17.772394 168.934082,17.085926 
	C168.995285,17.065773 168.895782,17.147692 168.900635,16.780590 
	C166.590836,11.835997 162.577087,10.771959 157.947113,11.081982 
	C157.998779,11.074923 157.914886,11.136907 157.878448,10.747419 
	C156.443848,9.949182 155.045685,9.540430 153.468597,9.139587 
	C153.289658,9.147497 153.001831,8.934263 152.942017,8.587472 
	C150.004684,6.823680 147.065918,5.515165 144.277527,3.940346 
	C143.029541,3.235513 142.083221,1.996562 141.000000,1.000000 
z"/>
<path fill="#241D69" opacity="1.000000" stroke="none" 
	d="
M91.286743,214.288376 
	C91.286743,214.288376 91.219772,214.414612 90.982254,214.082413 
	C89.830185,213.501740 88.915627,213.253281 87.622269,213.011215 
	C86.748657,213.113861 86.253838,213.210098 85.759018,213.306335 
	C85.759018,213.306335 85.791512,213.348831 85.796646,212.957977 
	C84.800133,211.854309 83.891388,210.754395 82.782539,210.488281 
	C70.975914,207.654694 60.171635,202.608353 50.171886,195.817520 
	C49.183628,195.146393 48.823074,193.550934 48.171181,192.384491 
	C49.447441,191.977203 50.738426,191.207413 51.996059,191.258499 
	C53.424671,191.316513 54.844070,192.550858 56.230782,192.486252 
	C58.827847,192.365219 61.398460,191.676559 63.980076,191.223999 
	C64.435867,191.211899 64.891655,191.199783 65.788116,191.651855 
	C68.907211,192.743118 71.576233,193.859726 74.265694,193.911362 
	C85.072433,194.118820 95.913322,194.476227 106.687798,193.851059 
	C116.031532,193.308884 125.342079,191.749588 134.592010,190.192657 
	C140.752579,189.155701 146.891464,187.674698 152.832703,185.751801 
	C157.399338,184.273804 161.642624,181.796738 166.029709,179.763947 
	C166.029709,179.763947 166.145370,179.699921 166.618301,179.789825 
	C168.066818,179.271255 169.042404,178.662796 170.017990,178.054337 
	C172.054016,177.036346 174.090057,176.018356 176.873932,174.990417 
	C180.494186,174.775772 183.431824,174.671112 183.948288,170.854233 
	C184.711731,170.256363 185.475174,169.658493 186.910202,169.011948 
	C188.686981,167.925476 189.792175,166.887665 190.897369,165.849854 
	C190.897369,165.849854 190.957062,165.961029 191.296951,165.954178 
	C192.250717,165.149841 192.864594,164.352356 193.478485,163.554886 
	C193.478485,163.554886 193.571579,163.563751 193.951340,163.659302 
	C198.171539,161.962219 201.943329,160.109451 202.001740,155.002304 
	C201.992874,154.646362 202.121902,154.350555 202.935791,154.173981 
	C203.778015,155.160812 204.393280,156.120422 204.304657,157.009888 
	C204.092407,159.140259 203.549072,161.237640 203.060806,163.676331 
	C194.994904,173.363129 187.007584,182.721939 178.766113,192.119156 
	C178.335022,192.435577 178.158066,192.713577 177.743347,193.032593 
	C177.163071,193.190842 176.969360,193.429077 176.621414,193.862488 
	C176.048721,194.245224 175.779083,194.553818 175.207825,194.932556 
	C173.604004,196.003937 172.301804,197.005157 170.710999,198.029022 
	C170.169922,198.328354 169.917465,198.605087 169.356567,198.953766 
	C167.686646,199.978638 166.325195,200.931564 164.661591,201.908630 
	C163.885422,202.280273 163.411423,202.627777 162.583664,203.017914 
	C158.150192,205.070511 154.070465,207.080490 149.667892,209.068237 
	C149.009842,209.294724 148.674622,209.543396 148.095291,209.757202 
	C147.513763,209.774307 147.224442,209.921051 146.674881,210.142593 
	C146.042542,210.354858 145.718521,210.587097 145.280609,210.785370 
	C145.166718,210.751419 145.010345,210.930420 144.648621,210.916595 
	C143.653976,211.207703 143.021027,211.512619 142.139053,211.775406 
	C141.587540,211.870987 141.285049,212.008728 140.659973,212.119965 
	C139.757339,212.349945 139.177277,212.606445 138.425232,212.816071 
	C138.253235,212.769196 137.997543,213.017685 137.637085,212.994690 
	C136.631439,213.246292 135.986267,213.520874 135.040680,213.742081 
	C134.154465,213.843201 133.568634,213.997726 132.631668,214.106277 
	C131.641388,214.311218 131.002228,214.562119 130.275955,214.755539 
	C130.188828,214.698074 130.010925,214.807312 129.577148,214.766235 
	C125.764206,215.153122 122.385033,215.581100 118.739334,215.717926 
	C115.879562,215.465210 112.809120,213.237000 111.000000,217.000000 
	C110.250000,217.000000 109.500000,217.000000 108.287796,216.612396 
	C103.812065,215.511627 99.798538,214.798447 95.785004,214.085266 
	C95.785004,214.085266 95.582672,214.241791 94.958824,214.151154 
	C93.318901,214.136459 92.302818,214.212418 91.286743,214.288376 
z"/>
<path fill="#FBFEFE" opacity="1.000000" stroke="none" 
	d="
M0.999999,99.000000 
	C1.000000,66.409515 1.000000,33.819038 1.000000,1.000000 
	C30.687170,1.000000 60.374928,1.000000 90.412689,1.355885 
	C86.389793,3.109103 82.016884,4.506437 77.477142,5.872992 
	C77.310310,5.842213 77.038452,6.045242 76.657471,6.023799 
	C73.160019,7.318611 70.043549,8.634866 66.964088,9.965540 
	C67.001091,9.979959 66.956001,9.914573 66.592361,9.927217 
	C63.778118,11.263705 61.327526,12.587547 58.917732,13.925604 
	C58.958534,13.939817 58.965153,13.853661 58.643890,13.855529 
	C57.825153,14.225505 57.327679,14.593613 56.603172,14.986244 
	C56.376144,15.010768 56.031403,15.310311 55.696224,15.342201 
	C50.603455,18.852951 45.845863,22.331810 40.791847,25.886517 
	C40.279877,26.287117 40.064327,26.611870 39.894493,26.907932 
	C39.940208,26.879242 39.865108,26.801708 39.522575,26.843700 
	C35.352211,31.218014 31.524382,35.550339 27.411972,40.021324 
	C26.418486,41.172211 25.709585,42.184429 24.733864,43.329727 
	C23.951714,43.961864 23.436386,44.460922 22.954977,44.978195 
	C22.988895,44.996407 22.954254,44.927643 22.667416,45.069565 
	C21.852093,46.115150 21.323610,47.018814 20.582329,48.037460 
	C20.122509,48.391842 20.003521,48.683479 19.733398,49.208900 
	C18.004471,51.932064 16.554716,54.473679 14.987617,57.127556 
	C14.870275,57.239819 14.868516,57.564602 14.605932,57.775787 
	C13.913993,58.990654 13.484636,59.994335 12.941587,61.132309 
	C12.827896,61.266602 12.821172,61.618450 12.554952,61.858967 
	C10.578477,66.064133 8.868221,70.028786 6.824568,74.030319 
	C6.475242,74.799667 6.459313,75.532143 6.474100,76.512207 
	C6.524858,77.094269 6.499431,77.425240 6.152933,77.894226 
	C5.889428,78.680771 5.901525,79.325798 5.834980,80.345795 
	C4.554725,85.818794 3.353112,90.916809 2.080574,96.360115 
	C1.673099,97.470268 1.336548,98.235130 0.999999,99.000000 
z"/>
<path fill="#FDFDFE" opacity="1.000000" stroke="none" 
	d="
M164.963745,201.884491 
	C166.325195,200.931564 167.686646,199.978638 169.634155,198.906097 
	C170.480011,198.526459 170.739807,198.266418 170.999603,198.006378 
	C172.301804,197.005157 173.604004,196.003937 175.523483,194.875031 
	C176.402008,194.427673 176.663239,194.108002 176.924484,193.788330 
	C176.969360,193.429077 177.163071,193.190842 177.967682,192.946777 
	C178.713089,192.642654 178.909927,192.396255 179.020264,192.080750 
	C187.007584,182.721939 194.994904,173.363129 203.351929,163.472900 
	C208.055756,151.250351 212.389847,139.559204 217.044067,127.890228 
	C217.576157,127.941597 217.788086,127.970802 218.000000,128.000000 
	C218.000000,157.583237 218.000000,187.166473 218.000000,217.000000 
	C195.979736,217.000000 173.958527,217.000000 151.503448,216.654663 
	C151.585724,215.087616 152.101852,213.865875 152.617981,212.644150 
	C152.191208,212.210449 151.764420,211.776749 151.337646,211.343048 
	C148.891769,213.228699 146.445877,215.114349 144.000000,217.000000 
	C139.310745,217.000000 134.621490,217.000000 129.584641,216.721344 
	C129.495010,215.897552 129.752960,215.352432 130.010925,214.807312 
	C130.010925,214.807312 130.188828,214.698074 130.635742,214.803375 
	C131.716049,214.656540 132.349426,214.404388 132.982803,214.152252 
	C133.568634,213.997726 134.154465,213.843201 135.412964,213.790253 
	C136.722931,213.600433 137.360245,213.309067 137.997543,213.017685 
	C137.997543,213.017685 138.253235,212.769196 138.757645,212.853485 
	C139.835556,212.674011 140.409058,212.410233 140.982559,212.146454 
	C141.285049,212.008728 141.587540,211.870987 142.513794,211.813675 
	C143.761826,211.572861 144.386093,211.251633 145.010345,210.930420 
	C145.010345,210.930420 145.166718,210.751419 145.584991,210.785400 
	C146.329910,210.600449 146.656555,210.381500 146.983200,210.162567 
	C147.224442,209.921051 147.513763,209.774307 148.414307,209.759308 
	C149.315231,209.561005 149.652985,209.325729 149.990738,209.090454 
	C154.070465,207.080490 158.150192,205.070511 162.896942,203.009720 
	C164.030579,202.600754 164.497162,202.242630 164.963745,201.884491 
z"/>
<path fill="#32B1E0" opacity="1.000000" stroke="none" 
	d="
M56.031403,15.310311 
	C56.031403,15.310311 56.376144,15.010768 56.933376,14.982346 
	C57.982124,14.587170 58.473640,14.220415 58.965153,13.853661 
	C58.965153,13.853661 58.958534,13.939817 59.318581,13.956154 
	C62.104420,12.619851 64.530212,11.267212 66.956001,9.914573 
	C66.956001,9.914573 67.001091,9.979959 67.386765,9.983980 
	C71.490105,10.151989 74.880280,9.546304 77.038452,6.045242 
	C77.038452,6.045242 77.310310,5.842213 77.931587,5.905107 
	C83.202072,5.203916 87.877884,4.563804 92.479172,3.576415 
	C93.458641,3.366230 94.166832,1.891917 95.000000,1.000001 
	C103.354233,1.000000 111.708466,1.000000 120.601486,1.368937 
	C126.814056,3.484821 132.502029,5.187198 138.158386,6.988834 
	C147.365356,9.921396 156.827499,12.249525 164.689362,18.363861 
	C166.970978,20.138321 168.557419,21.967106 166.548431,24.993370 
	C161.401840,24.657936 156.707718,24.320396 151.941833,23.628010 
	C150.581680,22.849640 149.293289,22.426117 147.739883,21.718279 
	C144.213531,20.958139 140.947403,20.050976 137.691696,20.086887 
	C127.691299,20.197201 117.697014,20.816036 107.696350,20.961182 
	C96.200813,21.128023 84.700493,21.062826 73.203224,20.973745 
	C67.320488,20.928167 61.343678,21.161390 55.986702,17.656628 
	C56.005173,16.650360 56.018288,15.980336 56.031403,15.310311 
z"/>
<path fill="#2E5490" opacity="1.000000" stroke="none" 
	d="
M215.797012,81.994026 
	C216.325806,82.627991 216.854584,83.261948 217.691681,83.947952 
	C218.000000,89.354927 218.000000,94.709862 217.726166,100.336586 
	C215.582153,98.939674 213.071671,95.525139 211.962692,95.931877 
	C208.725998,97.118988 206.916382,96.476746 204.570175,94.305878 
	C203.164581,93.005295 200.768494,92.775169 198.817596,92.063919 
	C196.377975,90.484322 193.938339,88.904716 191.514786,86.836525 
	C192.764816,86.608521 194.311661,86.487000 195.178009,87.196465 
	C198.742676,90.115639 202.529053,89.381783 206.754578,89.376411 
	C212.399567,89.369217 214.216080,87.053741 214.907852,82.333847 
	C214.930328,82.180435 215.488541,82.105530 215.797012,81.994026 
z"/>
<path fill="#3FADDA" opacity="1.000000" stroke="none" 
	d="
M167.000916,24.991262 
	C168.557419,21.967106 166.970978,20.138321 164.689362,18.363861 
	C156.827499,12.249525 147.365356,9.921396 138.158386,6.988834 
	C132.502029,5.187198 126.814056,3.484821 121.070145,1.368937 
	C124.030594,1.000000 127.061188,1.000000 130.698181,1.332885 
	C138.536987,4.088600 145.769409,6.511430 153.001831,8.934262 
	C153.001831,8.934263 153.289658,9.147497 153.706314,9.394385 
	C155.386948,10.139817 156.650909,10.638362 157.914886,11.136907 
	C157.914886,11.136907 157.998779,11.074923 158.143234,11.363127 
	C161.823715,13.483452 165.359756,15.315572 168.895782,17.147692 
	C168.895782,17.147692 168.995285,17.065773 169.031311,17.356556 
	C169.745407,18.302561 170.423462,18.957781 171.187790,20.000595 
	C173.375732,25.195875 170.236435,25.138229 167.000916,24.991262 
z"/>
<path fill="#2A4986" opacity="1.000000" stroke="none" 
	d="
M198.973831,92.364700 
	C200.768494,92.775169 203.164581,93.005295 204.570175,94.305878 
	C206.916382,96.476746 208.725998,97.118988 211.962692,95.931877 
	C213.071671,95.525139 215.582153,98.939674 217.726166,100.804192 
	C218.000000,103.370560 218.000000,105.741112 217.581619,108.555023 
	C215.768616,109.004105 214.373978,109.009827 212.617950,109.082870 
	C212.023987,109.227547 211.791443,109.304893 211.558884,109.382240 
	C211.558884,109.382240 211.572235,109.303772 211.718857,108.901566 
	C210.896240,107.006409 209.927002,105.513451 208.957779,104.020485 
	C208.957779,104.020485 209.006744,104.010460 208.964874,103.715179 
	C208.550095,102.966400 208.177185,102.512901 207.804260,102.059402 
	C204.912857,98.928093 202.021469,95.796791 198.973831,92.364700 
z"/>
<path fill="#304380" opacity="1.000000" stroke="none" 
	d="
M0.999999,99.250000 
	C1.336548,98.235130 1.673099,97.470268 2.457366,96.271858 
	C3.904783,94.940407 4.904485,94.042503 5.989173,93.515488 
	C5.940959,94.365997 5.807758,94.845627 5.524396,95.620758 
	C5.588603,96.277405 5.802969,96.638535 6.158114,97.226738 
	C6.494559,97.745689 6.690227,98.037582 6.885895,98.329468 
	C6.881940,99.001770 6.877985,99.674065 6.693637,100.785980 
	C6.649014,101.481979 6.784783,101.738380 6.920553,101.994774 
	C7.290228,103.097198 7.659903,104.199615 7.651256,105.691467 
	C4.645306,107.724632 3.177754,106.458321 2.098449,103.669708 
	C1.686435,102.195915 1.343217,101.097961 1.000000,100.000000 
	C1.000000,100.000000 1.000000,99.500000 0.999999,99.250000 
z"/>
<path fill="#F3FCFD" opacity="1.000000" stroke="none" 
	d="
M152.942017,8.587471 
	C145.769409,6.511430 138.536987,4.088600 131.152283,1.332885 
	C134.030594,1.000000 137.061188,1.000000 140.545898,1.000000 
	C142.083221,1.996562 143.029541,3.235513 144.277527,3.940346 
	C147.065918,5.515165 150.004684,6.823680 152.942017,8.587471 
z"/>
<path fill="#2C3D7F" opacity="1.000000" stroke="none" 
	d="
M212.979340,109.015541 
	C214.373978,109.009827 215.768616,109.004105 217.581619,108.999191 
	C218.000000,112.030594 218.000000,115.061188 217.690643,118.520538 
	C216.145538,118.306541 214.909790,117.663780 213.674057,117.021027 
	C213.356750,115.821091 213.039429,114.621147 212.824432,112.589157 
	C212.944290,110.843254 212.961823,109.929398 212.979340,109.015541 
z"/>
<path fill="#363668" opacity="1.000000" stroke="none" 
	d="
M213.633301,117.406944 
	C214.909790,117.663780 216.145538,118.306541 217.690643,118.974648 
	C218.000000,121.700012 218.000000,124.400032 218.000000,127.550018 
	C217.788086,127.970802 217.576157,127.941597 216.827850,127.678879 
	C215.564880,126.631607 214.838287,125.817848 214.111694,125.004082 
	C213.938644,122.600342 213.765594,120.196602 213.633301,117.406944 
z"/>
<path fill="#F5F8F9" opacity="1.000000" stroke="none" 
	d="
M144.437500,217.000000 
	C146.445877,215.114349 148.891769,213.228699 151.337646,211.343048 
	C151.764420,211.776749 152.191208,212.210449 152.617981,212.644150 
	C152.101852,213.865875 151.585724,215.087616 151.034790,216.654663 
	C148.958328,217.000000 146.916672,217.000000 144.437500,217.000000 
z"/>
<path fill="#3BA1CF" opacity="1.000000" stroke="none" 
	d="
M94.600006,1.000001 
	C94.166832,1.891917 93.458641,3.366230 92.479172,3.576415 
	C87.877884,4.563804 83.202072,5.203916 78.098419,5.935886 
	C82.016884,4.506437 86.389793,3.109103 90.881348,1.355885 
	C92.066673,1.000000 93.133339,1.000000 94.600006,1.000001 
z"/>
<path fill="#2F276D" opacity="1.000000" stroke="none" 
	d="
M95.975723,214.372894 
	C99.798538,214.798447 103.812065,215.511627 107.912796,216.612396 
	C105.629440,217.000000 103.258888,217.000000 100.444168,217.000000 
	C98.722145,216.220169 97.444290,215.440338 95.975723,214.372894 
z"/>
<path fill="#F5F8F9" opacity="1.000000" stroke="none" 
	d="
M129.577148,214.766235 
	C129.752960,215.352432 129.495010,215.897552 129.118530,216.721344 
	C125.969406,217.000000 122.938812,217.000000 119.443275,216.752197 
	C118.978333,216.504395 119.005867,216.009079 119.005867,216.009079 
	C122.385033,215.581100 125.764206,215.153122 129.577148,214.766235 
z"/>
<path fill="#E3EFF8" opacity="1.000000" stroke="none" 
	d="
M2.969834,127.009293 
	C2.532101,127.004234 2.094369,126.999176 1.328318,126.997055 
	C1.000000,123.637901 1.000000,120.275795 1.236685,116.457260 
	C1.473370,116.000824 1.946689,115.993866 2.059221,116.342171 
	C2.437780,120.130081 2.703807,123.569687 2.969834,127.009293 
z"/>
<path fill="#D3E4FF" opacity="1.000000" stroke="none" 
	d="
M1.946689,115.993866 
	C1.946689,115.993866 1.473370,116.000824 1.236685,116.000412 
	C1.000000,110.977905 1.000000,105.955818 1.000000,100.466858 
	C1.343217,101.097961 1.686435,102.195915 2.026347,104.119263 
	C2.110010,108.277016 2.196979,111.609383 2.209494,115.207932 
	C2.072257,115.647369 2.009473,115.820618 1.946689,115.993866 
z"/>
<path fill="#2F276D" opacity="1.000000" stroke="none" 
	d="
M118.739334,215.717926 
	C119.005867,216.009079 118.978333,216.504395 118.989166,216.752197 
	C116.629440,217.000000 114.258888,217.000000 111.444168,217.000000 
	C112.809120,213.237000 115.879562,215.465210 118.739334,215.717926 
z"/>
<path fill="#241C6B" opacity="1.000000" stroke="none" 
	d="
M24.995270,127.977425 
	C30.405865,130.386765 35.816460,132.796097 41.682514,135.572357 
	C43.475292,136.493546 44.812611,137.047821 46.149929,137.602081 
	C46.420731,136.986313 46.691532,136.370544 46.962334,135.754776 
	C45.585613,134.875839 44.208893,133.996902 42.832176,133.117966 
	C42.832172,133.117966 42.943779,133.046890 42.939503,132.701218 
	C42.703869,130.799423 42.472507,129.243301 42.286674,127.993378 
	C47.361618,127.993378 52.177780,127.993378 57.394485,127.995720 
	C58.862511,127.994873 59.929993,127.991692 61.124496,128.285263 
	C61.778133,129.713593 62.304749,130.845154 62.890839,132.326538 
	C62.709579,133.808273 62.468838,134.940186 61.922264,136.241531 
	C61.672626,137.930527 61.728825,139.450089 61.829124,141.376587 
	C61.598591,144.829514 61.323948,147.875534 61.318867,151.238342 
	C71.200363,151.852478 80.812119,152.157104 90.425598,152.391479 
	C90.605125,152.395844 90.804962,151.566956 91.208755,151.045898 
	C91.422180,150.964920 91.878662,150.956741 92.268631,150.969788 
	C93.438866,150.988556 94.219124,150.994278 95.275681,151.234207 
	C96.374657,156.911179 99.115517,160.382202 104.944214,160.933060 
	C105.676994,161.002319 106.316307,162.060593 106.998924,162.660614 
	C105.925949,162.765869 104.852966,162.871140 103.096970,162.649780 
	C100.610008,162.214417 98.806068,162.105698 96.909340,161.601227 
	C95.321701,160.803680 93.832489,160.082001 92.331032,160.055527 
	C85.864586,159.941544 79.394547,160.031509 72.567986,160.080322 
	C67.807487,160.367813 63.404819,160.622192 59.002148,160.876572 
	C58.255665,160.874008 57.509182,160.871429 56.295502,160.422714 
	C55.137802,159.599030 54.439556,158.881516 53.757992,158.897018 
	C47.625378,159.036682 45.163612,155.762650 45.226707,150.011551 
	C45.104656,148.856216 44.982609,147.700897 44.779804,145.781143 
	C36.402710,153.213364 28.402397,160.311295 19.637634,168.087463 
	C16.673670,162.594131 13.455915,157.620117 11.221781,152.237823 
	C8.463217,145.592117 6.522381,138.606979 4.148030,131.043488 
	C3.930836,129.887924 3.793815,129.457382 3.656795,129.026840 
	C3.643563,128.613922 3.630329,128.201004 3.949123,127.534210 
	C10.656363,129.043808 16.960037,128.331924 23.238060,126.732483 
	C23.238060,126.732483 23.084871,126.886559 23.213482,127.094864 
	C23.893152,127.527924 24.444210,127.752678 24.995270,127.977425 
z"/>
<path fill="#221D6A" opacity="1.000000" stroke="none" 
	d="
M192.207565,128.468033 
	C191.436844,134.495422 188.352768,139.131927 182.932922,142.875839 
	C181.524094,143.684753 180.790833,144.388077 180.057556,145.091400 
	C180.057556,145.091385 180.035980,144.998230 179.658997,145.002777 
	C174.527008,147.392151 169.772003,149.777008 165.016983,152.161850 
	C165.016983,152.161850 164.865982,152.339920 164.438477,152.285339 
	C163.676697,152.458618 163.342422,152.686493 163.008148,152.914352 
	C162.755585,153.121292 162.469391,153.257736 161.472656,153.233551 
	C158.541489,153.453369 156.287216,153.763290 153.778168,153.772339 
	C151.821747,152.649002 150.120148,151.826538 148.473114,150.949982 
	C148.527710,150.895889 148.668915,150.844788 149.091400,150.474274 
	C149.440002,146.749252 149.366089,143.394760 149.240112,139.726013 
	C149.421753,138.609390 149.655457,137.807007 150.194244,136.765930 
	C151.018585,132.368637 151.537811,128.210022 152.417755,124.076591 
	C158.816010,127.946144 165.490646,128.479553 172.408829,128.022827 
	C178.353790,127.630333 184.310883,127.398689 190.266357,127.222328 
	C190.900574,127.203552 191.559891,128.032410 192.207565,128.468033 
z"/>
<path fill="#211A6C" opacity="1.000000" stroke="none" 
	d="
M107.330093,162.742981 
	C106.316307,162.060593 105.676994,161.002319 104.944214,160.933060 
	C99.115517,160.382202 96.374657,156.911179 95.275993,150.780121 
	C95.348785,144.665131 95.525772,139.220306 96.096024,133.816971 
	C96.634781,128.712158 99.730583,126.345619 105.220985,125.965950 
	C107.977386,125.775337 110.793533,125.490532 113.426964,124.717751 
	C116.859215,123.710533 118.394745,124.077072 117.147041,128.053513 
	C116.294930,130.769241 115.599251,133.534042 114.833633,136.276901 
	C115.309189,139.206558 114.922821,142.111755 114.948692,145.013275 
	C114.960747,146.364899 115.772133,147.709366 116.307404,149.314575 
	C116.601547,150.054092 116.809471,150.536102 117.009644,151.265350 
	C117.001907,151.512604 117.000916,152.007324 117.007568,152.367706 
	C118.538132,153.546677 120.062050,154.365265 122.609566,155.733688 
	C118.930222,156.907349 115.661194,157.690857 112.636429,159.027252 
	C111.181778,159.669952 110.188133,161.356049 108.985718,162.569656 
	C108.544228,162.654877 108.102745,162.740097 107.330093,162.742981 
z"/>
<path fill="#242571" opacity="1.000000" stroke="none" 
	d="
M192.498596,128.121094 
	C191.559891,128.032410 190.900574,127.203552 190.266357,127.222328 
	C184.310883,127.398689 178.353790,127.630333 172.408829,128.022827 
	C165.490646,128.479553 158.816010,127.946144 152.384705,123.692284 
	C151.984222,122.515900 151.977509,121.748993 151.895111,120.614639 
	C151.922424,119.507149 152.025421,118.767113 152.389923,118.295280 
	C154.197800,119.375885 155.729034,120.856041 157.293015,120.891495 
	C166.895782,121.109215 176.516479,120.733673 186.109314,121.111237 
	C190.985428,121.303146 192.783325,119.697601 192.014557,114.989311 
	C191.909058,114.343254 191.992020,113.666428 192.003479,112.721039 
	C192.029617,112.249695 192.040024,112.061157 192.050446,111.872612 
	C192.296829,117.173119 192.543228,122.473633 192.498596,128.121094 
z"/>
<path fill="#251E68" opacity="1.000000" stroke="none" 
	d="
M109.348625,162.656952 
	C110.188133,161.356049 111.181778,159.669952 112.636429,159.027252 
	C115.661194,157.690857 118.930222,156.907349 122.609566,155.733688 
	C120.062050,154.365265 118.538132,153.546677 117.346237,152.488037 
	C127.647926,152.093796 137.617599,151.939590 147.656219,151.655594 
	C147.956299,151.351898 148.187408,151.177979 148.418533,151.004074 
	C150.120148,151.826538 151.821747,152.649002 153.661377,154.018723 
	C153.534363,155.043747 153.269318,155.521500 153.004272,155.999268 
	C151.898361,156.325317 150.792435,156.651367 149.118256,156.724777 
	C146.683502,157.101334 144.817032,157.730515 142.950546,158.359711 
	C142.525681,158.524368 142.100815,158.689026 141.044891,158.587494 
	C136.601486,159.137802 132.789169,159.954285 128.976837,160.770752 
	C128.233582,160.880173 127.490326,160.989594 126.166214,160.798431 
	C124.374588,160.869537 123.163834,161.241211 121.953072,161.612885 
	C121.519760,161.702530 121.086449,161.792175 120.113266,161.626587 
	C118.716728,161.570419 117.860062,161.769485 117.003387,161.968536 
	C117.003387,161.968536 116.533142,162.135849 115.981453,162.055176 
	C115.227280,162.013763 115.024803,162.053040 114.822334,162.092300 
	C113.118736,162.309601 111.415131,162.526917 109.348625,162.656952 
z"/>
<path fill="#274B90" opacity="1.000000" stroke="none" 
	d="
M182.274185,89.882431 
	C183.925049,92.302422 185.575912,94.722412 186.922958,97.733002 
	C185.744278,99.200607 184.822617,100.879791 184.001724,100.831902 
	C174.671432,100.287537 165.114807,102.934921 156.014694,98.623657 
	C156.007675,97.501358 156.005554,96.753143 156.264633,95.797379 
	C156.685928,94.726044 156.846054,93.862259 157.469589,92.997589 
	C166.146790,92.740646 174.545181,93.927528 182.274185,89.882431 
z"/>
<path fill="#295D9E" opacity="1.000000" stroke="none" 
	d="
M215.749054,81.649734 
	C215.488541,82.105530 214.930328,82.180435 214.907852,82.333847 
	C214.216080,87.053741 212.399567,89.369217 206.754578,89.376411 
	C202.529053,89.381783 198.742676,90.115639 195.178009,87.196465 
	C194.311661,86.487000 192.764816,86.608521 191.288116,86.578995 
	C186.256653,85.224442 181.467941,83.638840 176.291687,81.984192 
	C175.904144,81.915154 175.936218,81.934319 176.039902,81.565308 
	C177.621185,80.906235 179.150375,80.211517 180.567932,80.392311 
	C189.258926,81.500786 197.782608,83.301109 206.664398,80.507294 
	C210.072083,79.435394 212.100357,78.340408 212.891006,75.019257 
	C213.827713,77.114647 214.764404,79.210037 215.749054,81.649734 
z"/>
<path fill="#25377F" opacity="1.000000" stroke="none" 
	d="
M156.003448,96.004921 
	C156.005554,96.753143 156.007675,97.501358 156.006653,99.052437 
	C156.003342,101.570908 156.003128,103.286522 156.002167,105.425568 
	C155.546646,109.667976 157.134171,111.178886 161.061050,111.062859 
	C168.470444,110.843948 175.903030,110.743233 183.302475,111.092140 
	C188.084000,111.317596 189.604782,109.375908 189.005325,104.627518 
	C189.044006,103.757401 189.075516,103.260681 189.107025,102.763962 
	C190.128983,105.532089 191.150955,108.300217 192.111679,111.470474 
	C192.040024,112.061157 192.029617,112.249695 191.615662,112.765640 
	C187.328049,113.728485 183.456955,114.796005 179.557404,114.912659 
	C170.429825,115.185722 161.288589,115.002907 152.149048,114.602058 
	C152.451553,112.437225 152.779968,110.678497 153.059921,108.912086 
	C153.741791,104.609558 154.401169,100.303474 155.303070,96.000763 
	C155.536530,96.002716 156.003448,96.004921 156.003448,96.004921 
z"/>
<path fill="#2B216A" opacity="1.000000" stroke="none" 
	d="
M165.637604,179.784821 
	C161.642624,181.796738 157.399338,184.273804 152.832703,185.751801 
	C146.891464,187.674698 140.752579,189.155701 134.592010,190.192657 
	C125.342079,191.749588 116.031532,193.308884 106.687798,193.851059 
	C95.913322,194.476227 85.072433,194.118820 74.265694,193.911362 
	C71.576233,193.859726 68.907211,192.743118 66.108231,191.779327 
	C85.947563,192.703506 105.981659,193.661133 125.717392,189.906479 
	C139.051376,187.369751 152.080185,183.228973 165.637604,179.784821 
z"/>
<path fill="#2B216A" opacity="1.000000" stroke="none" 
	d="
M63.568069,191.108566 
	C61.398460,191.676559 58.827847,192.365219 56.230782,192.486252 
	C54.844070,192.550858 53.424671,191.316513 51.996059,191.258499 
	C50.738426,191.207413 49.447441,191.977203 48.171181,192.384491 
	C48.823074,193.550934 49.183628,195.146393 50.171886,195.817520 
	C60.171635,202.608353 70.975914,207.654694 82.782539,210.488281 
	C83.891388,210.754395 84.800133,211.854309 85.770058,212.954010 
	C70.771843,210.432434 57.546432,203.706268 45.319786,194.829666 
	C42.645973,192.888458 40.116863,190.747940 36.237110,187.685822 
	C46.094612,188.896927 54.625336,189.945023 63.568069,191.108566 
z"/>
<path fill="#2E5797" opacity="1.000000" stroke="none" 
	d="
M182.188568,89.549759 
	C174.545181,93.927528 166.146790,92.740646 157.466522,92.998199 
	C157.000031,92.999695 157.001099,92.993881 156.964142,92.660156 
	C156.503906,91.846901 156.080643,91.367371 155.616486,90.440933 
	C156.410019,84.000671 157.244415,78.007309 158.344772,72.286072 
	C158.411880,75.371506 158.213013,78.184799 158.009750,81.447609 
	C158.911377,84.332649 155.697418,88.553642 161.191620,89.009010 
	C169.016510,89.657532 171.894943,88.243576 173.202637,82.748642 
	C174.248123,82.306366 175.092163,82.120338 175.936218,81.934319 
	C175.936218,81.934319 175.904144,81.915154 175.888229,81.901543 
	C177.949188,84.330986 180.026062,86.774040 182.188568,89.549759 
z"/>
<path fill="#254289" opacity="1.000000" stroke="none" 
	d="
M189.131042,102.413574 
	C189.075516,103.260681 189.044006,103.757401 188.536880,104.627106 
	C177.375168,105.000771 166.689041,105.001450 156.002930,105.002136 
	C156.003128,103.286522 156.003342,101.570908 156.011566,99.426514 
	C165.114807,102.934921 174.671432,100.287537 184.001724,100.831902 
	C184.822617,100.879791 185.744278,99.200607 186.943420,98.090530 
	C187.896805,99.259377 188.525925,100.661285 189.131042,102.413574 
z"/>
<path fill="#25286F" opacity="1.000000" stroke="none" 
	d="
M23.071579,126.448990 
	C16.960037,128.331924 10.656363,129.043808 3.900476,127.225754 
	C3.519802,127.171173 3.234041,127.126869 3.101937,127.068085 
	C2.703807,123.569687 2.437780,120.130081 2.059221,116.342171 
	C2.009473,115.820618 2.072257,115.647369 2.417657,115.025734 
	C2.920982,114.341377 3.125162,114.085182 3.373127,113.882584 
	C3.441702,113.826561 3.743825,113.898155 3.764396,113.964928 
	C4.186557,115.335289 4.715200,116.690430 4.960378,118.094398 
	C5.667802,122.145363 9.075845,123.433052 12.427504,120.860199 
	C13.288051,120.199623 14.188820,119.591438 15.071108,118.959198 
	C17.682438,121.361290 20.293768,123.763390 23.071579,126.448990 
z"/>
<path fill="#342E64" opacity="1.000000" stroke="none" 
	d="
M214.030243,125.410217 
	C214.838287,125.817848 215.564880,126.631607 216.507706,127.656708 
	C212.389847,139.559204 208.055756,151.250351 203.430511,163.144913 
	C203.549072,161.237640 204.092407,159.140259 204.304657,157.009888 
	C204.393280,156.120422 203.778015,155.160812 203.165070,154.078094 
	C208.821289,145.452133 213.237488,136.365906 214.030243,125.410217 
z"/>
<path fill="#251E68" opacity="1.000000" stroke="none" 
	d="
M72.925812,160.047211 
	C79.394547,160.031509 85.864586,159.941544 92.331032,160.055527 
	C93.832489,160.082001 95.321701,160.803680 96.452927,161.605621 
	C92.394638,162.285812 88.699974,162.565826 85.005310,162.845825 
	C81.314003,162.725006 77.622696,162.604172 73.478348,162.058167 
	C72.992142,161.104401 72.958977,160.575806 72.925812,160.047211 
z"/>
<path fill="#3B366C" opacity="1.000000" stroke="none" 
	d="
M45.096802,150.379501 
	C45.163612,155.762650 47.625378,159.036682 53.757992,158.897018 
	C54.439556,158.881516 55.137802,159.599030 55.935638,160.317200 
	C51.952812,160.165573 47.862652,159.673325 43.220970,159.114685 
	C43.856609,156.068420 44.411751,153.407944 45.096802,150.379501 
z"/>
<path fill="#3B366C" opacity="1.000000" stroke="none" 
	d="
M165.401047,152.156342 
	C169.772003,149.777008 174.527008,147.392151 179.687958,145.040817 
	C175.324295,147.433167 170.554703,149.792007 165.401047,152.156342 
z"/>
<path fill="#3B366C" opacity="1.000000" stroke="none" 
	d="
M72.567986,160.080338 
	C72.958977,160.575806 72.992142,161.104401 73.048370,161.897614 
	C68.633377,161.839630 64.195328,161.517029 59.379707,161.035507 
	C63.404819,160.622192 67.807487,160.367813 72.567986,160.080338 
z"/>
<path fill="#342E64" opacity="1.000000" stroke="none" 
	d="
M201.700195,155.145905 
	C201.943329,160.109451 198.171539,161.962219 193.947998,163.612656 
	C196.176147,160.743484 198.787399,158.016495 201.700195,155.145905 
z"/>
<path fill="#3B366C" opacity="1.000000" stroke="none" 
	d="
M85.459946,162.964508 
	C88.699974,162.565826 92.394638,162.285812 96.545715,162.001404 
	C98.806068,162.105698 100.610008,162.214417 102.696930,162.575012 
	C97.291473,162.912323 91.603027,162.997757 85.459946,162.964508 
z"/>
<path fill="#3B366C" opacity="1.000000" stroke="none" 
	d="
M129.385117,160.827087 
	C132.789169,159.954285 136.601486,159.137802 140.698456,158.562042 
	C137.253204,159.496307 133.523300,160.189850 129.385117,160.827087 
z"/>
<path fill="#342E64" opacity="1.000000" stroke="none" 
	d="
M183.607376,170.929474 
	C183.431824,174.671112 180.494186,174.775772 177.219620,174.951996 
	C178.967117,173.617279 181.116791,172.311005 183.607376,170.929474 
z"/>
<path fill="#3B366C" opacity="1.000000" stroke="none" 
	d="
M153.388519,156.026794 
	C153.269318,155.521500 153.534363,155.043747 153.916183,154.319595 
	C156.287216,153.763290 158.541489,153.453369 161.233047,153.230499 
	C159.037827,154.229813 156.405304,155.142075 153.388519,156.026794 
z"/>
<path fill="#2C3D7F" opacity="1.000000" stroke="none" 
	d="
M209.010742,104.355171 
	C209.927002,105.513451 210.896240,107.006409 211.758606,108.899460 
	C210.789047,107.762985 209.926376,106.226425 209.010742,104.355171 
z"/>
<path fill="#3B366C" opacity="1.000000" stroke="none" 
	d="
M143.298904,158.391052 
	C144.817032,157.730515 146.683502,157.101334 148.769669,156.713409 
	C147.208649,157.443924 145.427963,157.933167 143.298904,158.391052 
z"/>
<path fill="#342E64" opacity="1.000000" stroke="none" 
	d="
M190.578079,165.922974 
	C189.792175,166.887665 188.686981,167.925476 187.199463,168.945862 
	C187.964355,167.951004 189.111572,166.973541 190.578079,165.922974 
z"/>
<path fill="#3B366C" opacity="1.000000" stroke="none" 
	d="
M122.295578,161.692825 
	C123.163834,161.241211 124.374588,160.869537 125.791931,160.749710 
	C124.878365,161.258636 123.758224,161.515701 122.295578,161.692825 
z"/>
<path fill="#342E64" opacity="1.000000" stroke="none" 
	d="
M193.211746,163.687836 
	C192.864594,164.352356 192.250717,165.149841 191.245239,165.918030 
	C191.550781,165.199417 192.247894,164.510101 193.211746,163.687836 
z"/>
<path fill="#3B366C" opacity="1.000000" stroke="none" 
	d="
M180.371475,145.070526 
	C180.790833,144.388077 181.524094,143.684753 182.611313,142.984909 
	C182.205307,143.675476 181.445343,144.362564 180.371475,145.070526 
z"/>
<path fill="#2B216A" opacity="1.000000" stroke="none" 
	d="
M169.669235,178.074097 
	C169.042404,178.662796 168.066818,179.271255 166.682281,179.806427 
	C167.289047,179.186722 168.304764,178.640289 169.669235,178.074097 
z"/>
<path fill="#2B216A" opacity="1.000000" stroke="none" 
	d="
M88.001068,213.004807 
	C88.915627,213.253281 89.830185,213.501740 90.910828,214.080780 
	C90.298538,214.321106 89.520164,214.230865 88.372635,213.787949 
	C88.003487,213.435272 88.001068,213.004807 88.001068,213.004807 
z"/>
<path fill="#2F276D" opacity="1.000000" stroke="none" 
	d="
M91.586067,214.544449 
	C92.302818,214.212418 93.318901,214.136459 94.841949,214.099197 
	C94.194405,214.358780 93.039902,214.579651 91.586067,214.544449 
z"/>
<path fill="#3B366C" opacity="1.000000" stroke="none" 
	d="
M117.376968,162.033646 
	C117.860062,161.769485 118.716728,161.570419 119.781830,161.581543 
	C119.243698,161.894073 118.497124,161.996414 117.376968,162.033646 
z"/>
<path fill="#363668" opacity="1.000000" stroke="none" 
	d="
M212.617950,109.082870 
	C212.961823,109.929398 212.944290,110.843254 212.881622,112.216492 
	C212.437622,111.816994 212.038773,110.958107 211.599396,109.740723 
	C211.791443,109.304893 212.023987,109.227547 212.617950,109.082870 
z"/>
<path fill="#2F276D" opacity="1.000000" stroke="none" 
	d="
M87.622269,213.011215 
	C88.001068,213.004807 88.003487,213.435272 88.003769,213.650513 
	C87.400612,213.823059 86.797165,213.780365 85.976364,213.522003 
	C86.253838,213.210098 86.748657,213.113861 87.622269,213.011215 
z"/>
<path fill="#2C3D7F" opacity="1.000000" stroke="none" 
	d="
M207.853271,102.356888 
	C208.177185,102.512901 208.550095,102.966400 208.948669,103.734261 
	C208.616959,103.583878 208.259613,103.119125 207.853271,102.356888 
z"/>
<path fill="#E3EFF8" opacity="1.000000" stroke="none" 
	d="
M3.480784,129.206589 
	C3.793815,129.457382 3.930836,129.887924 4.021484,130.657562 
	C3.751666,130.459900 3.528220,129.923111 3.480784,129.206589 
z"/>
<path fill="#3B366C" opacity="1.000000" stroke="none" 
	d="
M163.317734,152.944687 
	C163.342422,152.686493 163.676697,152.458618 164.322357,152.273163 
	C164.298294,152.535400 163.962814,152.755219 163.317734,152.944687 
z"/>
<path fill="#3B366C" opacity="1.000000" stroke="none" 
	d="
M114.960678,162.198166 
	C115.024803,162.053040 115.227280,162.013763 115.737900,162.000732 
	C115.730362,162.119308 115.414688,162.211670 114.960678,162.198166 
z"/>
<path fill="#2D7AB4" opacity="1.000000" stroke="none" 
	d="
M173.221985,58.882183 
	C173.221985,58.882183 173.632416,58.944992 173.816132,59.434010 
	C173.630386,65.182137 170.474869,67.686569 165.301804,66.896736 
	C162.909119,66.531433 160.498199,66.285545 157.619476,65.993607 
	C147.097748,66.002838 137.052124,66.003960 126.774139,65.747604 
	C118.677994,65.739540 110.814186,65.988953 102.846992,66.182785 
	C102.743599,66.127197 102.536049,66.017464 102.391983,66.048508 
	C102.247925,66.079552 102.019371,65.893440 102.022308,65.659927 
	C102.025253,65.426422 102.002907,64.959908 101.704193,64.674545 
	C94.871185,63.924969 88.340744,63.389481 81.800430,63.036987 
	C79.645317,62.920830 77.733093,62.938671 78.427147,59.986542 
	C84.914162,59.303017 91.007835,58.795555 97.035995,57.864090 
	C99.445580,57.491760 101.710686,56.184467 104.041557,55.302773 
	C105.746696,55.184418 107.451843,55.066067 109.885208,55.290413 
	C119.997917,55.749039 129.382370,55.935081 138.766937,55.940845 
	C141.831131,55.942726 144.895630,55.475109 147.959991,55.222214 
	C149.370667,55.265617 150.781342,55.309017 152.727524,55.807716 
	C155.167755,56.234997 157.072479,56.206970 158.977203,56.178944 
	C159.736847,56.229321 160.496475,56.279697 161.738739,56.780571 
	C163.807770,57.214622 165.394165,57.198181 166.980576,57.181740 
	C167.423401,57.161091 167.866211,57.140442 168.737640,57.557224 
	C170.518143,58.290497 171.870071,58.586338 173.221985,58.882183 
M149.340134,64.998474 
	C151.498383,64.998474 153.656631,64.998474 155.814880,64.998474 
	C155.803329,64.748558 155.791779,64.498634 155.780228,64.248718 
	C147.531113,64.248718 139.282013,64.248718 131.032898,64.248718 
	C131.031174,64.498634 131.029465,64.748558 131.027740,64.998474 
	C136.813248,64.998474 142.598770,64.998474 149.340134,64.998474 
z"/>
<path fill="#2B66A5" opacity="1.000000" stroke="none" 
	d="
M158.014145,80.998100 
	C158.213013,78.184799 158.411880,75.371506 158.260971,71.940231 
	C158.002686,70.862305 158.094162,70.402344 158.394775,69.779190 
	C158.755066,69.115448 158.906235,68.614922 159.421600,68.086113 
	C161.279968,68.953186 162.891922,69.699631 164.246536,70.771378 
	C168.568253,74.190620 171.350830,73.734909 173.897827,69.028069 
	C174.123062,69.903572 174.348282,70.779076 174.740494,72.303635 
	C177.480133,69.889160 179.763596,67.876732 182.423004,66.167572 
	C181.841675,68.354347 180.884384,70.237862 179.384705,73.188576 
	C190.325851,72.178406 200.110733,75.719086 209.627563,71.804245 
	C209.062988,69.216240 208.578537,66.995583 208.094086,64.774925 
	C209.692032,67.941772 211.289963,71.108620 212.889450,74.647362 
	C212.100357,78.340408 210.072083,79.435394 206.664398,80.507294 
	C197.782608,83.301109 189.258926,81.500786 180.567932,80.392311 
	C179.150375,80.211517 177.621185,80.906235 176.039902,81.565308 
	C175.092163,82.120338 174.248123,82.306366 172.840851,82.783272 
	C167.523132,82.382133 162.768631,81.690117 158.014145,80.998100 
z"/>
<path fill="#3BA1CF" opacity="1.000000" stroke="none" 
	d="
M166.548431,24.993370 
	C170.236435,25.138229 173.375732,25.195875 171.520599,20.118401 
	C175.307953,22.861712 178.848740,25.874809 183.224869,29.598742 
	C180.910797,29.827787 179.952271,29.922663 178.993744,30.017536 
	C178.993744,30.017536 178.999237,29.997784 178.844452,29.752079 
	C178.141403,29.414175 177.593140,29.321974 177.044891,29.229774 
	C175.963608,29.161243 174.882339,29.092714 173.120560,28.742226 
	C158.291809,27.376135 144.143555,26.292002 129.995300,25.207867 
	C129.540039,25.168119 129.084763,25.128372 127.834808,25.069683 
	C118.431808,25.469549 109.694008,25.100378 101.245079,26.488918 
	C88.047470,28.657883 75.045555,32.017506 61.688419,34.614559 
	C58.532749,34.766056 55.544239,34.826569 52.787560,35.656811 
	C46.758335,37.472656 41.485622,36.214844 36.521961,33.149002 
	C37.794811,30.732368 38.829960,28.767038 39.865108,26.801708 
	C39.865108,26.801708 39.940208,26.879242 40.166100,26.803221 
	C40.624084,26.421690 40.856178,26.116180 41.088272,25.810673 
	C45.845863,22.331810 50.603455,18.852951 55.696224,15.342201 
	C56.018288,15.980336 56.005173,16.650360 55.636101,17.693459 
	C52.191689,20.244497 48.995663,22.290751 46.075916,24.675293 
	C45.116074,25.459194 44.871799,27.119272 44.300312,28.378695 
	C45.579262,28.625017 46.869350,29.126566 48.135136,29.071306 
	C52.476479,28.881779 57.362347,27.085030 61.016346,28.516184 
	C66.561447,30.688030 71.508263,29.093344 76.569519,28.502174 
	C85.861465,27.416851 95.016838,24.685764 104.310486,24.201427 
	C118.831352,23.444674 133.419968,23.987795 148.383392,23.986904 
	C149.862473,23.990025 150.938034,23.986439 152.013596,23.982855 
	C156.707718,24.320396 161.401840,24.657936 166.548431,24.993370 
z"/>
<path fill="#285E9F" opacity="1.000000" stroke="none" 
	d="
M31.893320,79.945084 
	C31.835598,79.598694 31.935007,79.305595 32.704170,78.899872 
	C33.411789,78.401680 33.606781,78.069389 33.801773,77.737106 
	C33.801773,77.737106 33.837055,77.864418 34.065460,77.780594 
	C34.455971,77.374969 34.618080,77.053162 34.780190,76.731361 
	C34.780190,76.731361 34.821056,76.983543 35.274349,76.946877 
	C45.713371,76.915436 55.699905,76.979057 65.683670,76.841621 
	C66.761932,76.826775 67.824135,75.646088 68.952072,75.449905 
	C68.956757,78.263313 68.903168,80.632996 68.505585,83.075027 
	C66.230568,87.268578 63.011570,88.527908 58.562351,88.064255 
	C52.801517,87.463913 46.995449,87.169113 41.202229,87.039978 
	C33.603825,86.870598 33.095802,86.612442 31.893320,79.945084 
z"/>
<path fill="#275495" opacity="1.000000" stroke="none" 
	d="
M31.614536,80.154297 
	C33.095802,86.612442 33.603825,86.870598 41.202229,87.039978 
	C46.995449,87.169113 52.801517,87.463913 58.562351,88.064255 
	C63.011570,88.527908 66.230568,87.268578 68.557304,83.486343 
	C68.342163,86.899101 67.731300,89.972900 66.689926,93.040512 
	C59.879391,93.347382 53.501934,93.806618 47.118382,93.918648 
	C43.290752,93.985832 39.455410,93.382469 35.620041,93.328476 
	C33.417103,93.297470 31.207190,93.761902 28.685333,94.001709 
	C27.950214,93.994286 27.530182,93.988480 27.110149,93.982674 
	C28.518684,89.442955 29.927217,84.903236 31.614536,80.154297 
z"/>
<path fill="#243C83" opacity="1.000000" stroke="none" 
	d="
M29.016056,110.982979 
	C29.016058,110.982979 28.795006,110.786491 28.861435,110.201187 
	C28.946613,108.425537 28.965363,107.235191 29.274715,105.741615 
	C38.922592,105.292320 48.285431,105.286163 57.633739,104.914543 
	C60.420055,104.803772 63.165646,103.668610 66.098755,103.380325 
	C66.048157,105.884941 65.828690,108.012032 65.215698,110.203247 
	C56.624371,115.057060 47.758331,112.975739 39.166729,112.366219 
	C35.962818,112.138924 33.752766,112.287186 31.878784,114.676971 
	C30.829567,113.237404 29.922812,112.110191 29.016056,110.982979 
z"/>
<path fill="#F3FCFD" opacity="1.000000" stroke="none" 
	d="
M61.960724,34.872673 
	C75.045555,32.017506 88.047470,28.657883 101.245079,26.488918 
	C109.694008,25.100378 118.431808,25.469549 127.496788,25.136759 
	C126.112892,25.814909 124.306725,26.751455 122.425758,26.939428 
	C114.370689,27.744406 106.116867,27.506912 98.267677,29.194462 
	C87.630531,31.481409 76.777832,32.226128 66.293304,36.262691 
	C56.328247,40.099251 46.399822,43.759109 37.189415,49.146435 
	C34.365944,50.797932 32.015347,53.238922 29.305870,55.112545 
	C28.023396,55.999390 26.405678,56.401440 24.690521,56.732162 
	C28.660070,52.987823 32.878948,49.534443 37.076698,46.058998 
	C37.055569,46.036930 37.035141,46.092724 37.296909,46.025181 
	C37.735867,45.649727 37.913055,45.341820 38.054604,45.024418 
	C38.018959,45.014927 38.031483,45.087627 38.298733,45.011665 
	C38.783375,44.646187 39.000771,44.356663 39.552135,44.093468 
	C40.948524,43.457424 42.010941,42.795055 43.452522,42.117973 
	C49.874702,39.693066 55.917713,37.282867 61.960724,34.872673 
z"/>
<path fill="#2A6EA9" opacity="1.000000" stroke="none" 
	d="
M208.107315,64.476837 
	C208.578537,66.995583 209.062988,69.216240 209.627563,71.804245 
	C200.110733,75.719086 190.325851,72.178406 179.384705,73.188576 
	C180.884384,70.237862 181.841675,68.354347 182.759399,66.105225 
	C182.719833,65.739616 182.731216,65.723335 183.097809,65.768074 
	C183.956192,65.122231 184.447998,64.431648 184.939804,63.741074 
	C185.022552,63.594589 185.105286,63.448105 185.553925,63.585617 
	C186.527969,65.369553 187.136124,66.869492 187.744278,68.369431 
	C188.276413,67.460823 188.808533,66.552216 189.340668,65.643608 
	C191.203522,65.050934 193.196991,63.711723 194.903915,64.010353 
	C199.406067,64.798004 203.721451,65.350243 207.914230,63.009312 
	C207.983002,63.399124 208.051773,63.788937 208.107315,64.476837 
z"/>
<path fill="#254489" opacity="1.000000" stroke="none" 
	d="
M65.929893,103.002808 
	C63.165646,103.668610 60.420055,104.803772 57.633739,104.914543 
	C48.285431,105.286163 38.922592,105.292320 28.975513,105.731628 
	C27.986155,106.022964 27.586597,106.021065 27.187042,106.019165 
	C27.083235,102.307854 26.979425,98.596550 26.992882,94.433960 
	C27.530182,93.988480 27.950214,93.994286 28.685263,94.433716 
	C29.000278,96.773727 29.000278,98.680107 29.000278,100.890457 
	C41.824039,97.391457 54.069965,99.617638 66.154633,99.449814 
	C66.049820,100.896271 65.989853,101.949539 65.929893,103.002808 
z"/>
<path fill="#2F69A8" opacity="1.000000" stroke="none" 
	d="
M68.893784,75.006187 
	C67.824135,75.646088 66.761932,76.826775 65.683670,76.841621 
	C55.699905,76.979057 45.713371,76.915436 35.244530,76.820572 
	C40.106556,73.435226 45.451694,70.139511 51.441929,66.813576 
	C52.393227,66.544670 52.699429,66.306000 53.005634,66.067329 
	C53.304409,65.903595 53.603184,65.739868 54.539700,65.699631 
	C55.445107,65.878990 55.712769,65.934853 55.987587,66.387497 
	C57.022900,68.690170 57.693138,71.755478 59.168999,72.211082 
	C61.051506,72.792229 63.595291,71.299210 65.834511,70.634438 
	C67.484543,70.144554 69.103256,69.549232 70.783897,69.358017 
	C70.185837,71.478813 69.539810,73.242500 68.893784,75.006187 
z"/>
<path fill="#377EB2" opacity="1.000000" stroke="none" 
	d="
M207.944122,62.648018 
	C203.721451,65.350243 199.406067,64.798004 194.903915,64.010353 
	C193.196991,63.711723 191.203522,65.050934 189.340668,65.643608 
	C188.808533,66.552216 188.276413,67.460823 187.744278,68.369431 
	C187.136124,66.869492 186.527969,65.369553 185.785049,63.484295 
	C190.447418,58.642994 195.244537,54.187016 200.803085,49.023766 
	C203.390335,53.808994 205.682190,58.047859 207.944122,62.648018 
z"/>
<path fill="#3074AE" opacity="1.000000" stroke="none" 
	d="
M70.735931,69.000893 
	C69.103256,69.549232 67.484543,70.144554 65.834511,70.634438 
	C63.595291,71.299210 61.051506,72.792229 59.168999,72.211082 
	C57.693138,71.755478 57.022900,68.690170 55.996216,66.389847 
	C55.997681,65.995407 55.996037,65.982033 56.191414,65.908218 
	C56.640362,65.693718 56.815796,65.486809 57.225845,65.139160 
	C58.012283,64.675201 58.485985,64.285767 58.959686,63.896347 
	C59.457905,63.662773 59.956123,63.429199 60.921524,63.401955 
	C61.921169,63.330395 62.453632,63.052494 62.986095,62.774597 
	C62.986095,62.774593 63.189709,62.615482 63.754883,62.746407 
	C68.882545,61.915718 73.445038,60.954102 78.007523,59.992489 
	C77.733093,62.938671 79.645317,62.920830 81.800430,63.036987 
	C88.340744,63.389481 94.871185,63.924969 101.235764,64.683250 
	C95.054420,65.242714 89.042801,65.508102 82.584900,65.855263 
	C79.423325,65.884743 76.708038,65.832451 73.901276,65.635147 
	C73.543617,65.588394 73.277428,65.686646 72.670151,65.904800 
	C71.798019,67.016769 71.266975,68.008827 70.735931,69.000893 
z"/>
<path fill="#2B3579" opacity="1.000000" stroke="none" 
	d="
M14.997574,118.614716 
	C14.188820,119.591438 13.288051,120.199623 12.427504,120.860199 
	C9.075845,123.433052 5.667802,122.145363 4.960378,118.094398 
	C4.715200,116.690430 4.186557,115.335289 3.764396,113.964928 
	C3.743825,113.898155 3.441702,113.826561 3.373127,113.882584 
	C3.125162,114.085182 2.920982,114.341377 2.492110,114.759537 
	C2.196979,111.609383 2.110010,108.277016 2.095145,104.495094 
	C3.177754,106.458321 4.645306,107.724632 7.627083,106.041840 
	C10.295501,110.091942 12.609769,114.181091 14.997574,118.614716 
z"/>
<path fill="#3A88BA" opacity="1.000000" stroke="none" 
	d="
M37.097824,46.081062 
	C32.878948,49.534443 28.660070,52.987823 24.319168,56.743568 
	C23.888994,57.249008 23.580845,57.452072 22.980541,57.890598 
	C22.688387,58.126060 22.321812,58.105270 22.035038,58.177788 
	C21.534864,58.567295 21.321463,58.884281 21.123966,59.150871 
	C21.139872,59.100475 21.220760,59.168507 20.858650,59.158562 
	C20.088589,59.868069 19.680639,60.587517 19.272690,61.306969 
	C19.272690,61.306969 19.073084,61.196537 18.819168,61.121983 
	C17.393562,60.684090 16.221876,60.320751 15.029018,59.558739 
	C14.961406,58.628242 14.914961,58.096424 14.868516,57.564602 
	C14.868516,57.564602 14.870275,57.239819 15.335379,57.082359 
	C17.204512,54.292385 18.608541,51.659870 20.012571,49.027359 
	C20.003521,48.683479 20.122509,48.391842 20.948383,48.063675 
	C22.015682,47.980701 22.504129,47.986496 23.064655,48.357616 
	C24.962723,48.787003 26.870182,49.217113 28.596415,48.832932 
	C31.490995,48.188732 34.270115,47.025742 37.097824,46.081062 
z"/>
<path fill="#25266C" opacity="1.000000" stroke="none" 
	d="
M29.001057,111.360825 
	C29.922812,112.110191 30.829567,113.237404 32.007393,114.989944 
	C33.852612,117.742638 35.426762,119.870003 37.055252,122.390091 
	C38.566795,123.521713 39.981735,124.774162 41.489536,124.898262 
	C45.239807,125.206909 49.063225,124.724167 52.792789,125.138992 
	C54.280594,125.304466 55.598625,126.996353 56.993942,127.993378 
	C52.177780,127.993378 47.361618,127.993378 42.286674,127.993378 
	C42.472507,129.243301 42.703869,130.799423 42.906002,132.758270 
	C36.297108,127.284279 31.516573,120.240952 29.001057,111.360825 
z"/>
<path fill="#2E71A9" opacity="1.000000" stroke="none" 
	d="
M174.110352,68.689026 
	C171.350830,73.734909 168.568253,74.190620 164.246536,70.771378 
	C162.891922,69.699631 161.279968,68.953186 159.265030,68.044411 
	C158.744263,68.030983 158.422333,68.009293 158.333405,67.678444 
	C158.194824,66.893570 158.145187,66.439537 158.095551,65.985512 
	C160.498199,66.285545 162.909119,66.531433 165.301804,66.896736 
	C170.474869,67.686569 173.630386,65.182137 174.002228,59.526047 
	C174.757935,59.933083 176.224945,60.830509 176.134171,61.524036 
	C175.831192,63.838722 174.970123,66.080360 174.110352,68.689026 
z"/>
<path fill="#F3FCFD" opacity="1.000000" stroke="none" 
	d="
M130.109009,25.585033 
	C144.143555,26.292002 158.291809,27.376135 172.712921,28.751102 
	C168.814011,29.021212 164.631393,29.185726 160.472702,28.941969 
	C151.250854,28.401443 142.039215,27.679001 132.829147,26.957542 
	C131.939804,26.887875 131.090561,26.306198 130.109009,25.585033 
z"/>
<path fill="#4E89B0" opacity="1.000000" stroke="none" 
	d="
M147.548615,55.095268 
	C144.895630,55.475109 141.831131,55.942726 138.766937,55.940845 
	C129.382370,55.935081 119.997917,55.749039 110.309792,55.350006 
	C122.383186,55.034046 134.760208,55.001183 147.548615,55.095268 
z"/>
<path fill="#4E89B0" opacity="1.000000" stroke="none" 
	d="
M78.427147,59.986542 
	C73.445038,60.954102 68.882545,61.915718 63.875427,62.792923 
	C73.722252,60.490688 83.999626,58.203854 94.314178,56.099194 
	C97.218307,55.506618 100.231468,55.448360 103.618088,55.223900 
	C101.710686,56.184467 99.445580,57.491760 97.035995,57.864090 
	C91.007835,58.795555 84.914162,59.303017 78.427147,59.986542 
z"/>
<path fill="#F3FCFD" opacity="1.000000" stroke="none" 
	d="
M179.035538,30.370918 
	C179.952271,29.922663 180.910797,29.827787 183.224869,29.598742 
	C178.848740,25.874809 175.307953,22.861712 171.434341,19.730804 
	C170.423462,18.957781 169.745407,18.302561 168.970093,17.376709 
	C170.783081,17.772394 173.002045,18.027403 174.543762,19.184647 
	C178.638123,22.257954 182.440201,25.720621 187.170456,29.713835 
	C183.574203,31.101851 181.943924,35.634880 179.035538,30.370918 
z"/>
<path fill="#487BA5" opacity="1.000000" stroke="none" 
	d="
M7.157966,73.993439 
	C8.868221,70.028786 10.578477,66.064133 12.580420,62.250557 
	C12.697432,64.315872 10.504302,67.135071 14.928183,66.987602 
	C14.928183,66.987602 14.959241,67.463768 14.766582,67.805542 
	C14.295034,68.348564 14.194356,68.616692 14.271886,68.951714 
	C13.836891,69.610771 13.401896,70.269821 12.686357,71.412689 
	C12.281123,72.265144 12.156433,72.633781 12.031741,73.002426 
	C11.275084,74.297279 10.518427,75.592140 9.465014,77.267761 
	C8.255016,77.683266 7.341775,77.717995 6.428535,77.752716 
	C6.499431,77.425240 6.524858,77.094269 6.783087,76.555664 
	C7.093561,75.565491 7.125763,74.779465 7.157966,73.993439 
z"/>
<path fill="#F3FCFD" opacity="1.000000" stroke="none" 
	d="
M6.152933,77.894226 
	C7.341775,77.717995 8.255016,77.683266 9.509427,77.598457 
	C8.889282,84.159332 7.927968,90.770294 6.926274,97.855362 
	C6.690227,98.037582 6.494559,97.745689 6.225786,96.925064 
	C5.993306,96.039291 5.833931,95.682274 5.674556,95.325249 
	C5.807758,94.845627 5.940959,94.365997 6.095483,93.219902 
	C6.466741,89.592415 6.975304,86.637512 7.089786,83.667427 
	C7.136629,82.452148 6.331285,81.204010 5.913622,79.970825 
	C5.901525,79.325798 5.889428,78.680771 6.152933,77.894226 
z"/>
<path fill="#427EA8" opacity="1.000000" stroke="none" 
	d="
M15.167511,66.816879 
	C10.504302,67.135071 12.697432,64.315872 12.846640,62.010040 
	C12.821172,61.618450 12.827896,61.266602 13.239542,61.109177 
	C14.117521,60.620304 14.583854,60.288857 15.050186,59.957413 
	C16.221876,60.320751 17.393562,60.684090 18.929743,61.149956 
	C19.278822,61.592625 19.181244,61.907299 18.693756,62.571922 
	C18.215572,63.281612 18.045132,63.615891 17.874691,63.950165 
	C17.874689,63.950165 17.955706,63.955627 17.704868,64.015358 
	C17.319317,64.387230 17.184605,64.699379 17.049894,65.011520 
	C16.502211,65.556396 15.954524,66.101273 15.167511,66.816879 
z"/>
<path fill="#F3FCFD" opacity="1.000000" stroke="none" 
	d="
M168.900635,16.780590 
	C165.359756,15.315572 161.823715,13.483452 158.091553,11.370186 
	C162.577087,10.771959 166.590836,11.835997 168.900635,16.780590 
z"/>
<path fill="#25266C" opacity="1.000000" stroke="none" 
	d="
M42.904022,133.455841 
	C44.208893,133.996902 45.585613,134.875839 46.962334,135.754776 
	C46.691532,136.370544 46.420731,136.986313 46.149929,137.602081 
	C44.812611,137.047821 43.475292,136.493546 42.067478,135.623581 
	C42.323277,134.803146 42.649570,134.298431 42.904022,133.455841 
z"/>
<path fill="#4E89B0" opacity="1.000000" stroke="none" 
	d="
M158.612579,56.053982 
	C157.072479,56.206970 155.167755,56.234997 153.118042,55.973553 
	C154.731354,55.765732 156.489670,55.847374 158.612579,56.053982 
z"/>
<path fill="#4E89B0" opacity="1.000000" stroke="none" 
	d="
M173.066376,58.570656 
	C171.870071,58.586338 170.518143,58.290497 169.057434,57.653114 
	C170.269348,57.627426 171.590057,57.943275 173.066376,58.570656 
z"/>
<path fill="#4E89B0" opacity="1.000000" stroke="none" 
	d="
M166.627716,57.068405 
	C165.394165,57.198181 163.807770,57.214622 162.082718,56.949745 
	C163.387665,56.763973 164.831253,56.859520 166.627716,57.068405 
z"/>
<path fill="#F3FCFD" opacity="1.000000" stroke="none" 
	d="
M157.878448,10.747419 
	C156.650909,10.638362 155.386948,10.139817 153.885254,9.386477 
	C155.045685,9.540430 156.443848,9.949182 157.878448,10.747419 
z"/>
<path fill="#F3FCFD" opacity="1.000000" stroke="none" 
	d="
M22.321812,58.105270 
	C22.321812,58.105270 22.688387,58.126060 22.870407,58.150101 
	C22.463110,59.064159 21.873789,59.954178 21.036346,60.544754 
	C20.932404,59.886375 21.076582,59.527443 21.220760,59.168507 
	C21.220760,59.168507 21.139872,59.100475 21.395115,59.056557 
	C21.874176,58.710182 22.097994,58.407726 22.321812,58.105270 
z"/>
<path fill="#25266C" opacity="1.000000" stroke="none" 
	d="
M27.195574,106.368500 
	C27.586597,106.021065 27.986155,106.022964 28.684912,106.034866 
	C28.965363,107.235191 28.946613,108.425537 28.927391,110.068832 
	C28.352646,109.253799 27.778376,107.985809 27.195574,106.368500 
z"/>
<path fill="#468AB1" opacity="1.000000" stroke="none" 
	d="
M20.858650,59.158562 
	C21.076582,59.527443 20.932404,59.886375 20.671360,60.513760 
	C20.255024,60.875637 19.978357,61.014503 19.498594,61.252888 
	C19.680639,60.587517 20.088589,59.868069 20.858650,59.158562 
z"/>
<path fill="#377EB2" opacity="1.000000" stroke="none" 
	d="
M184.639679,63.822525 
	C184.447998,64.431648 183.956192,65.122231 183.103775,65.759850 
	C183.275299,65.105919 183.807419,64.504944 184.639679,63.822525 
z"/>
<path fill="#4E89B0" opacity="1.000000" stroke="none" 
	d="
M58.631027,63.881439 
	C58.485985,64.285767 58.012283,64.675201 57.053825,65.123886 
	C56.569069,65.183144 56.228233,65.249474 56.161999,65.177704 
	C56.095764,65.105927 55.962879,64.962761 55.962883,64.962769 
	C56.742710,64.597359 57.522537,64.231941 58.631027,63.881439 
z"/>
<path fill="#F3FCFD" opacity="1.000000" stroke="none" 
	d="
M177.227249,29.433002 
	C177.593140,29.321974 178.141403,29.414175 178.835175,29.757336 
	C178.457001,29.884274 177.933304,29.760252 177.227249,29.433002 
z"/>
<path fill="#25286F" opacity="1.000000" stroke="none" 
	d="
M24.851357,127.726456 
	C24.444210,127.752678 23.893152,127.527924 23.265972,126.999756 
	C23.695719,126.956047 24.201582,127.215767 24.851357,127.726456 
z"/>
<path fill="#4E89B0" opacity="1.000000" stroke="none" 
	d="
M62.642799,62.766556 
	C62.453632,63.052494 61.921169,63.330395 61.203453,63.415482 
	C61.445301,63.067951 61.872402,62.913231 62.642799,62.766556 
z"/>
<path fill="#3D5487" opacity="1.000000" stroke="none" 
	d="
M6.961921,101.740768 
	C6.784783,101.738380 6.649014,101.481979 6.652656,101.121475 
	C6.862475,101.173828 6.932882,101.330292 6.961921,101.740768 
z"/>
<path fill="#4E89B0" opacity="1.000000" stroke="none" 
	d="
M52.710167,66.054825 
	C52.699429,66.306000 52.393227,66.544670 51.785049,66.751312 
	C51.793621,66.493622 52.104160,66.267975 52.710167,66.054825 
z"/>
<path fill="#F3FCFD" opacity="1.000000" stroke="none" 
	d="
M17.266262,64.882988 
	C17.184605,64.699379 17.319317,64.387230 17.696342,63.975662 
	C17.786648,64.168976 17.634642,64.461716 17.266262,64.882988 
z"/>
<path fill="#4E89B0" opacity="1.000000" stroke="none" 
	d="
M55.989056,65.993057 
	C55.712769,65.934853 55.445107,65.878990 54.794678,65.669701 
	C54.739410,65.340950 55.066910,65.165627 55.678642,64.976532 
	C55.962879,64.962761 56.095764,65.105927 56.076164,65.351608 
	C56.056564,65.597298 55.996037,65.982033 55.996037,65.982033 
	C55.996037,65.982033 55.997681,65.995407 55.989056,65.993057 
z"/>
<path fill="#F3FCFD" opacity="1.000000" stroke="none" 
	d="
M18.137806,63.826965 
	C18.045132,63.615891 18.215572,63.281612 18.642645,62.816597 
	C18.733156,63.025158 18.567038,63.364464 18.137806,63.826965 
z"/>
<path fill="#2F69A8" opacity="1.000000" stroke="none" 
	d="
M33.526215,77.822464 
	C33.606781,78.069389 33.411789,78.401680 32.921349,78.796959 
	C32.834152,78.542580 33.042404,78.225204 33.526215,77.822464 
z"/>
<path fill="#F3FCFD" opacity="1.000000" stroke="none" 
	d="
M14.445395,68.827744 
	C14.194356,68.616692 14.295034,68.348564 14.775829,68.043961 
	C14.941708,68.234306 14.822097,68.488708 14.445395,68.827744 
z"/>
<path fill="#F3FCFD" opacity="1.000000" stroke="none" 
	d="
M12.273286,72.825821 
	C12.156433,72.633781 12.281123,72.265144 12.640221,71.710258 
	C12.754696,71.899086 12.634763,72.274155 12.273286,72.825821 
z"/>
<path fill="#2F69A8" opacity="1.000000" stroke="none" 
	d="
M34.517159,76.802719 
	C34.618080,77.053162 34.455971,77.374969 34.011894,77.741943 
	C33.904659,77.482765 34.079391,77.178429 34.517159,76.802719 
z"/>
<path fill="#F5F8F9" opacity="1.000000" stroke="none" 
	d="
M164.661591,201.908630 
	C164.497162,202.242630 164.030579,202.600754 163.250702,202.967102 
	C163.411423,202.627777 163.885422,202.280273 164.661591,201.908630 
z"/>
<path fill="#F5F8F9" opacity="1.000000" stroke="none" 
	d="
M144.648621,210.916595 
	C144.386093,211.251633 143.761826,211.572861 142.762833,211.855820 
	C143.021027,211.512619 143.653976,211.207703 144.648621,210.916595 
z"/>
<path fill="#F5F8F9" opacity="1.000000" stroke="none" 
	d="
M137.637085,212.994690 
	C137.360245,213.309067 136.722931,213.600433 135.713348,213.843643 
	C135.986267,213.520874 136.631439,213.246292 137.637085,212.994690 
z"/>
<path fill="#F5F8F9" opacity="1.000000" stroke="none" 
	d="
M140.659973,212.119965 
	C140.409058,212.410233 139.835556,212.674011 138.929642,212.900360 
	C139.177277,212.606445 139.757339,212.349945 140.659973,212.119965 
z"/>
<path fill="#F5F8F9" opacity="1.000000" stroke="none" 
	d="
M132.631668,214.106293 
	C132.349426,214.404388 131.716049,214.656540 130.722870,214.860840 
	C131.002228,214.562119 131.641388,214.311218 132.631668,214.106293 
z"/>
<path fill="#F5F8F9" opacity="1.000000" stroke="none" 
	d="
M176.621414,193.862488 
	C176.663239,194.108002 176.402008,194.427673 175.825104,194.804871 
	C175.779083,194.553818 176.048721,194.245224 176.621414,193.862488 
z"/>
<path fill="#F5F8F9" opacity="1.000000" stroke="none" 
	d="
M178.766113,192.119156 
	C178.909927,192.396255 178.713089,192.642654 178.205444,192.905777 
	C178.158066,192.713577 178.335022,192.435577 178.766113,192.119156 
z"/>
<path fill="#F5F8F9" opacity="1.000000" stroke="none" 
	d="
M170.710999,198.029007 
	C170.739807,198.266418 170.480011,198.526459 169.942627,198.834152 
	C169.917465,198.605087 170.169922,198.328354 170.710999,198.029007 
z"/>
<path fill="#F5F8F9" opacity="1.000000" stroke="none" 
	d="
M149.667892,209.068237 
	C149.652985,209.325729 149.315231,209.561005 148.658447,209.794174 
	C148.674622,209.543396 149.009842,209.294724 149.667892,209.068237 
z"/>
<path fill="#F5F8F9" opacity="1.000000" stroke="none" 
	d="
M146.674881,210.142593 
	C146.656555,210.381500 146.329910,210.600449 145.698883,210.819366 
	C145.718521,210.587097 146.042542,210.354858 146.674881,210.142593 
z"/>
<path fill="#3798C8" opacity="1.000000" stroke="none" 
	d="
M61.688419,34.614559 
	C55.917713,37.282867 49.874702,39.693066 43.275436,41.779846 
	C41.895786,40.989056 41.089329,40.155212 40.246140,40.116238 
	C36.068268,39.923130 31.880703,39.939877 27.696554,39.882660 
	C31.524382,35.550339 35.352211,31.218014 39.522575,26.843700 
	C38.829960,28.767038 37.794811,30.732368 36.521961,33.149002 
	C41.485622,36.214844 46.758335,37.472656 52.787560,35.656811 
	C55.544239,34.826569 58.532749,34.766056 61.688419,34.614559 
z"/>
<path fill="#2F8DC7" opacity="1.000000" stroke="none" 
	d="
M27.411972,40.021328 
	C31.880703,39.939877 36.068268,39.923130 40.246140,40.116238 
	C41.089329,40.155212 41.895786,40.989056 42.896263,41.794559 
	C42.010941,42.795055 40.948524,43.457424 39.287743,44.174622 
	C38.470078,44.515503 38.250782,44.801567 38.031483,45.087627 
	C38.031483,45.087627 38.018959,45.014927 37.810242,45.123192 
	C37.412731,45.518543 37.223934,45.805634 37.035141,46.092724 
	C37.035141,46.092724 37.055569,46.036930 37.076698,46.058994 
	C34.270115,47.025742 31.490995,48.188732 28.596415,48.832932 
	C26.870182,49.217113 24.962723,48.787003 23.070440,47.974892 
	C22.987518,46.460438 22.970886,45.694042 22.954254,44.927643 
	C22.954254,44.927643 22.988895,44.996407 23.272232,44.966698 
	C24.037273,44.356873 24.518978,43.776760 25.000685,43.196648 
	C25.709585,42.184429 26.418486,41.172211 27.411972,40.021328 
z"/>
<path fill="#3D5487" opacity="1.000000" stroke="none" 
	d="
M5.834980,80.345795 
	C6.331285,81.204010 7.136629,82.452148 7.089786,83.667427 
	C6.975304,86.637512 6.466741,89.592415 6.010496,92.849014 
	C4.904485,94.042503 3.904783,94.940407 2.528290,95.926575 
	C3.353112,90.916809 4.554725,85.818794 5.834980,80.345795 
z"/>
<path fill="#3BA1CF" opacity="1.000000" stroke="none" 
	d="
M76.657471,6.023799 
	C74.880280,9.546304 71.490105,10.151989 67.349762,9.969561 
	C70.043549,8.634866 73.160019,7.318611 76.657471,6.023799 
z"/>
<path fill="#468AB1" opacity="1.000000" stroke="none" 
	d="
M19.733398,49.208900 
	C18.608541,51.659870 17.204512,54.292385 15.452721,56.970097 
	C16.554716,54.473679 18.004471,51.932064 19.733398,49.208900 
z"/>
<path fill="#3BA1CF" opacity="1.000000" stroke="none" 
	d="
M66.592361,9.927217 
	C64.530212,11.267212 62.104420,12.619851 59.277779,13.941940 
	C61.327526,12.587547 63.778118,11.263705 66.592361,9.927217 
z"/>
<path fill="#468AB1" opacity="1.000000" stroke="none" 
	d="
M22.667416,45.069565 
	C22.970886,45.694042 22.987518,46.460438 22.998363,47.609562 
	C22.504129,47.986496 22.015682,47.980701 21.161179,47.948692 
	C21.323610,47.018814 21.852093,46.115150 22.667416,45.069565 
z"/>
<path fill="#487BA5" opacity="1.000000" stroke="none" 
	d="
M15.029018,59.558739 
	C14.583854,60.288857 14.117521,60.620304 13.353234,60.974884 
	C13.484636,59.994335 13.913993,58.990654 14.605932,57.775787 
	C14.914961,58.096424 14.961406,58.628242 15.029018,59.558739 
z"/>
<path fill="#F3FCFD" opacity="1.000000" stroke="none" 
	d="
M6.824568,74.030319 
	C7.125763,74.779465 7.093561,75.565491 6.752372,76.308060 
	C6.459313,75.532143 6.475242,74.799667 6.824568,74.030319 
z"/>
<path fill="#468AB1" opacity="1.000000" stroke="none" 
	d="
M24.733864,43.329727 
	C24.518978,43.776760 24.037273,44.356873 23.238314,44.948486 
	C23.436386,44.460922 23.951714,43.961864 24.733864,43.329727 
z"/>
<path fill="#3BA1CF" opacity="1.000000" stroke="none" 
	d="
M58.643890,13.855530 
	C58.473640,14.220415 57.982124,14.587170 57.160408,14.957822 
	C57.327679,14.593613 57.825153,14.225505 58.643890,13.855530 
z"/>
<path fill="#3798C8" opacity="1.000000" stroke="none" 
	d="
M40.791847,25.886518 
	C40.856178,26.116180 40.624084,26.421690 40.120384,26.831909 
	C40.064327,26.611870 40.279877,26.287117 40.791847,25.886518 
z"/>
<path fill="#2FAADD" opacity="1.000000" stroke="none" 
	d="
M147.979874,23.980202 
	C133.419968,23.987795 118.831352,23.444674 104.310486,24.201427 
	C95.016838,24.685764 85.861465,27.416851 76.569519,28.502174 
	C71.508263,29.093344 66.561447,30.688030 61.016346,28.516184 
	C57.362347,27.085030 52.476479,28.881779 48.135136,29.071306 
	C46.869350,29.126566 45.579262,28.625017 44.300312,28.378695 
	C44.871799,27.119272 45.116074,25.459194 46.075916,24.675293 
	C48.995663,22.290751 52.191689,20.244497 55.630745,18.029701 
	C61.343678,21.161390 67.320488,20.928167 73.203224,20.973745 
	C84.700493,21.062826 96.200813,21.128023 107.696350,20.961182 
	C117.697014,20.816036 127.691299,20.197201 137.691696,20.086887 
	C140.947403,20.050976 144.213531,20.958139 147.737915,22.048004 
	C147.993927,23.101431 147.986893,23.540815 147.979874,23.980202 
z"/>
<path fill="#3FADDA" opacity="1.000000" stroke="none" 
	d="
M148.383392,23.986904 
	C147.986893,23.540815 147.993927,23.101431 148.002914,22.332317 
	C149.293289,22.426117 150.581680,22.849640 151.941833,23.628010 
	C150.938034,23.986439 149.862473,23.990025 148.383392,23.986904 
z"/>
<path fill="#3D5487" opacity="1.000000" stroke="none" 
	d="
M5.524396,95.620758 
	C5.833931,95.682274 5.993306,96.039291 6.085009,96.697998 
	C5.802969,96.638535 5.588603,96.277405 5.524396,95.620758 
z"/>
<path fill="#FAFCFD" opacity="1.000000" stroke="none" 
	d="
M157.619476,65.993607 
	C158.145187,66.439537 158.194824,66.893570 158.201324,67.984100 
	C158.167328,69.061203 158.176483,69.501793 158.185638,69.942390 
	C158.094162,70.402344 158.002686,70.862305 157.995010,71.668106 
	C157.244415,78.007309 156.410019,84.000671 155.473267,90.662148 
	C155.383438,91.672188 155.395981,92.014114 155.371826,92.451935 
	C155.335129,92.547821 155.349518,92.752663 155.227234,92.933784 
	C155.019684,93.410187 155.044525,93.695923 155.086136,94.303757 
	C155.018402,95.089867 155.043991,95.544342 155.069595,95.998817 
	C154.401169,100.303474 153.741791,104.609558 153.059921,108.912086 
	C152.779968,110.678497 152.451553,112.437225 152.071075,114.976158 
	C152.040771,116.510933 152.084610,117.269005 152.128418,118.027077 
	C152.025421,118.767113 151.922424,119.507149 151.698151,120.954224 
	C151.014297,126.775719 150.451721,131.890167 149.889160,137.004623 
	C149.655457,137.807007 149.421753,138.609390 149.125244,140.125977 
	C148.931274,144.175064 148.800095,147.509918 148.668915,150.844788 
	C148.668915,150.844788 148.527710,150.895889 148.473114,150.949982 
	C148.187408,151.177979 147.956299,151.351898 147.395065,151.264252 
	C137.049103,151.007843 127.033241,151.012970 117.017387,151.018112 
	C116.809471,150.536102 116.601547,150.054092 116.523438,148.984009 
	C117.462456,141.303116 118.271667,134.210312 119.216484,126.965324 
	C119.486176,126.528076 119.438400,126.277740 119.350975,125.708893 
	C119.551331,124.602203 119.609474,123.848770 119.786926,122.773758 
	C119.230705,122.125450 118.555191,121.798714 117.422409,121.419968 
	C110.237015,121.463631 103.508881,121.559303 96.474655,121.734489 
	C96.088226,122.203323 96.007889,122.592644 95.818123,123.326065 
	C95.528328,125.103508 95.347954,126.536842 95.052994,128.222168 
	C94.980988,128.653702 95.023575,128.833267 94.986534,129.418915 
	C93.897499,136.868896 92.888077,143.912827 91.878662,150.956741 
	C91.878662,150.956741 91.422180,150.964920 90.746109,150.967651 
	C80.396454,150.954102 70.722885,150.937820 61.049309,150.921555 
	C61.323948,147.875534 61.598591,144.829514 61.945530,140.980835 
	C62.087921,138.809494 62.158009,137.440796 62.228096,136.072113 
	C62.468838,134.940186 62.709579,133.808273 63.026039,131.938095 
	C63.382915,128.134949 63.664074,125.070038 64.087677,121.667908 
	C64.387482,119.890472 64.544846,118.450272 64.831955,116.594589 
	C65.177536,114.165779 65.393379,112.152451 65.609215,110.139130 
	C65.828690,108.012032 66.048157,105.884941 66.098755,103.380325 
	C65.989853,101.949539 66.049820,100.896271 66.504997,99.248291 
	C66.973618,96.784607 67.047035,94.915649 67.120453,93.046692 
	C67.731300,89.972900 68.342163,86.899101 68.901306,83.413994 
	C68.903168,80.632996 68.956757,78.263313 68.952065,75.449905 
	C69.539810,73.242500 70.185837,71.478813 70.783897,69.358017 
	C71.266975,68.008827 71.798019,67.016769 72.915909,65.983437 
	C73.666077,65.888168 73.829407,65.834167 73.992744,65.780159 
	C76.708038,65.832451 79.423325,65.884743 83.039558,65.965385 
	C89.966789,65.960312 95.993080,65.926880 102.019371,65.893440 
	C102.019371,65.893440 102.247925,66.079552 102.393410,66.206482 
	C102.603546,66.548370 102.735184,66.708206 102.910324,66.882584 
	C102.886841,66.952225 103.015213,67.023842 102.923073,67.340576 
	C102.809959,68.313858 102.788979,68.970406 102.545212,69.968781 
	C101.114296,79.580864 99.906158,88.851128 98.649498,98.493698 
	C107.165184,98.493698 114.883682,98.493698 122.967377,98.493698 
	C123.224174,95.494507 123.461266,92.725456 123.803375,89.637939 
	C123.899483,88.875076 123.890579,88.430679 124.021103,87.671478 
	C124.279167,86.229568 124.397789,85.102455 124.655106,83.659149 
	C124.804039,82.885551 124.814293,82.428162 124.945099,81.580627 
	C125.497322,76.801323 125.928993,72.412163 126.541771,67.714645 
	C126.817413,66.939224 126.911949,66.472153 127.006485,66.005089 
	C137.052124,66.003960 147.097748,66.002838 157.619476,65.993607 
z"/>
<path fill="#251E68" opacity="1.000000" stroke="none" 
	d="
M96.780746,121.654976 
	C103.508881,121.559303 110.237015,121.463631 117.480179,121.674515 
	C118.552681,122.352486 119.110146,122.723907 119.667618,123.095329 
	C119.609474,123.848770 119.551331,124.602203 119.226982,125.861824 
	C118.861633,126.640144 118.901665,126.889977 119.080872,127.117500 
	C118.271667,134.210312 117.462456,141.303116 116.437225,148.726501 
	C115.772133,147.709366 114.960747,146.364899 114.948692,145.013275 
	C114.922821,142.111755 115.309189,139.206558 114.833633,136.276901 
	C115.599251,133.534042 116.294930,130.769241 117.147041,128.053513 
	C118.394745,124.077072 116.859215,123.710533 113.426964,124.717751 
	C110.793533,125.490532 107.977386,125.775337 105.220985,125.965950 
	C99.730583,126.345619 96.634781,128.712158 96.096024,133.816971 
	C95.525772,139.220306 95.348785,144.665131 94.999710,150.545929 
	C94.219124,150.994278 93.438866,150.988556 92.268631,150.969788 
	C92.888077,143.912827 93.897499,136.868896 95.141609,129.329834 
	C95.433151,128.730927 95.562462,128.594971 95.533333,128.529404 
	C95.444077,128.328491 95.294006,128.154587 95.167587,127.970184 
	C95.347954,126.536842 95.528328,125.103508 96.055847,123.172791 
	C96.528915,122.335266 96.654831,121.995117 96.780746,121.654976 
z"/>
<path fill="#222775" opacity="1.000000" stroke="none" 
	d="
M64.702209,117.010071 
	C64.544846,118.450272 64.387482,119.890472 63.738281,121.728966 
	C62.496788,124.081009 61.747131,126.034752 60.997475,127.988503 
	C59.929993,127.991692 58.862511,127.994873 57.394485,127.995720 
	C55.598625,126.996353 54.280594,125.304466 52.792789,125.138992 
	C49.063225,124.724167 45.239807,125.206909 41.489536,124.898262 
	C39.981735,124.774162 38.566795,123.521713 37.417435,122.232422 
	C42.301521,121.121147 46.866371,120.424095 51.457405,120.039970 
	C55.560425,119.696678 60.288605,122.169907 63.254612,117.129715 
	C63.396164,116.889168 64.204437,117.040977 64.702209,117.010071 
z"/>
<path fill="#241F56" opacity="1.000000" stroke="none" 
	d="
M61.318867,151.238342 
	C70.722885,150.937820 80.396454,150.954102 90.532677,151.048615 
	C90.804962,151.566956 90.605125,152.395844 90.425598,152.391479 
	C80.812119,152.157104 71.200363,151.852478 61.318867,151.238342 
z"/>
<path fill="#25266C" opacity="1.000000" stroke="none" 
	d="
M61.124496,128.285263 
	C61.747131,126.034752 62.496788,124.081009 63.595840,122.066193 
	C63.664074,125.070038 63.382915,128.134949 62.966560,131.588287 
	C62.304749,130.845154 61.778133,129.713593 61.124496,128.285263 
z"/>
<path fill="#25266C" opacity="1.000000" stroke="none" 
	d="
M61.922264,136.241531 
	C62.158009,137.440796 62.087921,138.809494 61.901428,140.573914 
	C61.728825,139.450089 61.672626,137.930527 61.922264,136.241531 
z"/>
<path fill="#29225A" opacity="1.000000" stroke="none" 
	d="
M150.194244,136.765930 
	C150.451721,131.890167 151.014297,126.775719 151.773834,121.321678 
	C151.977509,121.748993 151.984222,122.515900 152.023987,123.667107 
	C151.537811,128.210022 151.018585,132.368637 150.194244,136.765930 
z"/>
<path fill="#29225A" opacity="1.000000" stroke="none" 
	d="
M149.091400,150.474274 
	C148.800095,147.509918 148.931274,144.175064 149.177307,140.440216 
	C149.366089,143.394760 149.440002,146.749252 149.091400,150.474274 
z"/>
<path fill="#29225A" opacity="1.000000" stroke="none" 
	d="
M117.009644,151.265350 
	C127.033241,151.012970 137.049103,151.007843 147.326111,151.394043 
	C137.617599,151.939590 127.647926,152.093796 117.339584,152.127655 
	C117.000916,152.007324 117.001907,151.512604 117.009644,151.265350 
z"/>
<path fill="#232E7B" opacity="1.000000" stroke="none" 
	d="
M152.389923,118.295280 
	C152.084610,117.269005 152.040771,116.510933 152.074921,115.378761 
	C161.288589,115.002907 170.429825,115.185722 179.557404,114.912659 
	C183.456955,114.796005 187.328049,113.728485 191.599915,113.048439 
	C191.992020,113.666428 191.909058,114.343254 192.014557,114.989311 
	C192.783325,119.697601 190.985428,121.303146 186.109314,121.111237 
	C176.516479,120.733673 166.895782,121.109215 157.293015,120.891495 
	C155.729034,120.856041 154.197800,119.375885 152.389923,118.295280 
z"/>
<path fill="#254289" opacity="1.000000" stroke="none" 
	d="
M155.303070,96.000763 
	C155.043991,95.544342 155.018402,95.089867 155.264801,94.135307 
	C155.726837,93.287636 155.664413,92.993446 155.349518,92.752663 
	C155.349518,92.752663 155.335129,92.547821 155.753677,92.654884 
	C156.448532,92.839256 156.724823,92.916573 157.001099,92.993881 
	C157.001099,92.993881 157.000031,92.999695 157.003098,92.999084 
	C156.846054,93.862259 156.685928,94.726044 156.264633,95.797379 
	C156.003448,96.004921 155.536530,96.002716 155.303070,96.000763 
z"/>
<path fill="#253A86" opacity="1.000000" stroke="none" 
	d="
M156.002167,105.425568 
	C166.689041,105.001450 177.375168,105.000771 188.529724,105.000504 
	C189.604782,109.375908 188.084000,111.317596 183.302475,111.092140 
	C175.903030,110.743233 168.470444,110.843948 161.061050,111.062859 
	C157.134171,111.178886 155.546646,109.667976 156.002167,105.425568 
z"/>
<path fill="#255B9D" opacity="1.000000" stroke="none" 
	d="
M158.009750,81.447609 
	C162.768631,81.690117 167.523132,82.382133 172.639420,83.039520 
	C171.894943,88.243576 169.016510,89.657532 161.191620,89.009010 
	C155.697418,88.553642 158.911377,84.332649 158.009750,81.447609 
z"/>
<path fill="#274B90" opacity="1.000000" stroke="none" 
	d="
M156.964142,92.660156 
	C156.724823,92.916573 156.448532,92.839256 155.790375,92.558990 
	C155.395981,92.014114 155.383438,91.672188 155.514130,91.109055 
	C156.080643,91.367371 156.503906,91.846901 156.964142,92.660156 
z"/>
<path fill="#2D73AD" opacity="1.000000" stroke="none" 
	d="
M126.774139,65.747604 
	C126.911949,66.472153 126.817413,66.939224 126.321060,67.749763 
	C125.609604,68.393173 125.299957,68.693108 124.568672,69.005669 
	C117.438278,69.011398 110.729507,69.004501 103.996452,68.702682 
	C103.653183,67.946457 103.334198,67.485153 103.015213,67.023842 
	C103.015213,67.023842 102.886841,66.952225 102.918617,66.741333 
	C102.950394,66.530441 102.950386,66.238365 102.950386,66.238365 
	C110.814186,65.988953 118.677994,65.739540 126.774139,65.747604 
z"/>
<path fill="#2D73AD" opacity="1.000000" stroke="none" 
	d="
M148.862213,64.998474 
	C142.598770,64.998474 136.813248,64.998474 131.027740,64.998474 
	C131.029465,64.748558 131.031174,64.498634 131.032898,64.248718 
	C139.282013,64.248718 147.531113,64.248718 155.780228,64.248718 
	C155.791779,64.498634 155.803329,64.748558 155.814880,64.998474 
	C153.656631,64.998474 151.498383,64.998474 148.862213,64.998474 
z"/>
<path fill="#4D80AB" opacity="1.000000" stroke="none" 
	d="
M102.022308,65.659927 
	C95.993080,65.926880 89.966789,65.960312 83.485840,65.883621 
	C89.042801,65.508102 95.054420,65.242714 101.534477,64.968613 
	C102.002907,64.959908 102.025253,65.426422 102.022308,65.659927 
z"/>
<path fill="#476794" opacity="1.000000" stroke="none" 
	d="
M102.846992,66.182785 
	C102.950386,66.238365 102.950394,66.530441 102.942108,66.671692 
	C102.735184,66.708206 102.603546,66.548370 102.537476,66.175438 
	C102.536049,66.017464 102.743599,66.127197 102.846992,66.182785 
z"/>
<path fill="#2D7AB4" opacity="1.000000" stroke="none" 
	d="
M158.394775,69.779190 
	C158.176483,69.501793 158.167328,69.061203 158.290253,68.314949 
	C158.422333,68.009293 158.744263,68.030983 158.900833,68.072685 
	C158.906235,68.614922 158.755066,69.115448 158.394775,69.779190 
z"/>
<path fill="#244B8F" opacity="1.000000" stroke="none" 
	d="
M66.689934,93.040512 
	C67.047035,94.915649 66.973618,96.784607 66.549835,98.855095 
	C54.069965,99.617638 41.824039,97.391457 29.000278,100.890457 
	C29.000278,98.680107 29.000278,96.773727 29.000347,94.435326 
	C31.207190,93.761902 33.417103,93.297470 35.620041,93.328476 
	C39.455410,93.382469 43.290752,93.985832 47.118382,93.918648 
	C53.501934,93.806618 59.879391,93.347382 66.689934,93.040512 
z"/>
<path fill="#23317D" opacity="1.000000" stroke="none" 
	d="
M64.831955,116.594589 
	C64.204437,117.040977 63.396164,116.889168 63.254612,117.129715 
	C60.288605,122.169907 55.560425,119.696678 51.457405,120.039970 
	C46.866371,120.424095 42.301521,121.121147 37.363098,121.839706 
	C35.426762,119.870003 33.852612,117.742638 32.149849,115.302292 
	C33.752766,112.287186 35.962818,112.138924 39.166729,112.366219 
	C47.758331,112.975739 56.624371,115.057060 65.215698,110.203247 
	C65.393379,112.152451 65.177536,114.165779 64.831955,116.594589 
z"/>
<path fill="#3A88BA" opacity="1.000000" stroke="none" 
	d="
M37.296909,46.025181 
	C37.223934,45.805634 37.412731,45.518543 37.845886,45.132683 
	C37.913055,45.341820 37.735867,45.649727 37.296909,46.025181 
z"/>
<path fill="#3A88BA" opacity="1.000000" stroke="none" 
	d="
M38.298733,45.011665 
	C38.250782,44.801567 38.470078,44.515503 38.953770,44.148293 
	C39.000771,44.356663 38.783375,44.646187 38.298733,45.011665 
z"/>
<path fill="#2F69A8" opacity="1.000000" stroke="none" 
	d="
M56.191414,65.908218 
	C55.996037,65.982033 56.056564,65.597298 56.142399,65.423386 
	C56.228233,65.249474 56.569069,65.183144 56.741085,65.198410 
	C56.815796,65.486809 56.640362,65.693718 56.191414,65.908218 
z"/>
<path fill="#4D80AB" opacity="1.000000" stroke="none" 
	d="
M73.901276,65.635147 
	C73.829407,65.834167 73.666077,65.888168 73.256989,65.863541 
	C73.277428,65.686646 73.543617,65.588394 73.901276,65.635147 
z"/>
<path fill="#468AB1" opacity="1.000000" stroke="none" 
	d="
M22.035038,58.177788 
	C22.097994,58.407726 21.874176,58.710182 21.379211,59.106953 
	C21.321463,58.884281 21.534864,58.567295 22.035038,58.177788 
z"/>
<path fill="#255496" opacity="1.000000" stroke="none" 
	d="
M123.881683,87.986275 
	C123.890579,88.430679 123.899483,88.875076 123.454224,89.752083 
	C122.605476,97.653709 117.475853,97.483353 112.063606,97.072807 
	C109.440903,96.873863 106.738136,97.331230 104.178513,96.882149 
	C103.040337,96.682457 101.316437,94.953918 101.342789,93.958618 
	C101.404930,91.611618 102.358223,89.288216 103.382111,86.966530 
	C110.222107,85.985863 116.631042,84.993927 123.032562,84.360214 
	C123.310654,85.807709 123.596169,86.896996 123.881683,87.986275 
z"/>
<path fill="#2D659F" opacity="1.000000" stroke="none" 
	d="
M123.039978,84.001991 
	C116.631042,84.993927 110.222107,85.985863 103.390945,86.526993 
	C102.980202,83.714508 102.991684,81.352829 103.422829,78.984116 
	C105.282005,78.658928 106.711815,78.126656 108.162773,78.060814 
	C113.565872,77.815651 119.294052,78.752243 123.005165,73.226318 
	C123.239006,72.878105 124.258621,73.057602 124.885681,73.383606 
	C124.847321,76.507332 124.835930,79.239052 124.824539,81.970764 
	C124.814293,82.428162 124.804039,82.885551 124.408737,83.659012 
	C123.696114,83.996277 123.368210,84.005249 123.039978,84.001991 
z"/>
<path fill="#476794" opacity="1.000000" stroke="none" 
	d="
M103.003174,78.991150 
	C102.991684,81.352829 102.980202,83.714508 102.959885,86.515732 
	C102.358223,89.288216 101.404930,91.611618 101.342789,93.958618 
	C101.316437,94.953918 103.040337,96.682457 104.178513,96.882149 
	C106.738136,97.331230 109.440903,96.873863 112.063606,97.072807 
	C117.475853,97.483353 122.605476,97.653709 123.349205,90.070541 
	C123.461266,92.725456 123.224174,95.494507 122.967377,98.493698 
	C114.883682,98.493698 107.165184,98.493698 98.649498,98.493698 
	C99.906158,88.851128 101.114296,79.580864 102.650139,70.294327 
	C103.026558,70.500427 103.075279,70.722816 103.086441,71.394226 
	C103.033646,74.225868 103.018410,76.608513 103.003174,78.991150 
z"/>
<path fill="#476794" opacity="1.000000" stroke="none" 
	d="
M124.945099,81.580627 
	C124.835930,79.239052 124.847321,76.507332 124.911819,72.984634 
	C124.973389,71.126778 124.981842,70.059906 124.990295,68.993042 
	C125.299957,68.693108 125.609604,68.393173 126.139954,68.058121 
	C125.928993,72.412163 125.497322,76.801323 124.945099,81.580627 
z"/>
<path fill="#476794" opacity="1.000000" stroke="none" 
	d="
M123.032562,84.360214 
	C123.368210,84.005249 123.696114,83.996277 124.270050,83.975204 
	C124.397789,85.102455 124.279167,86.229568 124.021111,87.671478 
	C123.596169,86.896996 123.310654,85.807709 123.032562,84.360214 
z"/>
<path fill="#2D659F" opacity="1.000000" stroke="none" 
	d="
M103.124008,70.945213 
	C103.075279,70.722816 103.026558,70.500427 102.872925,69.952499 
	C102.788979,68.970406 102.809959,68.313858 102.923073,67.340576 
	C103.334198,67.485153 103.653183,67.946457 103.973183,68.987251 
	C103.690804,70.026230 103.407402,70.485725 103.124008,70.945213 
z"/>
<path fill="#555787" opacity="1.000000" stroke="none" 
	d="
M119.786919,122.773758 
	C119.110146,122.723907 118.552681,122.352486 117.937439,121.726517 
	C118.555191,121.798714 119.230705,122.125450 119.786919,122.773758 
z"/>
<path fill="#2E5797" opacity="1.000000" stroke="none" 
	d="
M155.227234,92.933784 
	C155.664413,92.993446 155.726837,93.287636 155.358124,93.803665 
	C155.044525,93.695923 155.019684,93.410187 155.227234,92.933784 
z"/>
<path fill="#555787" opacity="1.000000" stroke="none" 
	d="
M119.216484,126.965324 
	C118.901665,126.889977 118.861633,126.640144 119.084770,126.215073 
	C119.438400,126.277740 119.486176,126.528076 119.216484,126.965324 
z"/>
<path fill="#555787" opacity="1.000000" stroke="none" 
	d="
M95.052994,128.222168 
	C95.294006,128.154587 95.444077,128.328491 95.533333,128.529404 
	C95.562462,128.594971 95.433151,128.730927 95.221230,128.923767 
	C95.023575,128.833267 94.980988,128.653702 95.052994,128.222168 
z"/>
<path fill="#555787" opacity="1.000000" stroke="none" 
	d="
M96.474655,121.734489 
	C96.654831,121.995117 96.528915,122.335266 96.165276,122.828690 
	C96.007889,122.592644 96.088226,122.203323 96.474655,121.734489 
z"/>
<path fill="#286AA7" opacity="1.000000" stroke="none" 
	d="
M103.086441,71.394226 
	C103.407402,70.485725 103.690804,70.026230 103.997475,69.282166 
	C110.729507,69.004501 117.438278,69.011398 124.568665,69.005669 
	C124.981842,70.059906 124.973389,71.126778 124.938797,72.592621 
	C124.258621,73.057602 123.239006,72.878105 123.005165,73.226318 
	C119.294052,78.752243 113.565872,77.815651 108.162773,78.060814 
	C106.711815,78.126656 105.282005,78.658928 103.422829,78.984116 
	C103.018410,76.608513 103.033646,74.225868 103.086441,71.394226 
z"/>
</svg>